<svg width="181" height="60" viewBox="0 0 181 60" fill="none" xmlns="http://www.w3.org/2000/svg">
<rect width="181" height="60" rx="8" fill="#0D243C"/>
<path d="M75.46 23H76.2L73.51 16H72.79L70.1 23H70.84L71.49 21.28H74.81L75.46 23ZM71.74 20.62L73.15 16.87L74.56 20.62H71.74ZM80.4035 18L78.6535 22.31L76.9035 18H76.2035L78.2535 23H79.0535L81.1035 18H80.4035ZM86.0059 18V18.98C85.5859 18.31 84.8759 17.88 83.9859 17.88C82.5759 17.88 81.4059 19.02 81.4059 20.5C81.4059 21.98 82.5759 23.12 83.9859 23.12C84.8759 23.12 85.5859 22.69 86.0059 22.02V23H86.6659V18H86.0059ZM84.0359 22.48C82.9259 22.48 82.0659 21.61 82.0659 20.5C82.0659 19.39 82.9259 18.52 84.0359 18.52C85.1459 18.52 86.0059 19.39 86.0059 20.5C86.0059 21.61 85.1459 22.48 84.0359 22.48ZM88.3933 16.94C88.6633 16.94 88.8733 16.72 88.8733 16.46C88.8733 16.2 88.6633 15.98 88.3933 15.98C88.1233 15.98 87.9133 16.2 87.9133 16.46C87.9133 16.72 88.1233 16.94 88.3933 16.94ZM88.0633 23H88.7233V18H88.0633V23ZM90.1238 23H90.7838V15.7H90.1238V23ZM96.4844 18V18.98C96.0644 18.31 95.3544 17.88 94.4644 17.88C93.0544 17.88 91.8844 19.02 91.8844 20.5C91.8844 21.98 93.0544 23.12 94.4644 23.12C95.3544 23.12 96.0644 22.69 96.4844 22.02V23H97.1444V18H96.4844ZM94.5144 22.48C93.4044 22.48 92.5444 21.61 92.5444 20.5C92.5444 19.39 93.4044 18.52 94.5144 18.52C95.6244 18.52 96.4844 19.39 96.4844 20.5C96.4844 21.61 95.6244 22.48 94.5144 22.48ZM101.222 17.88C100.332 17.88 99.6218 18.31 99.2018 18.98V16H98.5418V23H99.2018V22.02C99.6218 22.69 100.332 23.12 101.222 23.12C102.632 23.12 103.802 21.98 103.802 20.5C103.802 19.02 102.632 17.88 101.222 17.88ZM101.172 22.48C100.062 22.48 99.2018 21.61 99.2018 20.5C99.2018 19.39 100.062 18.52 101.172 18.52C102.282 18.52 103.142 19.39 103.142 20.5C103.142 21.61 102.282 22.48 101.172 22.48ZM104.899 23H105.559V15.7H104.899V23ZM109.27 17.88C107.72 17.88 106.66 19.03 106.66 20.5C106.66 22.01 107.74 23.12 109.32 23.12C110.33 23.12 111.1 22.65 111.52 21.97L110.94 21.63C110.67 22.11 110.12 22.48 109.33 22.48C108.27 22.48 107.48 21.85 107.34 20.83H111.73C111.74 20.73 111.75 20.62 111.75 20.52C111.75 19.15 110.8 17.88 109.27 17.88ZM109.27 18.52C110.13 18.52 110.93 19.09 111.07 20.19H107.34C107.47 19.21 108.22 18.52 109.27 18.52ZM117.63 23.12C119.09 23.12 120.26 21.98 120.26 20.5C120.26 19.02 119.09 17.88 117.63 17.88C116.17 17.88 115 19.02 115 20.5C115 21.98 116.17 23.12 117.63 23.12ZM117.63 22.48C116.52 22.48 115.66 21.61 115.66 20.5C115.66 19.39 116.52 18.52 117.63 18.52C118.74 18.52 119.6 19.39 119.6 20.5C119.6 21.61 118.74 22.48 117.63 22.48ZM123.704 17.88C122.994 17.88 122.414 18.15 122.024 18.78V18H121.364V23H122.024V20.38C122.024 19.04 122.764 18.52 123.644 18.52C124.514 18.52 125.004 19.04 125.004 19.93V23H125.664V19.93C125.664 18.68 124.924 17.88 123.704 17.88Z" fill="white" fill-opacity="0.9"/>
<path d="M79.468 43H81.7L77.146 30.4H74.662L70.09 43H72.34L73.222 40.462H78.586L79.468 43ZM73.906 38.518L75.904 32.83L77.902 38.518H73.906ZM88.0229 33.766C86.6189 33.766 85.5569 34.342 84.8729 35.296V34H82.9289V46.6H84.8729V41.722C85.5569 42.658 86.6189 43.234 88.0229 43.234C90.4709 43.234 92.5049 41.182 92.5049 38.5C92.5049 35.836 90.4709 33.766 88.0229 33.766ZM87.7169 41.38C86.0969 41.38 84.8729 40.174 84.8729 38.5C84.8729 36.826 86.0969 35.62 87.7169 35.62C89.3369 35.62 90.5609 36.826 90.5609 38.5C90.5609 40.174 89.3369 41.38 87.7169 41.38ZM99.3608 33.766C97.9568 33.766 96.8948 34.342 96.2108 35.296V34H94.2668V46.6H96.2108V41.722C96.8948 42.658 97.9568 43.234 99.3608 43.234C101.809 43.234 103.843 41.182 103.843 38.5C103.843 35.836 101.809 33.766 99.3608 33.766ZM99.0548 41.38C97.4348 41.38 96.2108 40.174 96.2108 38.5C96.2108 36.826 97.4348 35.62 99.0548 35.62C100.675 35.62 101.899 36.826 101.899 38.5C101.899 40.174 100.675 41.38 99.0548 41.38ZM114.425 43.234C117.053 43.234 118.889 41.83 118.889 39.526C118.889 37.024 116.783 36.376 114.695 35.71C112.859 35.134 112.157 34.72 112.157 33.748C112.157 32.794 112.931 32.182 114.137 32.182C115.541 32.182 116.333 32.938 116.783 33.946L118.529 32.938C117.737 31.264 116.207 30.166 114.137 30.166C112.013 30.166 110.087 31.48 110.087 33.802C110.087 36.178 111.995 36.898 113.957 37.492C115.829 38.068 116.819 38.446 116.819 39.562C116.819 40.48 116.117 41.218 114.479 41.218C112.769 41.218 111.797 40.372 111.347 39.094L109.565 40.138C110.231 42.01 111.941 43.234 114.425 43.234ZM125.304 35.872V34H123.072V31.48L121.128 32.056V34H119.472V35.872H121.128V40.192C121.128 42.532 122.316 43.36 125.304 43V41.254C123.828 41.326 123.072 41.344 123.072 40.192V35.872H125.304ZM130.946 43.234C133.592 43.234 135.698 41.164 135.698 38.5C135.698 35.818 133.592 33.766 130.946 33.766C128.318 33.766 126.194 35.818 126.194 38.5C126.194 41.164 128.318 43.234 130.946 43.234ZM130.946 41.344C129.362 41.344 128.138 40.138 128.138 38.5C128.138 36.862 129.362 35.656 130.946 35.656C132.53 35.656 133.754 36.862 133.754 38.5C133.754 40.138 132.53 41.344 130.946 41.344ZM139.4 35.512V34H137.456V43H139.4V38.464C139.4 36.448 140.894 35.854 142.172 35.944V33.838C141.038 33.838 139.94 34.288 139.4 35.512ZM144.717 39.328H151.881C151.917 39.076 151.953 38.788 151.953 38.518C151.953 35.926 150.117 33.766 147.435 33.766C144.609 33.766 142.683 35.836 142.683 38.5C142.683 41.2 144.609 43.234 147.579 43.234C149.343 43.234 150.693 42.496 151.521 41.272L149.919 40.336C149.487 40.966 148.677 41.452 147.597 41.452C146.157 41.452 145.023 40.732 144.717 39.328ZM144.699 37.744C144.969 36.394 145.959 35.53 147.417 35.53C148.587 35.53 149.721 36.196 149.991 37.744H144.699Z" fill="white"/>
<path d="M48.4013 31.854C48.387 29.3949 49.4921 27.5416 51.7239 26.1751C50.4757 24.3723 48.5873 23.3807 46.098 23.1896C43.7411 23.0021 41.1624 24.5742 40.2182 24.5742C39.2203 24.5742 36.9385 23.2545 35.1431 23.2545C31.4378 23.3122 27.5 26.2328 27.5 32.1749C27.5 33.9308 27.8183 35.7444 28.4549 37.6121C29.3062 40.0712 32.3748 46.0962 35.5758 45.9988C37.2496 45.9592 38.4335 44.8018 40.6116 44.8018C42.7253 44.8018 43.8197 45.9988 45.6867 45.9988C48.9163 45.952 51.6917 40.475 52.5 38.0088C48.1688 35.9499 48.4013 31.9801 48.4013 31.854ZM44.6423 20.8568C46.4557 18.6862 46.2911 16.7103 46.2375 16C44.6352 16.0937 42.7825 17.0997 41.7275 18.3364C40.5651 19.6633 39.882 21.3039 40.0286 23.1536C41.7597 23.287 43.3405 22.3892 44.6423 20.8568Z" fill="white"/>
</svg>
