<svg width="17" height="17" viewBox="0 0 17 17" fill="none" xmlns="http://www.w3.org/2000/svg">
<path d="M15.0078 1.0625H1.99219C0.893695 1.0625 0 1.91075 0 2.95339V13.4163C0 14.8065 1.19159 15.9375 2.65625 15.9375H14.3438C15.8084 15.9375 17 14.8065 17 13.4163C17 13.0682 16.7027 12.786 16.3359 12.786C15.9692 12.786 15.6719 13.0682 15.6719 13.4163C15.6719 14.1114 15.0761 14.6769 14.3438 14.6769H2.65625C1.92392 14.6769 1.32812 14.1114 1.32812 13.4163V4.87579H15.6719V10.2648C15.6719 10.6129 15.9692 10.8951 16.3359 10.8951C16.7027 10.8951 17 10.6129 17 10.2648V2.95339C17 1.91075 16.1063 1.0625 15.0078 1.0625ZM12.3184 2.32309C12.6845 2.32309 12.9824 2.60584 12.9824 2.95339C12.9824 3.30094 12.6845 3.58369 12.3184 3.58369C11.9522 3.58369 11.6543 3.30094 11.6543 2.95339C11.6543 2.60584 11.9522 2.32309 12.3184 2.32309ZM15.6387 2.95339C15.6387 3.30094 15.3408 3.58369 14.9746 3.58369C14.6084 3.58369 14.3105 3.30094 14.3105 2.95339C14.3105 2.60584 14.6084 2.32309 14.9746 2.32309C15.3408 2.32309 15.6387 2.60584 15.6387 2.95339ZM1.32812 2.95339C1.32812 2.60584 1.62602 2.32309 1.99219 2.32309H10.4404C10.3667 2.52038 10.3262 2.73244 10.3262 2.95339C10.3262 3.18616 10.371 3.40909 10.4524 3.6152H1.32812V2.95339ZM7.80273 12.3133C7.80273 12.6614 7.50543 12.9436 7.13867 12.9436H3.28711C2.92035 12.9436 2.62305 12.6614 2.62305 12.3133C2.62305 11.9652 2.92035 11.683 3.28711 11.683H7.13867C7.50543 11.683 7.80273 11.9652 7.80273 12.3133ZM7.80273 7.27092C7.80273 7.61903 7.50543 7.90122 7.13867 7.90122H3.28711C2.92035 7.90122 2.62305 7.61903 2.62305 7.27092C2.62305 6.92281 2.92035 6.64062 3.28711 6.64062H7.13867C7.50543 6.64062 7.80273 6.92281 7.80273 7.27092ZM7.80273 9.79211C7.80273 10.1402 7.50543 10.4224 7.13867 10.4224H3.28711C2.92035 10.4224 2.62305 10.1402 2.62305 9.79211C2.62305 9.444 2.92035 9.16181 3.28711 9.16181H7.13867C7.50543 9.16181 7.80273 9.444 7.80273 9.79211ZM14.377 7.27092C14.377 7.61903 14.0797 7.90122 13.7129 7.90122H9.86133C9.49457 7.90122 9.19727 7.61903 9.19727 7.27092C9.19727 6.92281 9.49457 6.64062 9.86133 6.64062H13.7129C14.0797 6.64062 14.377 6.92281 14.377 7.27092ZM13.7129 10.4224H9.86133C9.49457 10.4224 9.19727 10.1402 9.19727 9.79211C9.19727 9.444 9.49457 9.16181 9.86133 9.16181H13.7129C14.0797 9.16181 14.377 9.444 14.377 9.79211C14.377 10.1402 14.0797 10.4224 13.7129 10.4224ZM12.3848 11.683C12.7515 11.683 13.0488 11.9652 13.0488 12.3133C13.0488 12.6614 12.7515 12.9436 12.3848 12.9436H9.86133C9.49457 12.9436 9.19727 12.6614 9.19727 12.3133C9.19727 11.9652 9.49457 11.683 9.86133 11.683H12.3848Z" fill="#F2994A"/>
</svg>
