<svg width="138" height="34" viewBox="0 0 138 34" fill="none" xmlns="http://www.w3.org/2000/svg">
<g clip-path="url(#clip0)">
<path d="M116.662 3.46986V31.089L116.753 31.3685L116.981 31.4384H129.483L129.734 31.3452L129.779 31.089V26.2219L129.711 25.989L129.438 25.9192H123.471L123.289 25.8493L123.221 25.6164V21.4247L123.244 21.1685L123.471 21.1219H129.096L129.324 21.0521L129.392 20.8192V16.1849L129.347 15.8589L129.05 15.8123H123.471L123.266 15.7658L123.221 15.5562V8.98904L123.266 8.80274L123.403 8.75616H129.483L129.734 8.70959L129.779 8.40685V3.46986L129.734 3.14384L129.438 3.09726H117.118L116.708 3.14384L116.662 3.46986Z" fill="#B0B4C6"/>
<path d="M24.731 24.6149L9.49636 15.1368L9.61022 8.45323L39.4419 27.0135C39.4419 27.0135 42.2429 28.5272 45.1577 28.2943C48.0726 28.0615 50.4865 27.1532 52.3082 25.4532C53.2419 24.5916 55.8607 22.193 55.929 17.5587C55.9746 14.0423 54.9954 11.6902 53.8795 10.3162C52.7637 8.94228 50.0538 5.682 44.2469 5.79844C39.3736 5.89159 36.6181 9.40803 36.6181 9.40803L52.1488 18.956L51.9894 25.4765L31.1983 12.5752C31.1983 12.5752 31.7221 7.35871 31.6766 6.42721C34.8191 3.21351 36.8231 1.74638 39.1914 1.07104C41.9241 0.279263 46.3419 -0.163208 49.8716 0.908024C55.3825 2.56145 59.0944 7.17241 60.2785 10.3628C61.531 13.7162 62.6241 20.5861 59.8686 24.9642C56.7488 29.8779 53.0142 32.882 46.934 33.8135C39.7152 34.9313 34.8419 30.9025 29.7865 27.8053C27.1676 30.7162 22.9775 33.9532 17.1251 33.9299C10.134 33.9067 5.98943 30.4135 3.64388 27.5491C1.54883 24.9642 -0.477899 20.1669 0.0914084 14.9272C0.683488 9.50118 3.23398 6.68337 6.14883 4.14501C9.06369 1.62994 12.434 -0.209782 18.036 0.023098C23.6379 0.255974 32.2459 6.91625 32.2459 6.91625L31.9043 13.1108C31.9043 13.1108 21.6568 5.44912 16.4419 5.70529C11.3181 5.96145 7.69735 9.73406 6.44487 12.7615C5.26072 15.6026 5.44289 19.2121 6.78646 21.9601C9.58745 27.6889 15.0983 28.5039 17.2845 28.3176C20.0627 28.0615 23.6379 26.6875 24.731 24.6149Z" fill="#B0B4C6"/>
<path d="M67.0872 3.42328V31.0425L67.1782 31.3219L67.406 31.3918H79.8852L80.1357 31.2986L80.1812 31.0425V26.1753L80.1129 25.9425L79.8396 25.8726H73.8733L73.6911 25.8027L73.6228 25.5699V21.3548L73.6456 21.0986L73.8733 21.0521H79.498L79.7258 20.9822L79.7941 20.7493V16.1151L79.7485 15.789L79.4525 15.7425H73.8733L73.6683 15.6959L73.6228 15.4863V8.94246L73.6683 8.75616L73.805 8.70959H79.8852L80.1357 8.66301L80.1812 8.36027V3.42328L80.1357 3.09726L79.8396 3.05068H67.5426L67.1327 3.09726L67.0872 3.42328ZM82.0485 3.42328V31.089L82.1624 31.3219L82.504 31.3918H87.9238C89.4951 30.3438 90.1555 27.4795 91.1119 27.4329V31.089L91.2258 31.3452L91.5218 31.3918H97.1466L97.4426 31.3452L97.4881 31.0658V3.46986L97.4426 3.09726L97.1466 3.05068H91.5218L91.1802 3.09726L91.1119 3.42328V11.4575C90.8159 15.2767 89.9278 17.9548 88.5842 20.0507V3.42328L88.5386 3.09726L88.2654 3.02739H82.5495L82.1624 3.07397L82.0485 3.42328ZM99.8109 31.3918L99.4693 31.3219L99.3555 31.089V3.42328L99.401 3.09726L99.7426 3.05068H105.754L106.051 3.09726L106.096 3.42328V14.2986C106.255 14.9041 107.007 15.4863 107.303 15.463C107.69 15.4164 108.305 14.0425 108.533 11.9466C108.692 10.363 108.874 3.44657 108.874 3.44657L108.965 3.09726L109.33 3.05068H114.909L115.205 3.09726L115.251 3.42328L115 8.70959C115 8.70959 114.636 12.6918 114.112 14.811C113.611 16.9068 113.315 17.8616 113.064 18.5137C112.814 19.1658 112.313 20.1438 112.313 20.1438C112.313 20.1438 112.358 20.5397 112.472 20.7959C113.178 21.7041 113.429 22.5658 113.679 23.1712C113.93 23.7767 114.271 25.011 114.431 25.9192C114.613 26.8274 114.977 31.1123 114.977 31.1123L114.886 31.3685L114.636 31.4151H109.011L108.76 31.3452L108.692 31.089V29.4123C108.692 28.9 108.533 27.9918 108.1 26.3616C107.781 25.011 107.28 23.7301 106.597 22.5425C106.46 22.2397 106.21 22.4726 106.21 22.4726L106.073 31.1123L106.028 31.3452L105.732 31.3918H99.8109Z" fill="#B0B4C6"/>
<path d="M131.76 31.3918H137.681L137.954 31.3452L138 31.089V3.42329L137.954 3.09727L137.681 3.0274H131.874L131.51 3.07398L131.464 3.40001V31.089L131.51 31.3452L131.76 31.3918Z" fill="#B0B4C6"/>
</g>
<defs>
<clipPath id="clip0">
<rect width="138" height="34" fill="white" transform="matrix(1 0 0 -1 0 34)"/>
</clipPath>
</defs>
</svg>
