<svg width="123" height="35" viewBox="0 0 123 35" fill="none" xmlns="http://www.w3.org/2000/svg">
<path d="M44.8987 13.2365C44.5557 13.1229 43.8611 13.0093 43.1753 13.0093C41.1003 13.0093 38.9197 14.6086 38.9197 16.671V26.3887H34.1981V9.12047H38.6823V10.8333C39.7198 9.57489 41.6718 8.77091 43.7468 8.77091C44.4414 8.77091 44.7843 8.88451 45.3559 8.88451L44.8987 13.2365ZM50.1918 -0.0292664C51.8008 -0.0292664 53.1812 1.22915 53.1812 2.94199C53.1812 4.65484 51.8008 5.91325 50.0775 5.91325C48.3541 5.91325 46.9737 4.65484 46.9737 2.94199C47.088 1.22915 48.4684 -0.0292664 50.1918 -0.0292664ZM52.4954 26.3887H47.7738V9.12047H52.4954V26.3887ZM66.2998 8.77964C64.3478 8.77964 62.6157 9.47003 61.2352 10.4925V9.12047H56.6367V34.9617H61.3495V25.1303C62.73 26.1615 64.2247 26.7295 66.0712 26.7295C68.6034 26.7295 71.1357 25.5847 72.6304 23.7583C74.0108 22.1591 74.8198 20.0966 74.8198 17.6934C74.811 12.6685 71.0214 8.77964 66.2998 8.77964ZM65.7282 22.4999C62.8531 22.4999 60.8923 20.5598 60.8923 17.6934C60.8923 14.8358 62.8443 12.887 65.7282 12.887C68.2605 12.887 70.2125 15.063 70.2125 17.6934C70.2125 20.4462 68.1374 22.4999 65.7282 22.4999ZM98.5157 1.00193H103.237V26.3887H98.5157V1.00193ZM122.22 23.6447C120.497 25.5847 117.736 26.7295 115.09 26.7295C109.911 26.7295 105.998 23.1815 105.998 17.6934C105.998 12.887 109.331 8.6573 114.509 8.6573C119.345 8.6573 122.792 12.6598 122.792 17.4662C122.792 17.9206 122.792 18.3838 122.678 18.8382H110.482C110.711 21.2415 112.672 22.9543 115.204 22.9543C117.156 22.9543 118.774 21.8095 119.574 21.0142L122.22 23.6447ZM117.842 15.5262C117.727 14.0405 116.347 12.4413 114.386 12.4413C112.434 12.4413 110.817 13.9269 110.702 15.5262H117.842ZM87.2437 8.77964C85.2917 8.77964 83.5596 9.47003 82.1791 10.4925V9.12047H77.6949V34.9617H82.4165V25.1303C83.797 26.1615 85.2917 26.7295 87.1381 26.7295C89.6704 26.7295 92.2027 25.5847 93.6974 23.7583C95.0778 22.1591 95.8867 20.0966 95.8867 17.6934C95.7549 12.6685 91.9565 8.77964 87.2437 8.77964ZM86.6633 22.4999C83.7882 22.4999 81.8274 20.5598 81.8274 17.6934C81.8274 14.8358 83.7794 12.887 86.6633 12.887C89.1956 12.887 91.1476 15.063 91.1476 17.6934C91.1564 20.4462 89.0813 22.4999 86.6633 22.4999ZM18.4418 2.83712C16.4899 3.98193 15.338 6.0356 15.338 8.21161C15.338 9.35642 15.7953 10.5012 16.3756 11.5237C16.8328 12.4413 17.0702 14.0405 15.4523 14.8358C14.3005 15.5262 12.8058 15.063 12.12 13.9182C11.4253 13.0006 10.6252 12.0917 9.5877 11.4013C7.63575 10.2565 5.3321 10.2565 3.37136 11.4013C1.41941 12.5462 0.267578 14.5998 0.267578 16.7758C0.267578 18.9518 1.41941 21.0055 3.37136 22.1503C5.32331 23.2951 7.62696 23.2951 9.5877 22.1503C10.6252 21.5823 11.4253 20.6647 12.0057 19.6335C12.4629 18.8295 13.729 17.807 15.338 18.7159C16.4899 19.4063 16.8328 20.8919 16.2613 22.028C15.6897 23.0592 15.338 24.204 15.338 25.34C15.338 27.5161 16.4899 29.5697 18.4418 30.7145C20.3938 31.8593 22.6974 31.8593 24.6582 30.7145C26.6101 29.5697 27.7619 27.5161 27.7619 25.34C27.7619 23.164 26.6101 21.1104 24.6582 19.9656C23.6206 19.3975 22.4688 19.1616 21.2027 19.1616C20.1652 19.1616 18.7847 18.4712 18.7847 16.7584C18.7847 15.3863 19.8223 14.3551 21.2027 14.3551C22.3545 14.3551 23.6206 14.1279 24.6582 13.5511C26.6101 12.4063 27.7619 10.3527 27.7619 8.17666C27.7619 6.00065 26.6101 3.94698 24.6582 2.80217C23.7349 2.23414 22.5831 1.99818 21.5544 1.99818C20.5081 2.03314 19.3562 2.26035 18.4418 2.83712Z" fill="#B0B4C6"/>
</svg>
