<svg width="188" height="30" viewBox="0 0 188 30" fill="none" xmlns="http://www.w3.org/2000/svg">
<g clip-path="url(#clip0)">
<path d="M16.0162 0.562286H33.6174C33.6067 0.790541 33.5263 1.01037 33.3865 1.19322C32.7907 2.19512 32.2544 3.23791 31.669 4.23981C30.8408 5.6784 30.0662 7.14327 29.2246 8.57601C28.6913 9.60712 28.0895 10.6061 27.5204 11.6197C24.1003 11.6197 20.6802 11.6197 17.26 11.6197C17.0813 11.6197 16.904 11.6284 16.7253 11.6387C16.5763 12.0242 16.329 12.3616 16.1294 12.7238C15.8688 13.1386 15.6572 13.5811 15.3995 13.9959C15.1269 14.5538 14.7501 15.0533 14.476 15.6098C13.9099 16.5518 13.3811 17.5084 12.827 18.4606C12.249 19.4343 11.684 20.4216 11.1318 21.4225C10.8981 21.7773 10.6829 22.1433 10.4868 22.5193C9.32939 24.4939 8.20921 26.486 7.0503 28.4592C6.952 28.6713 6.82252 28.8681 6.66598 29.0434C4.68481 29.0302 2.70363 29.0434 0.722458 29.0434C0.478446 29.0479 0.235881 29.0813 0 29.1427C0 28.6052 0.366443 28.1744 0.613717 27.7231C0.911638 27.117 1.30936 26.5547 1.60877 25.9471C3.9832 21.7818 6.33231 17.6019 8.69929 13.4336C9.23555 12.5281 9.69584 11.6036 10.2351 10.7156C10.9084 9.54724 11.5355 8.35256 12.2371 7.19731C12.4605 6.71389 12.7614 6.27136 13.0072 5.79962C13.8801 4.27632 14.7367 2.74426 15.6066 1.22097C15.7098 0.983073 15.8478 0.761184 16.0162 0.562286Z" fill="#B0B4C6"/>
<path d="M36.412 6.69491C37.5843 4.68673 38.7164 2.65664 39.9051 0.657227H46.2627C46.3553 0.66182 46.4472 0.676017 46.5368 0.699581C46.3253 1.01359 46.148 1.34658 45.9618 1.67373C44.4285 4.37175 42.8997 7.07123 41.3753 9.77217C40.7348 10.8719 40.1389 11.9965 39.4895 13.0904L39.4254 13.1123L39.4135 13.2496C36.4244 18.5074 33.4452 23.7691 30.4759 29.0346C24.6396 29.0405 18.8028 29.0405 12.9656 29.0346C13.2978 28.354 13.691 27.7041 14.0604 27.0425C15.7228 24.0456 17.4284 21.0749 19.067 18.078C22.653 18.0722 26.2389 18.0722 29.8249 18.078C32.04 14.2953 34.2073 10.4834 36.406 6.69491H36.412Z" fill="#B0B4C6"/>
<path d="M102.025 0.579834V29.3808H107.115V9.1281L116.399 22.4668L125.61 8.81118V29.3808H130.849V0.579834H125.213L116.437 13.8747L107.562 0.579834H102.025Z" fill="#B0B4C6"/>
<path d="M78.2163 8.00787H81.5426V29.6232H78.2163V8.00787Z" fill="#B0B4C6"/>
<path d="M77.9302 0H81.8285V3.62641H77.9302V0Z" fill="#B0B4C6"/>
<path d="M87.8986 1.81393H91.3738V8.00789H98.226V11.0267H91.3738V23.8674C91.3678 24.3622 91.4849 24.8509 91.7149 25.2914C92.3033 26.3867 93.9017 27.6866 98.226 26.1677V28.966C98.226 28.966 94.2785 31.1567 90.7035 29.1617C90.7035 29.1617 88.9279 28.4227 88.1816 25.9281C87.9877 25.2599 87.8924 24.5679 87.8986 23.8732V10.9785L84.9685 11.0267V8.00789H87.9224L87.8986 1.81393Z" fill="#B0B4C6"/>
<path d="M136.211 0.579834V29.575H158.306V24.9014H141.599V17.209H156.321V12.6085H141.574V5.28262H158.133V0.579834H136.211Z" fill="#B0B4C6"/>
<path d="M160.38 0.579834H166.673L173.898 10.7595L181.066 0.579834H187.36L177.081 14.7203L188 29.5502H181.371L173.923 18.7192L166.115 29.575H159.821L170.584 14.8489L160.38 0.579834Z" fill="#B0B4C6"/>
<path d="M68.0362 14.5319C68.0362 14.5319 72.9027 12.7311 72.6048 7.54638C72.6048 7.54638 72.5646 2.56025 66.8386 1.02089C65.8865 0.770783 64.9046 0.646998 63.9189 0.652847H50.1863L50.2235 29.4538H65.0078C65.0078 29.4538 73.6595 29.2712 74.2687 21.7132C74.2687 21.7132 74.8884 16.4306 68.0362 14.5319ZM53.736 3.62641H62.5008C69.3769 3.60304 69.1787 8.34965 69.1787 8.34965C69.2815 13.7652 62.9716 13.6556 62.9716 13.6556H53.736V3.62641ZM64.4612 26.4101H53.736V16.3824H63.9904C70.8665 16.3575 70.6683 21.1041 70.6683 21.1041C70.7711 26.5196 64.4612 26.4101 64.4612 26.4101Z" fill="#B0B4C6"/>
</g>
<defs>
<clipPath id="clip0">
<rect width="188" height="30" fill="white"/>
</clipPath>
</defs>
</svg>
