<svg width="156" height="34" viewBox="0 0 156 34" fill="none" xmlns="http://www.w3.org/2000/svg">
<path d="M10.1897 33.973C5.09784 33.973 0.11377 30.3032 0.11377 22.0191C0.11377 13.7079 5.09784 10.0921 10.1897 10.0921C12.6952 10.0921 14.6619 10.7397 16.0628 11.6572L14.5272 15.0302C13.5842 14.3556 12.1833 13.9238 10.7824 13.9238C7.71112 13.9238 4.90926 16.3524 4.90926 21.9651C4.90926 27.5778 7.79194 30.0603 10.7824 30.0603C12.1833 30.0603 13.5842 29.6286 14.5272 28.954L16.0628 32.408C14.608 33.3794 12.6952 33.973 10.1897 33.973Z" fill="#B0B4C6"/>
<path d="M27.7283 33.973C21.2355 33.973 17.6523 28.8191 17.6523 22.0191C17.6523 15.2191 21.2085 10.0921 27.7283 10.0921C34.221 10.0921 37.8042 15.1921 37.8042 22.0191C37.8042 28.8191 34.221 33.973 27.7283 33.973ZM27.7283 13.7889C24.1182 13.7889 22.3401 17.027 22.3401 21.9651C22.3401 26.9032 24.1182 30.1683 27.7283 30.1683C31.3383 30.1683 33.1165 26.9032 33.1165 21.9651C33.1165 17.027 31.3383 13.7889 27.7283 13.7889Z" fill="#B0B4C6"/>
<path d="M44.0545 6.39524C42.5188 6.39524 41.2795 5.20794 41.2795 3.7508C41.2795 2.29365 42.5188 1.10635 44.0545 1.10635C45.5901 1.10635 46.8294 2.29365 46.8294 3.7508C46.8294 5.20794 45.5632 6.39524 44.0545 6.39524ZM41.7106 10.5508H46.3983V33.4873H41.7106V10.5508Z" fill="#B0B4C6"/>
<path d="M64.772 33.4873V18.1873C64.772 15.5159 63.1556 13.8429 59.9765 13.8429C58.2793 13.8429 56.7167 14.1397 55.7737 14.5175V33.5143H51.1399V11.7111C53.4299 10.7667 56.3664 10.0921 59.9496 10.0921C66.3616 10.0921 69.4598 12.8984 69.4598 17.7556V33.5143H64.772" fill="#B0B4C6"/>
<path d="M81.7718 33.9734C78.8083 33.9734 75.8717 33.2448 74.0667 32.3544V0.0813293H78.7005V11.1448C79.8051 10.6321 81.5832 10.2004 83.1727 10.2004C89.0727 10.2004 93.0869 14.4639 93.0869 21.4797C93.0869 30.1416 88.6147 33.9734 81.7718 33.9734ZM82.3645 13.8432C81.0982 13.8432 79.5895 14.1401 78.7005 14.5988V29.6559C79.374 29.9528 80.6941 30.2496 82.0142 30.2496C85.7051 30.2496 88.4262 27.6861 88.4262 21.8305C88.4531 16.8115 86.0823 13.8432 82.3645 13.8432Z" fill="#B0B4C6"/>
<path d="M105.695 33.973C99.1217 33.973 95.781 31.3016 95.781 26.7683C95.781 20.373 102.57 19.2397 109.494 18.8619V17.4048C109.494 14.5175 107.581 13.4921 104.645 13.4921C102.489 13.4921 99.8491 14.1667 98.3135 14.8952L97.1281 11.7111C98.96 10.9016 102.058 10.0921 105.13 10.0921C110.599 10.0921 113.939 12.2238 113.939 17.8905V32.354C112.296 33.2445 108.928 33.973 105.695 33.973ZM109.521 21.9651C104.833 22.208 100.172 22.6127 100.172 26.6873C100.172 29.1159 102.031 30.6 105.561 30.6C107.042 30.6 108.793 30.3572 109.521 30.0064V21.9651Z" fill="#B0B4C6"/>
<path d="M124.393 33.973C121.725 33.973 118.924 33.2445 117.253 32.354L118.816 28.7921C120.001 29.5207 122.507 30.2762 124.258 30.2762C126.763 30.2762 128.434 29.0349 128.434 27.1191C128.434 25.0413 126.682 24.2318 124.366 23.3683C121.294 22.2079 117.873 20.8048 117.873 16.5143C117.873 12.7365 120.809 10.0921 125.901 10.0921C128.676 10.0921 130.966 10.7667 132.583 11.7111L131.128 14.9492C130.104 14.3016 128.056 13.6 126.413 13.6C123.988 13.6 122.641 14.8683 122.641 16.5413C122.641 18.6191 124.339 19.3476 126.602 20.2111C129.781 21.3984 133.31 22.7206 133.31 27.2C133.283 31.2746 130.131 33.973 124.393 33.973Z" fill="#B0B4C6"/>
<path d="M155.886 21.9111L140.665 24.0429C141.123 28.1714 143.817 30.2492 147.669 30.2492C149.959 30.2492 152.438 29.6826 154 28.8461L155.347 32.327C153.569 33.2715 150.498 33.9461 147.346 33.9461C140.126 33.9461 136.085 29.3048 136.085 21.9921C136.085 14.9762 139.991 10.0651 146.403 10.0651C152.357 10.0651 155.886 13.9778 155.886 20.1572C155.94 20.7238 155.94 21.3175 155.886 21.9111ZM146.376 13.4921C142.82 13.4921 140.476 16.2175 140.395 20.9937L151.495 19.4556C151.441 15.4619 149.42 13.4921 146.376 13.4921Z" fill="#B0B4C6"/>
</svg>
