<svg width="272" height="180" viewBox="0 0 272 180" fill="none" xmlns="http://www.w3.org/2000/svg">
<circle cx="2.5" cy="2.5" r="2.5" fill="#FE9A8C"/>
<circle cx="17.5" cy="2.5" r="2.5" fill="#FE9A8C"/>
<circle cx="32.5" cy="2.5" r="2.5" fill="#FE9A8C"/>
<circle cx="47.5" cy="2.5" r="2.5" fill="#FE9A8C"/>
<circle cx="62.5" cy="2.5" r="2.5" fill="#FE9A8C"/>
<circle cx="77.5" cy="2.5" r="2.5" fill="#FE9A8C"/>
<circle cx="92.5" cy="2.5" r="2.5" fill="#FE9A8C"/>
<circle cx="107.5" cy="2.5" r="2.5" fill="#FE9A8C"/>
<circle cx="122.5" cy="2.5" r="2.5" fill="#FE9A8C"/>
<circle cx="137.5" cy="2.5" r="2.5" fill="#FE9A8C"/>
<circle cx="152.5" cy="2.5" r="2.5" fill="#FE9A8C"/>
<circle cx="167.5" cy="2.5" r="2.5" fill="#FE9A8C"/>
<circle cx="182.5" cy="2.5" r="2.5" fill="#FE9A8C"/>
<circle cx="197.5" cy="2.5" r="2.5" fill="#FE9A8C"/>
<circle cx="212.5" cy="2.5" r="2.5" fill="#FE9A8C"/>
<circle cx="227.5" cy="2.5" r="2.5" fill="#FE9A8C"/>
<circle cx="242.5" cy="2.5" r="2.5" fill="#FE9A8C"/>
<circle cx="257.5" cy="2.5" r="2.5" fill="#FE9A8C"/>
<circle cx="272.5" cy="2.5" r="2.5" fill="#FE9A8C"/>
<circle cx="2.5" cy="27.5" r="2.5" fill="#FE9A8C"/>
<circle cx="17.5" cy="27.5" r="2.5" fill="#FE9A8C"/>
<circle cx="32.5" cy="27.5" r="2.5" fill="#FE9A8C"/>
<circle cx="47.5" cy="27.5" r="2.5" fill="#FE9A8C"/>
<circle cx="62.5" cy="27.5" r="2.5" fill="#FE9A8C"/>
<circle cx="77.5" cy="27.5" r="2.5" fill="#FE9A8C"/>
<circle cx="92.5" cy="27.5" r="2.5" fill="#FE9A8C"/>
<circle cx="107.5" cy="27.5" r="2.5" fill="#FE9A8C"/>
<circle cx="122.5" cy="27.5" r="2.5" fill="#FE9A8C"/>
<circle cx="137.5" cy="27.5" r="2.5" fill="#FE9A8C"/>
<circle cx="152.5" cy="27.5" r="2.5" fill="#FE9A8C"/>
<circle cx="167.5" cy="27.5" r="2.5" fill="#FE9A8C"/>
<circle cx="182.5" cy="27.5" r="2.5" fill="#FE9A8C"/>
<circle cx="197.5" cy="27.5" r="2.5" fill="#FE9A8C"/>
<circle cx="212.5" cy="27.5" r="2.5" fill="#FE9A8C"/>
<circle cx="227.5" cy="27.5" r="2.5" fill="#FE9A8C"/>
<circle cx="242.5" cy="27.5" r="2.5" fill="#FE9A8C"/>
<circle cx="257.5" cy="27.5" r="2.5" fill="#FE9A8C"/>
<circle cx="272.5" cy="27.5" r="2.5" fill="#FE9A8C"/>
<circle cx="2.5" cy="52.5" r="2.5" fill="#FE9A8C"/>
<circle cx="17.5" cy="52.5" r="2.5" fill="#FE9A8C"/>
<circle cx="32.5" cy="52.5" r="2.5" fill="#FE9A8C"/>
<circle cx="47.5" cy="52.5" r="2.5" fill="#FE9A8C"/>
<circle cx="62.5" cy="52.5" r="2.5" fill="#FE9A8C"/>
<circle cx="77.5" cy="52.5" r="2.5" fill="#FE9A8C"/>
<circle cx="92.5" cy="52.5" r="2.5" fill="#FE9A8C"/>
<circle cx="107.5" cy="52.5" r="2.5" fill="#FE9A8C"/>
<circle cx="122.5" cy="52.5" r="2.5" fill="#FE9A8C"/>
<circle cx="137.5" cy="52.5" r="2.5" fill="#FE9A8C"/>
<circle cx="152.5" cy="52.5" r="2.5" fill="#FE9A8C"/>
<circle cx="167.5" cy="52.5" r="2.5" fill="#FE9A8C"/>
<circle cx="182.5" cy="52.5" r="2.5" fill="#FE9A8C"/>
<circle cx="197.5" cy="52.5" r="2.5" fill="#FE9A8C"/>
<circle cx="212.5" cy="52.5" r="2.5" fill="#FE9A8C"/>
<circle cx="227.5" cy="52.5" r="2.5" fill="#FE9A8C"/>
<circle cx="242.5" cy="52.5" r="2.5" fill="#FE9A8C"/>
<circle cx="257.5" cy="52.5" r="2.5" fill="#FE9A8C"/>
<circle cx="272.5" cy="52.5" r="2.5" fill="#FE9A8C"/>
<circle cx="2.5" cy="77.5" r="2.5" fill="#FE9A8C"/>
<circle cx="17.5" cy="77.5" r="2.5" fill="#FE9A8C"/>
<circle cx="32.5" cy="77.5" r="2.5" fill="#FE9A8C"/>
<circle cx="47.5" cy="77.5" r="2.5" fill="#FE9A8C"/>
<circle cx="62.5" cy="77.5" r="2.5" fill="#FE9A8C"/>
<circle cx="77.5" cy="77.5" r="2.5" fill="#FE9A8C"/>
<circle cx="92.5" cy="77.5" r="2.5" fill="#FE9A8C"/>
<circle cx="107.5" cy="77.5" r="2.5" fill="#FE9A8C"/>
<circle cx="122.5" cy="77.5" r="2.5" fill="#FE9A8C"/>
<circle cx="137.5" cy="77.5" r="2.5" fill="#FE9A8C"/>
<circle cx="152.5" cy="77.5" r="2.5" fill="#FE9A8C"/>
<circle cx="167.5" cy="77.5" r="2.5" fill="#FE9A8C"/>
<circle cx="182.5" cy="77.5" r="2.5" fill="#FE9A8C"/>
<circle cx="197.5" cy="77.5" r="2.5" fill="#FE9A8C"/>
<circle cx="212.5" cy="77.5" r="2.5" fill="#FE9A8C"/>
<circle cx="227.5" cy="77.5" r="2.5" fill="#FE9A8C"/>
<circle cx="242.5" cy="77.5" r="2.5" fill="#FE9A8C"/>
<circle cx="257.5" cy="77.5" r="2.5" fill="#FE9A8C"/>
<circle cx="272.5" cy="77.5" r="2.5" fill="#FE9A8C"/>
<circle cx="2.5" cy="102.5" r="2.5" fill="#FE9A8C"/>
<circle cx="17.5" cy="102.5" r="2.5" fill="#FE9A8C"/>
<circle cx="32.5" cy="102.5" r="2.5" fill="#FE9A8C"/>
<circle cx="47.5" cy="102.5" r="2.5" fill="#FE9A8C"/>
<circle cx="62.5" cy="102.5" r="2.5" fill="#FE9A8C"/>
<circle cx="77.5" cy="102.5" r="2.5" fill="#FE9A8C"/>
<circle cx="92.5" cy="102.5" r="2.5" fill="#FE9A8C"/>
<circle cx="107.5" cy="102.5" r="2.5" fill="#FE9A8C"/>
<circle cx="122.5" cy="102.5" r="2.5" fill="#FE9A8C"/>
<circle cx="137.5" cy="102.5" r="2.5" fill="#FE9A8C"/>
<circle cx="152.5" cy="102.5" r="2.5" fill="#FE9A8C"/>
<circle cx="167.5" cy="102.5" r="2.5" fill="#FE9A8C"/>
<circle cx="182.5" cy="102.5" r="2.5" fill="#FE9A8C"/>
<circle cx="197.5" cy="102.5" r="2.5" fill="#FE9A8C"/>
<circle cx="212.5" cy="102.5" r="2.5" fill="#FE9A8C"/>
<circle cx="227.5" cy="102.5" r="2.5" fill="#FE9A8C"/>
<circle cx="242.5" cy="102.5" r="2.5" fill="#FE9A8C"/>
<circle cx="257.5" cy="102.5" r="2.5" fill="#FE9A8C"/>
<circle cx="272.5" cy="102.5" r="2.5" fill="#FE9A8C"/>
<circle cx="2.5" cy="127.5" r="2.5" fill="#FE9A8C"/>
<circle cx="17.5" cy="127.5" r="2.5" fill="#FE9A8C"/>
<circle cx="32.5" cy="127.5" r="2.5" fill="#FE9A8C"/>
<circle cx="47.5" cy="127.5" r="2.5" fill="#FE9A8C"/>
<circle cx="62.5" cy="127.5" r="2.5" fill="#FE9A8C"/>
<circle cx="77.5" cy="127.5" r="2.5" fill="#FE9A8C"/>
<circle cx="92.5" cy="127.5" r="2.5" fill="#FE9A8C"/>
<circle cx="107.5" cy="127.5" r="2.5" fill="#FE9A8C"/>
<circle cx="122.5" cy="127.5" r="2.5" fill="#FE9A8C"/>
<circle cx="137.5" cy="127.5" r="2.5" fill="#FE9A8C"/>
<circle cx="152.5" cy="127.5" r="2.5" fill="#FE9A8C"/>
<circle cx="167.5" cy="127.5" r="2.5" fill="#FE9A8C"/>
<circle cx="182.5" cy="127.5" r="2.5" fill="#FE9A8C"/>
<circle cx="197.5" cy="127.5" r="2.5" fill="#FE9A8C"/>
<circle cx="212.5" cy="127.5" r="2.5" fill="#FE9A8C"/>
<circle cx="227.5" cy="127.5" r="2.5" fill="#FE9A8C"/>
<circle cx="242.5" cy="127.5" r="2.5" fill="#FE9A8C"/>
<circle cx="257.5" cy="127.5" r="2.5" fill="#FE9A8C"/>
<circle cx="272.5" cy="127.5" r="2.5" fill="#FE9A8C"/>
<circle cx="2.5" cy="152.5" r="2.5" fill="#FE9A8C"/>
<circle cx="17.5" cy="152.5" r="2.5" fill="#FE9A8C"/>
<circle cx="32.5" cy="152.5" r="2.5" fill="#FE9A8C"/>
<circle cx="47.5" cy="152.5" r="2.5" fill="#FE9A8C"/>
<circle cx="62.5" cy="152.5" r="2.5" fill="#FE9A8C"/>
<circle cx="77.5" cy="152.5" r="2.5" fill="#FE9A8C"/>
<circle cx="92.5" cy="152.5" r="2.5" fill="#FE9A8C"/>
<circle cx="107.5" cy="152.5" r="2.5" fill="#FE9A8C"/>
<circle cx="122.5" cy="152.5" r="2.5" fill="#FE9A8C"/>
<circle cx="137.5" cy="152.5" r="2.5" fill="#FE9A8C"/>
<circle cx="152.5" cy="152.5" r="2.5" fill="#FE9A8C"/>
<circle cx="167.5" cy="152.5" r="2.5" fill="#FE9A8C"/>
<circle cx="182.5" cy="152.5" r="2.5" fill="#FE9A8C"/>
<circle cx="197.5" cy="152.5" r="2.5" fill="#FE9A8C"/>
<circle cx="212.5" cy="152.5" r="2.5" fill="#FE9A8C"/>
<circle cx="227.5" cy="152.5" r="2.5" fill="#FE9A8C"/>
<circle cx="242.5" cy="152.5" r="2.5" fill="#FE9A8C"/>
<circle cx="257.5" cy="152.5" r="2.5" fill="#FE9A8C"/>
<circle cx="272.5" cy="152.5" r="2.5" fill="#FE9A8C"/>
<circle cx="2.5" cy="177.5" r="2.5" fill="#FE9A8C"/>
<circle cx="17.5" cy="177.5" r="2.5" fill="#FE9A8C"/>
<circle cx="32.5" cy="177.5" r="2.5" fill="#FE9A8C"/>
<circle cx="47.5" cy="177.5" r="2.5" fill="#FE9A8C"/>
<circle cx="62.5" cy="177.5" r="2.5" fill="#FE9A8C"/>
<circle cx="77.5" cy="177.5" r="2.5" fill="#FE9A8C"/>
<circle cx="92.5" cy="177.5" r="2.5" fill="#FE9A8C"/>
<circle cx="107.5" cy="177.5" r="2.5" fill="#FE9A8C"/>
<circle cx="122.5" cy="177.5" r="2.5" fill="#FE9A8C"/>
<circle cx="137.5" cy="177.5" r="2.5" fill="#FE9A8C"/>
<circle cx="152.5" cy="177.5" r="2.5" fill="#FE9A8C"/>
<circle cx="167.5" cy="177.5" r="2.5" fill="#FE9A8C"/>
<circle cx="182.5" cy="177.5" r="2.5" fill="#FE9A8C"/>
<circle cx="197.5" cy="177.5" r="2.5" fill="#FE9A8C"/>
<circle cx="212.5" cy="177.5" r="2.5" fill="#FE9A8C"/>
<circle cx="227.5" cy="177.5" r="2.5" fill="#FE9A8C"/>
<circle cx="242.5" cy="177.5" r="2.5" fill="#FE9A8C"/>
<circle cx="257.5" cy="177.5" r="2.5" fill="#FE9A8C"/>
<circle cx="272.5" cy="177.5" r="2.5" fill="#FE9A8C"/>
</svg>
