<svg width="64" height="64" viewBox="0 0 64 64" fill="none" xmlns="http://www.w3.org/2000/svg">
<g clip-path="url(#clip0)">
<path d="M39.3334 50.6667C39.0614 50.6667 38.7894 50.6107 38.5308 50.4987C37.8054 50.1787 37.3334 49.4613 37.3334 48.6667V42.6667H34.0001C29.9547 42.6667 26.6667 39.376 26.6667 35.3333V34C26.6667 32.896 27.5627 32 28.6667 32C29.7707 32 30.6667 32.896 30.6667 34V35.3333C30.6667 37.1707 32.1628 38.6667 34.0001 38.6667H39.3334C40.4374 38.6667 41.3334 39.5627 41.3334 40.6667V44.0987L46.6428 39.1973C47.0134 38.856 47.4988 38.6667 48.0001 38.6667H56.6668C58.5041 38.6667 60.0001 37.1707 60.0001 35.3333V20C60.0001 18.8053 59.3761 17.7253 58.3254 17.112C57.3708 16.5573 57.0481 15.3307 57.6054 14.3787C58.1628 13.424 59.3788 13.096 60.3388 13.6587C62.6321 14.9973 64.0001 17.368 64.0001 20V35.3333C64.0001 39.376 60.7121 42.6667 56.6668 42.6667H48.7814L40.6908 50.136C40.3121 50.4853 39.8268 50.6667 39.3334 50.6667Z" fill="#F2994A"/>
<path d="M16.5 46C11.8137 46 8 42.1863 8 37.5C8 32.8137 11.8137 29 16.5 29C21.1863 29 25 32.8137 25 37.5C25 42.1863 21.1863 46 16.5 46ZM16.5 33.25C14.1568 33.25 12.25 35.1568 12.25 37.5C12.25 39.8432 14.1568 41.75 16.5 41.75C18.8432 41.75 20.75 39.8432 20.75 37.5C20.75 35.1568 18.8432 33.25 16.5 33.25Z" fill="#F2994A"/>
<path d="M29.8864 64C28.7196 64 27.7727 63.0592 27.7727 61.9V57.7C27.7727 55.7708 26.1917 54.2 24.25 54.2H8.75C6.80827 54.2 5.22727 55.7708 5.22727 57.7V61.9C5.22727 63.0592 4.28036 64 3.11364 64C1.94691 64 1 63.0592 1 61.9V57.7C1 53.4524 4.47482 50 8.75 50H24.25C28.5252 50 32 53.4524 32 57.7V61.9C32 63.0592 31.0531 64 29.8864 64Z" fill="#F2994A"/>
<path d="M48.6667 26.6667H20.6667C18.0933 26.6667 16 24.5733 16 22V4.66667C16 2.09333 18.0933 0 20.6667 0H48.6667C51.24 0 53.3333 2.09333 53.3333 4.66667V22C53.3333 24.5733 51.24 26.6667 48.6667 26.6667ZM20.6667 4C20.2987 4 20 4.29867 20 4.66667V22C20 22.368 20.2987 22.6667 20.6667 22.6667H48.6667C49.0347 22.6667 49.3333 22.368 49.3333 22V4.66667C49.3333 4.29867 49.0347 4 48.6667 4H20.6667Z" fill="#F2994A"/>
<path d="M34.6668 17.0454C33.6828 17.0454 32.7014 16.8027 31.8054 16.3174L17.0481 8.30936C16.0748 7.78136 15.7174 6.56802 16.2428 5.59736C16.7681 4.62936 17.9814 4.26403 18.9548 4.79469L33.7121 12.8C34.3121 13.1254 35.0241 13.1254 35.6241 12.8L50.3814 4.79203C51.3548 4.26403 52.5681 4.62669 53.0934 5.59469C53.6188 6.56536 53.2588 7.77869 52.2881 8.30669L37.5308 16.3147C36.6321 16.8027 35.6508 17.0454 34.6668 17.0454Z" fill="#F2994A"/>
</g>
<defs>
<clipPath id="clip0">
<rect width="64" height="64" fill="white"/>
</clipPath>
</defs>
</svg>
