<svg width="64" height="64" viewBox="0 0 64 64" fill="none" xmlns="http://www.w3.org/2000/svg">
<path d="M43.375 11.25H50.875C51.9105 11.25 52.75 12.0895 52.75 13.125C52.75 14.1605 51.9105 15 50.875 15H43.375C42.3395 15 41.5 14.1605 41.5 13.125C41.5 12.0895 42.3395 11.25 43.375 11.25Z" fill="#219653"/>
<path d="M43.375 22.5H50.875C51.9105 22.5 52.75 23.3395 52.75 24.375C52.75 25.4105 51.9105 26.25 50.875 26.25H43.375C42.3395 26.25 41.5 25.4105 41.5 24.375C41.5 23.3395 42.3395 22.5 43.375 22.5Z" fill="#219653"/>
<path d="M39.375 34H50.875C51.9105 34 52.75 34.8395 52.75 35.875C52.75 36.9105 51.9105 37.75 50.875 37.75H39.375C38.3395 37.75 37.5 36.9105 37.5 35.875C37.5 34.8395 38.3395 34 39.375 34Z" fill="#219653"/>
<path d="M16.875 45.25H50.875C51.9105 45.25 52.75 46.0895 52.75 47.125C52.75 48.1605 51.9105 49 50.875 49H16.875C15.8395 49 15 48.1605 15 47.125C15 46.0895 15.8395 45.25 16.875 45.25Z" fill="#219653"/>
<path d="M9.375 0H54.625C57.7266 0 60.25 2.52338 60.25 5.625V52.75H62.125C63.1605 52.75 64 53.5895 64 54.625V56.5C64 60.6355 60.6355 64 56.5 64H15C10.8645 64 7.5 60.6355 7.5 56.5V15H1.875C0.8395 15 0 14.1605 0 13.125V9.375C0 4.20563 4.20562 0 9.375 0ZM56.5 60.25C58.5677 60.25 60.25 58.5677 60.25 56.5H22.5C22.5 57.865 22.1333 59.1463 21.4935 60.25H56.5ZM11.25 13.125V56.5C11.25 58.5677 12.9323 60.25 15 60.25C17.0677 60.25 18.75 58.5677 18.75 56.5V54.625C18.75 53.5895 19.5895 52.75 20.625 52.75H56.5V5.625C56.5 4.59113 55.6589 3.75 54.625 3.75H11.25V13.125ZM3.75 11.25H7.5V4.07125C5.31738 4.84513 3.75 6.9305 3.75 9.375V11.25Z" fill="#219653"/>
<path d="M26.25 7.5C32.4532 7.5 37.5 12.5468 37.5 18.75C37.5 22.0744 36.0501 25.0661 33.75 27.1275V39.625C33.75 40.3165 33.3694 40.9519 32.7598 41.2781C32.1501 41.6044 31.4102 41.5686 30.835 41.1851L26.25 38.1285L21.665 41.1851C21.3513 41.3942 20.9886 41.5 20.6249 41.5C20.3215 41.5 20.0175 41.4265 19.7402 41.2781C19.1306 40.9519 18.75 40.3165 18.75 39.625V27.1275C16.4499 25.0661 15 22.0744 15 18.75C15 12.5468 20.0467 7.5 26.25 7.5ZM22.5 36.1215L25.21 34.3149C25.8399 33.8951 26.6603 33.8951 27.2901 34.3149L30 36.1215V29.3565C28.8265 29.7726 27.5644 30 26.25 30C24.9356 30 23.6735 29.7726 22.5 29.3565V36.1215ZM26.25 26.25C30.3855 26.25 33.75 22.8855 33.75 18.75C33.75 14.6145 30.3855 11.25 26.25 11.25C22.1145 11.25 18.75 14.6145 18.75 18.75C18.75 22.8855 22.1145 26.25 26.25 26.25Z" fill="#219653"/>
</svg>
