<svg width="64" height="64" viewBox="0 0 64 64" fill="none" xmlns="http://www.w3.org/2000/svg">
<path d="M44.0574 27.5C44.0574 26.1193 42.9381 25 41.5574 25H15.8074C14.4266 25 13.3074 26.1193 13.3074 27.5C13.3074 28.8807 14.4266 30 15.8074 30H41.5574C42.9381 30 44.0574 28.8807 44.0574 27.5Z" fill="#EB5757"/>
<path d="M15.8074 35C14.4266 35 13.3074 36.1193 13.3074 37.5C13.3074 38.8807 14.4266 40 15.8074 40H31.4462C32.827 40 33.9462 38.8807 33.9462 37.5C33.9462 36.1193 32.827 35 31.4462 35H15.8074Z" fill="#EB5757"/>
<path d="M21.6824 59H13.3213C10.5643 59 8.32129 56.757 8.32129 54V10C8.32129 7.243 10.5643 5 13.3213 5H44.0574C46.8144 5 49.0574 7.243 49.0574 10V25.375C49.0574 26.7558 50.1767 27.875 51.5574 27.875C52.9382 27.875 54.0574 26.7558 54.0574 25.375V10C54.0574 4.486 49.5714 0 44.0574 0H13.3213C7.80729 0 3.32129 4.486 3.32129 10V54C3.32129 59.514 7.80729 64 13.3213 64H21.6824C23.0632 64 24.1824 62.8807 24.1824 61.5C24.1824 60.1193 23.0632 59 21.6824 59Z" fill="#EB5757"/>
<path d="M58.4855 36.1964C55.5612 33.2722 50.8032 33.272 47.8809 36.1944L34.1555 49.8894C33.864 50.1803 33.649 50.5385 33.5293 50.9325L30.5401 60.7731C30.2751 61.6456 30.506 62.593 31.1428 63.2456C31.6198 63.7345 32.2678 63.9999 32.9324 63.9999C33.1548 63.9999 33.3792 63.9701 33.5996 63.909L43.6902 61.1139C44.1055 60.9989 44.484 60.7785 44.789 60.474L58.4856 46.8032C61.4099 43.8789 61.4099 39.1209 58.4855 36.1964ZM41.722 56.4709L36.6455 57.8772L38.1311 52.986L47.3922 43.7454L50.9285 47.2817L41.722 56.4709ZM54.9519 43.2662L54.4675 43.7495L50.9319 40.2139L51.4146 39.7322C52.3894 38.7574 53.9754 38.7574 54.9501 39.7322C55.9249 40.7069 55.9249 42.2929 54.9519 43.2662Z" fill="#EB5757"/>
<path d="M41.5574 15H15.8074C14.4266 15 13.3074 16.1193 13.3074 17.5C13.3074 18.8807 14.4266 20 15.8074 20H41.5574C42.9381 20 44.0574 18.8807 44.0574 17.5C44.0574 16.1193 42.9381 15 41.5574 15Z" fill="#EB5757"/>
</svg>
