<svg width="164" height="52" viewBox="0 0 164 52" fill="none" xmlns="http://www.w3.org/2000/svg">
<path d="M51.44 37.88H63.38C63.44 37.46 63.5 36.98 63.5 36.53C63.5 32.21 60.44 28.61 55.97 28.61C51.26 28.61 48.05 32.06 48.05 36.5C48.05 41 51.26 44.39 56.21 44.39C59.15 44.39 61.4 43.16 62.78 41.12L60.11 39.56C59.39 40.61 58.04 41.42 56.24 41.42C53.84 41.42 51.95 40.22 51.44 37.88ZM51.41 35.24C51.86 32.99 53.51 31.55 55.94 31.55C57.89 31.55 59.78 32.66 60.23 35.24H51.41ZM78.143 23V31.13C77.003 29.57 75.233 28.61 72.893 28.61C68.813 28.61 65.423 32.03 65.423 36.5C65.423 40.94 68.813 44.39 72.893 44.39C75.233 44.39 77.003 43.43 78.143 41.84V44H81.383V23H78.143ZM73.403 41.3C70.703 41.3 68.663 39.29 68.663 36.5C68.663 33.71 70.703 31.7 73.403 31.7C76.103 31.7 78.143 33.71 78.143 36.5C78.143 39.29 76.103 41.3 73.403 41.3ZM95.2695 29V37.04C95.2695 40.1 93.5895 41.36 91.4595 41.36C89.4195 41.36 88.0995 40.16 88.0995 37.88V29H84.8595V38.21C84.8595 42.11 87.2595 44.39 90.6195 44.39C92.6595 44.39 94.2795 43.64 95.2695 42.08V44H98.5095V29H95.2695ZM109.378 44.39C112.318 44.39 114.868 42.86 116.128 40.49L113.338 38.9C112.618 40.28 111.148 41.21 109.348 41.21C106.708 41.21 104.698 39.2 104.698 36.5C104.698 33.8 106.708 31.79 109.348 31.79C111.148 31.79 112.618 32.69 113.278 34.1L116.068 32.48C114.868 30.14 112.318 28.61 109.378 28.61C104.848 28.61 101.458 32.03 101.458 36.5C101.458 40.94 104.848 44.39 109.378 44.39ZM130.116 29V31.13C128.976 29.57 127.206 28.61 124.866 28.61C120.786 28.61 117.396 32.03 117.396 36.5C117.396 40.94 120.786 44.39 124.866 44.39C127.206 44.39 128.976 43.43 130.116 41.84V44H133.356V29H130.116ZM125.376 41.3C122.676 41.3 120.636 39.29 120.636 36.5C120.636 33.71 122.676 31.7 125.376 31.7C128.076 31.7 130.116 33.71 130.116 36.5C130.116 39.29 128.076 41.3 125.376 41.3ZM145.502 32.12V29H141.782V24.8L138.542 25.76V29H135.782V32.12H138.542V39.32C138.542 43.22 140.522 44.6 145.502 44V41.09C143.042 41.21 141.782 41.24 141.782 39.32V32.12H145.502ZM150.376 37.88H162.316C162.376 37.46 162.436 36.98 162.436 36.53C162.436 32.21 159.376 28.61 154.906 28.61C150.196 28.61 146.986 32.06 146.986 36.5C146.986 41 150.196 44.39 155.146 44.39C158.086 44.39 160.336 43.16 161.716 41.12L159.046 39.56C158.326 40.61 156.976 41.42 155.176 41.42C152.776 41.42 150.886 40.22 150.376 37.88ZM150.346 35.24C150.796 32.99 152.446 31.55 154.876 31.55C156.826 31.55 158.716 32.66 159.166 35.24H150.346Z" fill="#1C1F2C"/>
<path d="M27.5474 44H2.48467C1.62044 44 0.990268 43.81 0.594161 43.4299C0.198054 43.0499 0 42.4452 0 41.616V8.03298C0 7.58382 0.0540146 7.20377 0.162044 6.89282C0.306083 6.58186 0.504136 6.32273 0.756204 6.11543L7.72409 0.466431C7.90414 0.328229 8.1382 0.224577 8.42628 0.155475C8.75037 0.051825 9.09246 0 9.45256 0H34.5153C35.3796 0 36.0097 0.190027 36.4058 0.570081C36.8019 0.950138 37 1.55477 37 2.38398V8.44759C37 8.89674 36.928 9.2768 36.7839 9.58775C36.6759 9.8987 36.4959 10.1578 36.2438 10.3651L31.5985 14.0448C31.9586 14.2175 32.2107 14.4766 32.3547 14.8221C32.5348 15.1676 32.6248 15.6168 32.6248 16.1696V21.715C32.6248 22.1641 32.5528 22.5442 32.4088 22.8551C32.3007 23.1661 32.1207 23.4252 31.8686 23.6325L27.0613 27.5194H34.5153C35.3796 27.5194 36.0097 27.7095 36.4058 28.0895C36.8019 28.4696 37 29.0742 37 29.9034V35.967C37 36.4162 36.928 36.7962 36.7839 37.1072C36.6759 37.4181 36.4959 37.6773 36.2438 37.8846L29.2219 43.4817C29.0779 43.6199 28.8438 43.7409 28.5197 43.8445C28.2316 43.9482 27.9075 44 27.5474 44ZM34.5153 37.8327C35.1995 37.8327 35.6856 37.6945 35.9737 37.4181C36.2978 37.1072 36.4599 36.6235 36.4599 35.967V29.9034C36.4599 29.247 36.2978 28.7805 35.9737 28.5041C35.6856 28.1932 35.1995 28.0377 34.5153 28.0377H19.6073V23.5807H30.1401C30.8243 23.5807 31.3105 23.4425 31.5985 23.1661C31.9226 22.8551 32.0847 22.3714 32.0847 21.715V16.1696C32.0847 15.5132 31.9226 15.0467 31.5985 14.7703C31.3105 14.4594 30.8243 14.3039 30.1401 14.3039H19.6073V10.3133H34.5153C35.1995 10.3133 35.6856 10.1751 35.9737 9.8987C36.2978 9.58775 36.4599 9.10404 36.4599 8.44759V2.38398C36.4599 1.72752 36.2978 1.26109 35.9737 0.984688C35.6856 0.673733 35.1995 0.518256 34.5153 0.518256H9.45256C8.76837 0.518256 8.26423 0.673733 7.94015 0.984688C7.65207 1.26109 7.50803 1.72752 7.50803 2.38398V35.967C7.50803 36.6235 7.65207 37.1072 7.94015 37.4181C8.26423 37.6945 8.76837 37.8327 9.45256 37.8327H34.5153ZM31.5985 32.6502V33.1684H13.3956V5.18257H31.5985V5.70083H13.9358V18.7091H27.2234V19.2273H13.9358V32.6502H31.5985Z" fill="#FF9F66"/>
</svg>
