<svg width="51" height="34" viewBox="0 0 51 34" fill="none" xmlns="http://www.w3.org/2000/svg">
<rect x="0.25" y="0.25" width="50.5" height="33.5" rx="3.75" fill="white" stroke="#E1E3EA" stroke-width="0.5"/>
<path fill-rule="evenodd" clip-rule="evenodd" d="M24.5481 20.5003V16.6658V16.6651H26.6939C27.5786 16.6656 28.3221 16.3969 28.9244 15.8589C29.5332 15.3484 29.8735 14.6143 29.8562 13.8491C29.8682 13.0882 29.5285 12.3596 28.9244 11.8507C28.3274 11.3098 27.5244 11.0147 26.6939 11.0309H23.2493V20.5003H24.5481ZM24.5481 15.5023V12.1968V12.196H26.7262C27.2116 12.1832 27.6796 12.3662 28.0113 12.6985C28.345 13.0023 28.5332 13.4197 28.5332 13.8556C28.5332 14.2915 28.345 14.7089 28.0113 15.0127C27.6755 15.338 27.209 15.5157 26.7262 15.5023H24.5481Z" fill="#5F6368"/>
<path fill-rule="evenodd" clip-rule="evenodd" d="M35.1224 14.5309C34.5668 14.0503 33.8091 13.8101 32.8491 13.8101C31.6159 13.8101 30.6847 14.2332 30.0555 15.0794L31.1994 15.7541C31.6221 15.1809 32.1962 14.8943 32.9217 14.8943C33.3843 14.8892 33.8319 15.0476 34.1753 15.3378C34.5178 15.603 34.7148 15.9983 34.7118 16.4145V16.6925C34.2127 16.4281 33.5776 16.2958 32.8063 16.2958C31.9028 16.2968 31.1806 16.4953 30.6395 16.8912C30.0985 17.2871 29.828 17.8203 29.828 18.4907C29.8162 19.1012 30.0989 19.6841 30.5976 20.0774C31.1107 20.5005 31.7482 20.7121 32.5103 20.7121C33.403 20.7121 34.1183 20.3418 34.6561 19.6014H34.7126V20.5005H35.9549V16.5074C35.9555 15.6702 35.678 15.0114 35.1224 14.5309ZM31.5996 19.3105C31.3275 19.1268 31.167 18.8313 31.1688 18.5172C31.1688 18.1643 31.3455 17.8704 31.7012 17.6286C32.0535 17.3904 32.4934 17.2712 33.021 17.2712C33.7454 17.2712 34.3101 17.4224 34.7151 17.7246C34.7151 18.2353 34.5 18.6804 34.0697 19.0596C33.6822 19.4226 33.1568 19.627 32.6088 19.6278C32.2434 19.6342 31.8868 19.5221 31.5996 19.3105Z" fill="#5F6368"/>
<path fill-rule="evenodd" clip-rule="evenodd" d="M43.0862 14.0215L38.7493 23.3564H37.4086L39.018 20.0901L36.1663 14.0215H37.578L39.6391 18.6757H39.6674L41.672 14.0215H43.0862Z" fill="#5F6368"/>
<path fill-rule="evenodd" clip-rule="evenodd" d="M19.2997 15.8395C19.3002 15.4688 19.2668 15.0988 19.1997 14.7334H13.7222V16.8286H16.8595C16.7297 17.5047 16.3107 18.1019 15.6994 18.4817V19.8417H17.5718C18.6681 18.895 19.2997 17.495 19.2997 15.8395Z" fill="#4285F4"/>
<path fill-rule="evenodd" clip-rule="evenodd" d="M13.722 21.1557C15.2894 21.1557 16.6092 20.6736 17.5716 19.8425L15.6993 18.4825C15.1781 18.8135 14.5069 19.0023 13.722 19.0023C12.207 19.0023 10.9211 18.0458 10.4613 16.7568H8.53247V18.1584C9.51839 19.9959 11.5263 21.1556 13.722 21.1557Z" fill="#34A853"/>
<path fill-rule="evenodd" clip-rule="evenodd" d="M10.4614 16.7568C10.2183 16.0814 10.2183 15.3499 10.4614 14.6745V13.2729H8.53254C7.7079 14.8098 7.7079 16.6215 8.53254 18.1584L10.4614 16.7568Z" fill="#FBBC04"/>
<path fill-rule="evenodd" clip-rule="evenodd" d="M13.722 12.4291C14.5503 12.4164 15.3507 12.7095 15.9501 13.2451L17.6079 11.6924C16.5567 10.7677 15.1641 10.26 13.722 10.2757C11.5263 10.2758 9.51839 11.4356 8.53247 13.273L10.4613 14.6746C10.9211 13.3856 12.207 12.4291 13.722 12.4291Z" fill="#EA4335"/>
</svg>
