<svg width="51" height="34" viewBox="0 0 51 34" fill="none" xmlns="http://www.w3.org/2000/svg">
<rect x="0.25" y="0.25" width="50.5" height="33.5" rx="3.75" fill="white" stroke="#E1E3EA" stroke-width="0.5"/>
<path fill-rule="evenodd" clip-rule="evenodd" d="M33.7559 17.0946H33.7773H33.8187H33.8601H33.9016H33.943H33.9844H34.0258H34.0672H34.1086H34.15H34.1914H34.2329H34.2743H34.3157H34.3571H34.3985H34.4399H34.4813H34.5227H34.5641H34.6056H34.647H34.6884H34.7298H34.7712H34.8126H34.8541H34.8955H34.9369H34.9783H35.0197H35.0611H35.1025H35.1439H35.1854H35.2268H35.2682H35.3096H35.351H35.3924H35.4339H35.4753H35.5167H35.5581H35.5995H35.6409H35.6823H35.7237H35.7651H35.8066H35.848H35.8894H35.9308H35.9722H36.0136H36.055H36.0964H36.1379H36.1793H36.2207H36.2552L36.2621 17.0947C36.2749 17.095 36.2888 17.0956 36.3035 17.0963C36.3168 17.097 36.3307 17.0979 36.3449 17.0989C36.3586 17.0999 36.3725 17.101 36.3864 17.1022C36.4003 17.1035 36.4142 17.1048 36.4278 17.1062C36.442 17.1078 36.4559 17.1094 36.4692 17.1111C36.484 17.113 36.498 17.115 36.5106 17.117C36.5197 17.1185 36.5281 17.12 36.5356 17.1216L36.552 17.1251C36.5659 17.1282 36.5797 17.1316 36.5934 17.1352C36.6073 17.1389 36.6211 17.1428 36.6348 17.147C36.6487 17.1513 36.6625 17.1558 36.6762 17.1606C36.6901 17.1654 36.7039 17.1705 36.7176 17.1759C36.7316 17.1813 36.7454 17.1871 36.7591 17.1931C36.773 17.1992 36.7868 17.2056 36.8005 17.2122C36.8144 17.219 36.8282 17.2261 36.8419 17.2335C36.8559 17.241 36.8697 17.2489 36.8833 17.2571C36.8973 17.2654 36.9111 17.274 36.9247 17.283C36.9387 17.2922 36.9526 17.3017 36.9661 17.3115C36.9802 17.3217 36.994 17.3322 37.0076 17.343C37.0216 17.3542 37.0354 17.3659 37.049 17.3778C37.0631 17.3903 37.0769 17.403 37.0904 17.4162C37.1046 17.43 37.1184 17.4443 37.1318 17.459C37.146 17.4746 37.1598 17.4906 37.1732 17.507C37.1876 17.5247 37.2014 17.5428 37.2146 17.5614C37.2291 17.5818 37.243 17.6028 37.256 17.6243C37.2708 17.6485 37.2846 17.6735 37.2974 17.6991C37.3127 17.7294 37.3265 17.7607 37.3389 17.7928C37.3555 17.8361 37.3693 17.8809 37.3803 17.9271C37.3992 18.0073 37.4094 18.0917 37.4094 18.1799C37.4094 18.2684 37.3993 18.3532 37.3803 18.4336C37.3693 18.48 37.3555 18.525 37.3389 18.5682C37.3265 18.6005 37.3127 18.6318 37.2974 18.6623C37.2846 18.6879 37.2708 18.7129 37.256 18.7371C37.243 18.7586 37.2292 18.7796 37.2146 18.8C37.2014 18.8186 37.1875 18.8368 37.1732 18.8545C37.1598 18.8709 37.146 18.8869 37.1318 18.9024C37.1184 18.9171 37.1046 18.9314 37.0904 18.9452C37.0769 18.9584 37.0631 18.9711 37.049 18.9836C37.0354 18.9955 37.0216 19.007 37.0076 19.0182C36.994 19.029 36.9802 19.0395 36.9661 19.0496C36.9526 19.0594 36.9387 19.0689 36.9247 19.078C36.9111 19.087 36.8973 19.0956 36.8833 19.1038C36.8697 19.1119 36.8559 19.1198 36.8419 19.1273C36.8283 19.1346 36.8145 19.1417 36.8005 19.1484C36.7868 19.155 36.773 19.1614 36.7591 19.1675C36.7454 19.1734 36.7316 19.1791 36.7176 19.1845C36.7039 19.1898 36.6901 19.1949 36.6762 19.1997C36.6625 19.2044 36.6487 19.2089 36.6348 19.213C36.6211 19.2172 36.6073 19.221 36.5934 19.2247C36.5797 19.2282 36.5659 19.2315 36.552 19.2346L36.5356 19.2381C36.5281 19.2398 36.5197 19.2414 36.5106 19.2429C36.498 19.2451 36.484 19.2471 36.4692 19.249C36.4559 19.2508 36.442 19.2524 36.4278 19.2539C36.4142 19.2554 36.4003 19.2567 36.3864 19.2579C36.3725 19.2591 36.3586 19.2602 36.3449 19.2611C36.3307 19.2621 36.3168 19.2629 36.3035 19.2636C36.2888 19.2643 36.2749 19.2648 36.2621 19.2651L36.2399 19.2654H36.2207H36.1793H36.1379H36.0964H36.055H36.0136H35.9722H35.9308H35.8894H35.848H35.8066H35.7651H35.7237H35.6823H35.6409H35.5995H35.5581H35.5167H35.4753H35.4339H35.3924H35.351H35.3096H35.2682H35.2268H35.1854H35.1439H35.1025H35.0611H35.0197H34.9783H34.9369H34.8955H34.8541H34.8126H34.7712H34.7298H34.6884H34.647H34.6056H34.5641H34.5227H34.4813H34.4399H34.3985H34.3571H34.3157H34.2743H34.2329H34.1914H34.15H34.1086H34.0672H34.0258H33.9844H33.943H33.9016H33.8601H33.8187H33.7773H33.7559V17.0946ZM37.0905 14.6376C37.1072 14.7105 37.1161 14.7877 37.1161 14.8689C37.1161 14.9501 37.1072 15.0272 37.0905 15.1C37.0798 15.1468 37.0659 15.1918 37.0491 15.2349C37.0368 15.2664 37.023 15.2968 37.0077 15.3262C36.9949 15.3509 36.981 15.3748 36.9663 15.3979C36.9532 15.4184 36.9393 15.4383 36.9248 15.4576C36.9116 15.4751 36.8978 15.4922 36.8834 15.5088C36.8701 15.5242 36.8563 15.5391 36.842 15.5536C36.8286 15.5673 36.8148 15.5805 36.8006 15.5933C36.7872 15.6054 36.7734 15.6173 36.7592 15.6287C36.7457 15.6396 36.7319 15.6502 36.7178 15.6604C36.7042 15.6703 36.6904 15.6798 36.6764 15.689C36.6628 15.6979 36.649 15.7065 36.635 15.7147C36.6213 15.7228 36.6075 15.7305 36.5936 15.7379C36.5799 15.7451 36.5661 15.7521 36.5522 15.7588C36.5385 15.7653 36.5247 15.7715 36.5107 15.7775C36.4971 15.7833 36.4833 15.7888 36.4693 15.7941C36.4556 15.7993 36.4418 15.8042 36.4279 15.8088C36.4142 15.8134 36.4004 15.8177 36.3865 15.8217C36.3728 15.8257 36.359 15.8294 36.3451 15.8329C36.3314 15.8363 36.3176 15.8395 36.3037 15.8424C36.29 15.8453 36.2762 15.8478 36.2623 15.8502L36.2522 15.852C36.2442 15.8533 36.2335 15.8548 36.2209 15.8563C36.2086 15.8578 36.1946 15.8594 36.1795 15.8608C36.1663 15.8621 36.1524 15.8633 36.138 15.8645C36.1245 15.8656 36.1106 15.8665 36.0966 15.8674C36.0827 15.8682 36.0688 15.869 36.0552 15.8695C36.0409 15.8701 36.0269 15.8704 36.0138 15.8705L36.0073 15.8705H35.9724H35.931H35.8896H35.8482H35.8067H35.7653H35.7239H35.6825H35.6411H35.5997H35.5583H35.5169H35.4755H35.4341H35.3926H35.3512H35.3098H35.2684H35.227H35.1856H35.1442H35.1027H35.0613H35.0199H34.9785H34.9371H34.8957H34.8543H34.8129H34.7715H34.7301H34.6886H34.6472H34.6058H34.5644H34.523H34.4816H34.4402H34.3987H34.3573H34.3159H34.2745H34.2331H34.1917H34.1503H34.1089H34.0675H34.0261H33.9846H33.9432H33.9018H33.8604H33.819H33.7776H33.7559V13.8673H33.7776H33.819H33.8604H33.9018H33.9432H33.9846H34.0261H34.0675H34.1089H34.1503H34.1917H34.2331H34.2745H34.3159H34.3573H34.3987H34.4402H34.4816H34.523H34.5644H34.6058H34.6472H34.6886H34.7301H34.7715H34.8129H34.8543H34.8957H34.9371H34.9785H35.0199H35.0613H35.1027H35.1442H35.1856H35.227H35.2684H35.3098H35.3512H35.3926H35.4341H35.4755H35.5169H35.5583H35.5997H35.6411H35.6825H35.7239H35.7653H35.8067H35.8482H35.8896H35.931H35.9724H36.0138H36.0312L36.0552 13.868C36.0688 13.8685 36.0827 13.8693 36.0966 13.8702C36.1106 13.871 36.1245 13.872 36.138 13.8731C36.1524 13.8742 36.1663 13.8755 36.1795 13.8767C36.1946 13.8781 36.2086 13.8795 36.2209 13.8809C36.2335 13.8822 36.2442 13.8836 36.2522 13.8846L36.2623 13.8864C36.2762 13.8888 36.29 13.8915 36.3037 13.8944C36.3176 13.8973 36.3314 13.9005 36.3451 13.904C36.359 13.9075 36.3728 13.9112 36.3865 13.9152C36.4004 13.9193 36.4142 13.9236 36.4279 13.9282C36.4418 13.9329 36.4556 13.9378 36.4693 13.943C36.4833 13.9483 36.4971 13.9539 36.5107 13.9598C36.5247 13.9657 36.5385 13.972 36.5522 13.9785C36.5661 13.9852 36.5799 13.9921 36.5936 13.9994C36.6075 14.0068 36.6213 14.0146 36.635 14.0226C36.649 14.0309 36.6628 14.0394 36.6764 14.0483C36.6904 14.0575 36.7042 14.0671 36.7178 14.077C36.7319 14.0872 36.7457 14.0978 36.7592 14.1087C36.7734 14.1202 36.7872 14.132 36.8006 14.1442C36.8148 14.157 36.8286 14.1702 36.842 14.1838C36.8563 14.1983 36.8701 14.2133 36.8834 14.2287C36.8978 14.2452 36.9116 14.2623 36.9248 14.2799C36.9393 14.2992 36.9532 14.3191 36.9663 14.3396C36.981 14.3627 36.9949 14.3866 37.0077 14.4113C37.023 14.4407 37.0368 14.4712 37.0491 14.5027C37.0659 14.5458 37.0798 14.5908 37.0905 14.6376ZM42.2263 4.25H42.2433L42.2433 24.8241C42.2433 24.947 42.2373 25.0686 42.2263 25.1887C42.2166 25.2945 42.2028 25.3991 42.1849 25.5025C42.1729 25.5719 42.1591 25.6407 42.1435 25.7089C42.1308 25.7643 42.117 25.8195 42.1021 25.8741C42.0891 25.9212 42.0753 25.968 42.0607 26.0144C42.0474 26.0564 42.0338 26.0982 42.0192 26.1397C42.006 26.1772 41.9921 26.2145 41.9778 26.2516C41.9645 26.2861 41.9506 26.3204 41.9364 26.3545C41.923 26.3866 41.9092 26.4184 41.895 26.45C41.8815 26.4799 41.8677 26.5097 41.8535 26.5393C41.8401 26.5675 41.8263 26.5955 41.8121 26.6234C41.7986 26.65 41.7848 26.6766 41.7707 26.7029C41.7572 26.7282 41.7433 26.7533 41.7293 26.7782C41.7158 26.8022 41.7019 26.826 41.6879 26.8497C41.6743 26.8726 41.6605 26.8954 41.6465 26.918C41.6328 26.9401 41.619 26.962 41.605 26.9838C41.5914 27.005 41.5776 27.0262 41.5636 27.0471C41.55 27.0674 41.5361 27.0875 41.5222 27.1075C41.5086 27.1271 41.4947 27.1464 41.4808 27.1656C41.4671 27.1846 41.4533 27.2034 41.4393 27.2221C41.4257 27.2404 41.4119 27.2585 41.3979 27.2766C41.3843 27.2942 41.3704 27.3115 41.3565 27.3288C41.3428 27.3459 41.329 27.363 41.3151 27.3798C41.3014 27.3964 41.2876 27.4128 41.2736 27.4291C41.26 27.4451 41.2461 27.4609 41.2322 27.4767C41.2185 27.4923 41.2048 27.508 41.1908 27.5234C41.1771 27.5384 41.1633 27.5533 41.1494 27.5681C41.1357 27.5828 41.1219 27.5974 41.108 27.6119C41.0942 27.6262 41.0805 27.6404 41.0666 27.6545C41.0529 27.6683 41.039 27.6819 41.0251 27.6956C41.0114 27.7091 40.9977 27.7228 40.9837 27.7361C40.97 27.7492 40.9561 27.762 40.9423 27.7749C40.9285 27.7877 40.9148 27.8006 40.9009 27.8132C40.8872 27.8256 40.8733 27.8379 40.8595 27.8501C40.8457 27.8623 40.8319 27.8744 40.818 27.8863C40.8043 27.8981 40.7905 27.9099 40.7766 27.9215C40.7629 27.933 40.7491 27.9444 40.7352 27.9558C40.7214 27.9671 40.7077 27.9783 40.6938 27.9894C40.6801 28.0003 40.6662 28.0111 40.6524 28.0218C40.6386 28.0325 40.6249 28.0432 40.611 28.0538C40.5973 28.0642 40.5834 28.0744 40.5695 28.0846C40.5558 28.0948 40.542 28.105 40.5281 28.115C40.5144 28.1249 40.5005 28.1346 40.4867 28.1443C40.4729 28.154 40.4591 28.1638 40.4452 28.1733C40.4315 28.1827 40.4177 28.1919 40.4038 28.2011C40.39 28.2103 40.3763 28.2196 40.3624 28.2287C40.3487 28.2376 40.3348 28.2464 40.321 28.2552C40.3072 28.2639 40.2935 28.2727 40.2796 28.2813C40.2658 28.2899 40.252 28.2982 40.2382 28.3066C40.2244 28.3149 40.2106 28.3233 40.1967 28.3314C40.183 28.3395 40.1692 28.3475 40.1553 28.3555L40.1139 28.379C40.1001 28.3867 40.0864 28.3944 40.0725 28.402C40.0588 28.4095 40.0449 28.4168 40.0311 28.4242C40.0173 28.4315 40.0035 28.4389 39.9897 28.4461C39.9759 28.4532 39.9621 28.4601 39.9482 28.4671C39.9344 28.474 39.9207 28.4812 39.9068 28.488C39.8931 28.4948 39.8792 28.5012 39.8654 28.5078C39.8516 28.5144 39.8379 28.5211 39.8239 28.5275C39.8102 28.5339 39.7963 28.5402 39.7825 28.5464L39.7411 28.565L39.6997 28.583C39.6859 28.5889 39.6721 28.5946 39.6583 28.6004C39.6445 28.6061 39.6307 28.612 39.6169 28.6176C39.6031 28.6232 39.5893 28.6284 39.5754 28.6338C39.5616 28.6392 39.5479 28.6448 39.534 28.6501C39.5203 28.6553 39.5064 28.6603 39.4926 28.6654C39.4788 28.6704 39.4651 28.6755 39.4512 28.6804L39.4098 28.6951C39.396 28.6999 39.3821 28.7045 39.3683 28.7091C39.3545 28.7137 39.3408 28.7185 39.3269 28.723C39.3132 28.7275 39.2993 28.7316 39.2855 28.7359L39.2441 28.7488C39.2303 28.753 39.2165 28.757 39.2027 28.7611L39.1613 28.7729C39.1475 28.7768 39.1337 28.7807 39.1198 28.7845C39.1061 28.7882 39.0922 28.7917 39.0784 28.7953C39.0646 28.7988 39.0508 28.8025 39.037 28.806L38.9956 28.816L38.9541 28.8257L38.9127 28.8352C38.899 28.8382 38.8851 28.8409 38.8713 28.8438C38.8575 28.8467 38.8437 28.8497 38.8299 28.8525L38.7885 28.8604L38.747 28.868C38.7332 28.8705 38.7195 28.8731 38.7056 28.8755C38.6919 28.8778 38.678 28.8799 38.6642 28.8821L38.6228 28.8886L38.5814 28.8946L38.54 28.9002C38.5261 28.902 38.5124 28.904 38.4985 28.9057C38.4848 28.9074 38.4709 28.9087 38.4571 28.9103C38.4433 28.9118 38.4295 28.9134 38.4157 28.9148C38.4019 28.9162 38.3881 28.9177 38.3743 28.919C38.3605 28.9202 38.3466 28.9213 38.3328 28.9225C38.319 28.9236 38.3052 28.9249 38.2914 28.926C38.2776 28.927 38.2638 28.9278 38.25 28.9288L38.2086 28.9313C38.1948 28.9321 38.181 28.933 38.1672 28.9337C38.1534 28.9343 38.1395 28.9347 38.1257 28.9352L38.0843 28.9367L38.0429 28.9377C38.0291 28.938 38.0153 28.9381 38.0015 28.9382L37.9601 28.9387L37.9515 28.9388H37.9187H37.8772H37.8358H37.7944H37.753H37.7116H37.6701H37.6287H37.5873H37.5459H37.5044H37.463H37.4216H37.3802H37.3388H37.2973H37.2559H37.2145H37.1731H37.1317H37.0903H37.0488H37.0074H36.966H36.9246H36.8831H36.8417H36.8003H36.7589H36.7175H36.676H36.6346H36.5932H36.5518H36.5104H36.469H36.4275H36.3861H36.3447H36.3033H36.2619H36.2204H36.179H36.1376H36.0962H36.0547H36.0133H35.9719H35.9305H35.8891H35.8477H35.8062H35.7648H35.7234H35.682H35.6406H35.5991H35.5577H35.5163H35.4749H35.4334H35.392H35.3506H35.3092H35.2678H35.2264H35.1849H35.1435H35.1021H35.0607H35.0193H34.9778H34.9364H34.895H34.8536H34.8122H34.7707H34.7293H34.6879H34.6465H34.605H34.5636H34.5222H34.4808H34.4394H34.398H34.3565H34.3151H34.2737H34.2323H34.1909H34.1495H34.108H34.0666H34.0252H33.9837H33.9423H33.9009H33.8595H33.8181H33.7767H33.7352H33.6938H33.6524H33.611H33.5696H33.5281H33.4867H33.4453H33.4039H33.3624H33.321H33.2796H33.2382H33.1968H33.1554H33.1139H33.0725H33.0311H32.9897H32.9483H32.9068H32.8654H32.824H32.7826H32.7412H32.6998H32.6583H32.6169H32.5755H32.5341H32.4926H32.4512H32.4098H32.3684H32.327H32.2855H32.2441H32.2027H32.1613H32.1199H32.0785H32.037H31.9956H31.9542H31.9127H31.8713H31.8299H31.7885H31.7471H31.6577V20.5501H31.7471H31.7885H31.8299H31.8713H31.9127H31.9542H31.9956H32.037H32.0785H32.1199H32.1613H32.2027H32.2441H32.2855H32.327H32.3684H32.4098H32.4512H32.4926H32.5341H32.5755H32.6169H32.6583H32.6998H32.7412H32.7826H32.824H32.8654H32.9068H32.9483H32.9897H33.0311H33.0725H33.1139H33.1554H33.1968H33.2382H33.2796H33.321H33.3624H33.4039H33.4453H33.4867H33.5281H33.5696H33.611H33.6524H33.6938H33.7352H33.7767H33.8181H33.8595H33.9009H33.9423H33.9837H34.0252H34.0666H34.108H34.1495H34.1909H34.2323H34.2737H34.3151H34.3565H34.398H34.4394H34.4808H34.5222H34.5636H34.605H34.6465H34.6879H34.7293H34.7707H34.8122H34.8536H34.895H34.9364H34.9778H35.0193H35.0607H35.1021H35.1435H35.1849H35.2264H35.2678H35.3092H35.3506H35.392H35.4334H35.4749H35.5163H35.5577H35.5991H35.6406H35.682H35.7234H35.7648H35.8062H35.8477H35.8891H35.9305H35.9719H36.0133H36.0547H36.0962H36.1376H36.179H36.2204H36.2619H36.3033H36.3447H36.3861H36.4275H36.469H36.5104H36.5518H36.5932H36.6346H36.676H36.7175H36.7589H36.8003H36.8417H36.8831H36.9246H36.966H37.0074H37.0488H37.0903H37.1317H37.1731H37.2145H37.2559H37.2973H37.3388H37.3802H37.4216H37.463H37.5044H37.5459H37.5873H37.6287H37.6701H37.7116H37.753H37.7944H37.8358H37.8772H37.9187H37.9601H38.0015H38.0429H38.0843H38.1257H38.1672H38.2086H38.25H38.2914H38.3134L38.3328 20.5499L38.3743 20.5496L38.4157 20.5488C38.4295 20.5484 38.4434 20.5482 38.4571 20.5478C38.471 20.5473 38.4847 20.5467 38.4985 20.5461L38.54 20.5443L38.5814 20.5419L38.6228 20.5391L38.6642 20.536L38.7056 20.5324C38.7194 20.5311 38.7333 20.5299 38.747 20.5285C38.7609 20.5271 38.7747 20.5256 38.7885 20.524L38.8299 20.5192C38.8437 20.5175 38.8575 20.5158 38.8713 20.514C38.8852 20.5121 38.8989 20.5101 38.9127 20.5081C38.9266 20.5061 38.9404 20.5041 38.9541 20.502L38.9956 20.4953L39.037 20.4882C39.0508 20.4857 39.0647 20.4833 39.0784 20.4807C39.0923 20.4781 39.106 20.4752 39.1198 20.4725L39.1613 20.4639C39.1751 20.4609 39.1889 20.4579 39.2027 20.4549C39.2166 20.4517 39.2303 20.4484 39.2441 20.4451C39.2579 20.4418 39.2718 20.4385 39.2855 20.435C39.2993 20.4315 39.3132 20.428 39.3269 20.4243C39.3408 20.4207 39.3546 20.4169 39.3683 20.413C39.3822 20.4092 39.396 20.4052 39.4098 20.4012L39.4512 20.3888C39.4651 20.3845 39.4788 20.3801 39.4926 20.3757C39.5065 20.3712 39.5203 20.3667 39.534 20.3621C39.5479 20.3574 39.5617 20.3527 39.5754 20.3479C39.5894 20.343 39.6031 20.3379 39.6169 20.3328C39.6307 20.3277 39.6445 20.3225 39.6583 20.3172C39.6721 20.3118 39.686 20.3065 39.6997 20.3009C39.7136 20.2953 39.7274 20.2896 39.7411 20.2838C39.755 20.278 39.7688 20.272 39.7825 20.2659C39.7964 20.2598 39.8103 20.2536 39.8239 20.2473C39.8378 20.241 39.8517 20.2346 39.8654 20.228C39.8793 20.2213 39.8931 20.2146 39.9068 20.2077C39.9207 20.2007 39.9345 20.1936 39.9482 20.1864C39.9622 20.1791 39.976 20.1718 39.9897 20.1643C40.0036 20.1568 40.0174 20.1491 40.0311 20.1413C40.045 20.1334 40.0588 20.1254 40.0725 20.1173C40.0864 20.109 40.1002 20.1005 40.1139 20.092C40.1279 20.0833 40.1416 20.0745 40.1553 20.0656C40.1693 20.0565 40.1831 20.0473 40.1967 20.038C40.2107 20.0285 40.2245 20.0189 40.2382 20.0091C40.2521 19.9992 40.2659 19.9891 40.2796 19.9789C40.2935 19.9684 40.3074 19.9579 40.321 19.9472C40.335 19.9362 40.3488 19.9251 40.3624 19.9139C40.3764 19.9024 40.3902 19.8907 40.4038 19.8789C40.4178 19.8667 40.4316 19.8544 40.4452 19.8419C40.4593 19.8291 40.4731 19.8161 40.4867 19.8029C40.5008 19.7893 40.5145 19.7755 40.5281 19.7616C40.5422 19.7472 40.556 19.7325 40.5695 19.7177C40.5836 19.7024 40.5974 19.6868 40.611 19.671C40.6251 19.6546 40.6389 19.638 40.6524 19.6212C40.6665 19.6035 40.6804 19.5858 40.6938 19.5677C40.708 19.5485 40.7217 19.529 40.7352 19.5093C40.7494 19.4884 40.7633 19.4673 40.7766 19.4459C40.791 19.4229 40.8048 19.3996 40.818 19.3759C40.8324 19.3502 40.8463 19.3242 40.8595 19.2978C40.8741 19.2682 40.8879 19.2382 40.9009 19.2078C40.9158 19.1729 40.9296 19.1376 40.9423 19.1015C40.9579 19.0572 40.9716 19.0119 40.9837 18.9659C41.0014 18.8985 41.0153 18.8295 41.0251 18.7587C41.0372 18.6728 41.0435 18.5845 41.0435 18.4939C41.0435 18.4055 41.0372 18.3198 41.0251 18.2364C41.0152 18.168 41.0013 18.1013 40.9837 18.0363C40.9717 17.9921 40.9578 17.9486 40.9423 17.9061C40.9296 17.8711 40.9158 17.8367 40.9009 17.8029C40.8879 17.7737 40.8741 17.7448 40.8595 17.7164C40.8463 17.6909 40.8325 17.6657 40.818 17.6409C40.8047 17.6181 40.791 17.5955 40.7766 17.5733C40.7633 17.5526 40.7494 17.5323 40.7352 17.5122C40.7218 17.4932 40.708 17.4744 40.6938 17.4559C40.6804 17.4385 40.6665 17.4213 40.6524 17.4044C40.6389 17.3881 40.6251 17.3721 40.611 17.3562C40.5974 17.341 40.5836 17.3259 40.5695 17.3111C40.556 17.2968 40.5422 17.2827 40.5281 17.2687C40.5146 17.2553 40.5007 17.2421 40.4867 17.229C40.4731 17.2163 40.4593 17.2037 40.4452 17.1913C40.4316 17.1793 40.4178 17.1675 40.4038 17.1558C40.3902 17.1443 40.3764 17.133 40.3624 17.1219C40.3488 17.1111 40.335 17.1003 40.321 17.0897C40.3073 17.0794 40.2935 17.0692 40.2796 17.0591C40.2659 17.0492 40.2521 17.0395 40.2382 17.0299C40.2245 17.0204 40.2107 17.0111 40.1967 17.0019C40.1831 16.993 40.1693 16.984 40.1553 16.9752C40.1416 16.9666 40.1278 16.9581 40.1139 16.9497C40.1002 16.9415 40.0864 16.9333 40.0725 16.9253C40.0588 16.9174 40.045 16.9096 40.0311 16.902C40.0174 16.8944 40.0036 16.887 39.9897 16.8797C39.976 16.8724 39.9622 16.8653 39.9482 16.8583C39.9345 16.8513 39.9207 16.8445 39.9068 16.8377C39.8931 16.8311 39.8793 16.8244 39.8654 16.818C39.8517 16.8116 39.8379 16.8052 39.8239 16.799C39.8103 16.7929 39.7964 16.7869 39.7825 16.781C39.7688 16.7751 39.755 16.7694 39.7411 16.7637C39.7274 16.7581 39.7136 16.7525 39.6997 16.7471C39.6859 16.7417 39.6722 16.7363 39.6583 16.731C39.6445 16.7259 39.6307 16.7208 39.6169 16.7158C39.6031 16.7108 39.5893 16.706 39.5754 16.7012C39.5617 16.6965 39.5479 16.6919 39.534 16.6873C39.5203 16.6827 39.5065 16.6782 39.4926 16.6738C39.4789 16.6695 39.4651 16.6652 39.4512 16.661C39.4375 16.6569 39.4236 16.6529 39.4098 16.6489L39.3683 16.6372C39.3546 16.6335 39.3408 16.6297 39.3269 16.6261C39.3132 16.6225 39.2993 16.619 39.2855 16.6156C39.2718 16.6122 39.258 16.6089 39.2441 16.6056C39.2303 16.6023 39.2165 16.5991 39.2027 16.596C39.1889 16.5929 39.1751 16.5899 39.1613 16.587C39.1475 16.5841 39.1337 16.5813 39.1198 16.5785C39.106 16.5757 39.0923 16.573 39.0784 16.5704L39.037 16.5628L38.9956 16.5557C38.9818 16.5534 38.968 16.5511 38.9541 16.5489L38.9127 16.5427C38.899 16.5407 38.8851 16.5388 38.8713 16.5369L38.8299 16.5315L38.7885 16.5265L38.747 16.522L38.7056 16.5179L38.6642 16.5142L38.6228 16.5108L38.5846 16.508L38.5845 16.4604L38.6228 16.4547L38.6642 16.4482C38.6781 16.4459 38.6919 16.4436 38.7056 16.4412L38.747 16.4336C38.7609 16.431 38.7747 16.4282 38.7885 16.4254L38.8299 16.4168C38.8437 16.4138 38.8576 16.4107 38.8713 16.4076C38.8852 16.4044 38.899 16.401 38.9127 16.3976C38.9266 16.3942 38.9404 16.3907 38.9541 16.3871C38.968 16.3835 38.9818 16.3798 38.9956 16.376C39.0094 16.3722 39.0233 16.3684 39.037 16.3644C39.0508 16.3604 39.0647 16.3562 39.0784 16.352C39.0923 16.3477 39.1061 16.3433 39.1198 16.3389C39.1338 16.3344 39.1475 16.3297 39.1613 16.3251C39.1752 16.3203 39.189 16.3155 39.2027 16.3106C39.2166 16.3056 39.2304 16.3005 39.2441 16.2953C39.258 16.2901 39.2718 16.2847 39.2855 16.2793C39.2994 16.2738 39.3132 16.2682 39.3269 16.2624C39.3409 16.2566 39.3546 16.2507 39.3683 16.2447C39.3823 16.2386 39.3961 16.2323 39.4098 16.226C39.4237 16.2196 39.4375 16.213 39.4512 16.2064C39.4651 16.1997 39.4789 16.1928 39.4926 16.1859C39.5065 16.1788 39.5204 16.1716 39.534 16.1643C39.548 16.1569 39.5618 16.1493 39.5754 16.1417C39.5894 16.1339 39.6032 16.126 39.6169 16.1179C39.6308 16.1097 39.6446 16.1014 39.6583 16.093C39.6722 16.0844 39.686 16.0756 39.6997 16.0668C39.7137 16.0577 39.7275 16.0486 39.7411 16.0392C39.7551 16.0297 39.7689 16.02 39.7825 16.0103C39.7966 16.0002 39.8104 15.9901 39.8239 15.9798C39.838 15.9692 39.8518 15.9585 39.8654 15.9477C39.8794 15.9365 39.8932 15.9251 39.9068 15.9137C39.9209 15.9018 39.9346 15.8898 39.9482 15.8776C39.9623 15.8651 39.9761 15.8524 39.9897 15.8395C40.0037 15.8262 40.0175 15.8128 40.0311 15.7992C40.0452 15.785 40.059 15.7706 40.0725 15.7561C40.0866 15.7409 40.1004 15.7256 40.1139 15.7101C40.128 15.6938 40.1419 15.6774 40.1553 15.6607C40.1695 15.6432 40.1833 15.6254 40.1967 15.6075C40.211 15.5884 40.2248 15.5691 40.2382 15.5496C40.2524 15.5288 40.2663 15.5078 40.2796 15.4865C40.294 15.4634 40.3078 15.4401 40.321 15.4165C40.3355 15.3905 40.3493 15.3643 40.3624 15.3377C40.3771 15.3078 40.3909 15.2775 40.4038 15.2469C40.4189 15.2112 40.4327 15.175 40.4452 15.1384C40.461 15.0923 40.4749 15.0455 40.4867 14.9981C40.5058 14.9212 40.5196 14.8427 40.5281 14.7629C40.5348 14.6999 40.5383 14.636 40.5383 14.5715C40.5383 14.5034 40.5348 14.437 40.5281 14.3723C40.5196 14.2895 40.5057 14.2096 40.4867 14.1324C40.4748 14.0842 40.461 14.0371 40.4452 13.9912C40.4326 13.9544 40.4188 13.9184 40.4038 13.883C40.3909 13.8526 40.3771 13.8226 40.3624 13.7933C40.3493 13.7671 40.3355 13.7413 40.321 13.716C40.3078 13.6927 40.2939 13.6699 40.2796 13.6474C40.2662 13.6265 40.2524 13.6059 40.2382 13.5856C40.2248 13.5666 40.2109 13.5479 40.1967 13.5295C40.1833 13.512 40.1695 13.4948 40.1553 13.4779C40.1418 13.4617 40.1281 13.4456 40.1139 13.4299C40.1004 13.4149 40.0866 13.4002 40.0725 13.3856C40.059 13.3716 40.0451 13.3577 40.0311 13.3441C40.0175 13.3309 40.0037 13.3179 39.9897 13.3051C39.9761 13.2927 39.9623 13.2805 39.9482 13.2684C39.9346 13.2567 39.9208 13.2452 39.9068 13.2338C39.8932 13.2227 39.8794 13.2118 39.8654 13.201C39.8518 13.1906 39.838 13.1802 39.8239 13.17C39.8103 13.1601 39.7965 13.1503 39.7825 13.1407C39.7689 13.1312 39.7551 13.1219 39.7411 13.1127C39.7274 13.1038 39.7137 13.095 39.6997 13.0862C39.686 13.0777 39.6722 13.0693 39.6583 13.061C39.6446 13.0528 39.6308 13.0448 39.6169 13.0369C39.6032 13.0292 39.5894 13.0215 39.5754 13.014C39.5618 13.0066 39.548 12.9993 39.534 12.9921C39.5203 12.985 39.5065 12.9781 39.4926 12.9712C39.4789 12.9645 39.4651 12.9578 39.4512 12.9513C39.4375 12.9448 39.4237 12.9384 39.4098 12.9322C39.3961 12.926 39.3822 12.9199 39.3683 12.914C39.3546 12.9082 39.3408 12.9025 39.3269 12.8968C39.3132 12.8912 39.2994 12.8857 39.2855 12.8803C39.2718 12.8749 39.258 12.8697 39.2441 12.8645C39.2304 12.8594 39.2166 12.8543 39.2027 12.8494C39.1889 12.8445 39.1752 12.8398 39.1613 12.835C39.1475 12.8304 39.1337 12.8259 39.1198 12.8214C39.1061 12.817 39.0923 12.8127 39.0784 12.8084C39.0647 12.8042 39.0509 12.8001 39.037 12.796C39.0232 12.792 39.0095 12.788 38.9956 12.7842C38.9818 12.7804 38.968 12.7767 38.9541 12.7731C38.9404 12.7695 38.9266 12.766 38.9127 12.7625L38.8713 12.7524C38.8575 12.7492 38.8438 12.746 38.8299 12.7429C38.8161 12.7398 38.8023 12.7369 38.7885 12.734L38.747 12.7255C38.7333 12.7228 38.7195 12.72 38.7056 12.7174C38.6919 12.7149 38.678 12.7125 38.6642 12.7101L38.6228 12.7031C38.609 12.7008 38.5953 12.6986 38.5814 12.6965L38.54 12.6904L38.4985 12.6848L38.4571 12.6796L38.4157 12.6749L38.3743 12.6706L38.3328 12.6666L38.2914 12.6631L38.25 12.6601L38.2086 12.6572L38.1672 12.655L38.1507 12.6541L38.1257 12.6526L38.0843 12.6502L38.0429 12.648L38.0015 12.646L37.9601 12.6441L37.9187 12.6423L37.8772 12.6409L37.8358 12.6397L37.7944 12.6388L37.753 12.6383L37.7301 12.6382H37.7116H37.6701H37.6287H37.5873H37.5459H37.5044H37.463H37.4216H37.3802H37.3388H37.2973H37.2559H37.2145H37.1731H37.1317H37.0903H37.0488H37.0074H36.966H36.9246H36.8831H36.8417H36.8003H36.7589H36.7175H36.676H36.6346H36.5932H36.5518H36.5104H36.469H36.4275H36.3861H36.3447H36.3033H36.2619H36.2204H36.179H36.1376H36.0962H36.0547H36.0133H35.9719H35.9305H35.8891H35.8477H35.8062H35.7648H35.7234H35.682H35.6406H35.5991H35.5577H35.5163H35.4749H35.4334H35.392H35.3506H35.3092H35.2678H35.2264H35.1849H35.1435H35.1021H35.0607H35.0193H34.9778H34.9364H34.895H34.8536H34.8122H34.7707H34.7293H34.6879H34.6465H34.605H34.5636H34.5222H34.4808H34.4394H34.398H34.3565H34.3151H34.2737H34.2323H34.1909H34.1495H34.108H34.0666H34.0252H33.9837H33.9423H33.9009H33.8595H33.8181H33.7767H33.7352H33.6938H33.6524H33.611H33.5696H33.5281H33.4867H33.4453H33.4039H33.3624H33.321H33.2796H33.2382H33.1968H33.1554H33.1139H33.0725H33.0311H32.9897H32.9483H32.9068H32.8654H32.824H32.7826H32.7412H32.6998H32.6583H32.6169H32.5755H32.5341H32.4926H32.4512H32.4098H32.3684H32.327H32.2855H32.2441H32.2027H32.1613H32.1199H32.0785H32.037H31.9956H31.9542H31.9127H31.8713H31.8299H31.7885H31.7471H31.6577V8.36515C31.6577 8.07768 31.6886 7.79716 31.7471 7.52631C31.7596 7.46831 31.7735 7.4108 31.7885 7.35376C31.8014 7.30494 31.8153 7.25649 31.8299 7.20839C31.843 7.16544 31.8568 7.12278 31.8713 7.08041C31.8846 7.0417 31.8983 7.00319 31.9127 6.965C31.9261 6.92958 31.9398 6.89436 31.9542 6.8594C31.9676 6.82675 31.9814 6.79426 31.9956 6.76203C32.0091 6.73162 32.0228 6.70133 32.037 6.67128C32.0505 6.64274 32.0643 6.6144 32.0785 6.58622C32.0919 6.55933 32.1058 6.53263 32.1199 6.50607C32.1334 6.48052 32.1473 6.45518 32.1613 6.42993C32.1748 6.4056 32.1887 6.38144 32.2027 6.35741C32.2163 6.33411 32.2301 6.311 32.2441 6.28799C32.2578 6.26567 32.2715 6.24345 32.2855 6.22143C32.2992 6.20007 32.313 6.17887 32.327 6.15777C32.3405 6.13732 32.3544 6.11708 32.3684 6.0969C32.382 6.07715 32.3958 6.05747 32.4098 6.03795C32.4235 6.01882 32.4372 5.9997 32.4512 5.9808C32.4648 5.9625 32.4787 5.94443 32.4926 5.92636C32.5063 5.90858 32.5201 5.89094 32.5341 5.87339C32.5478 5.85611 32.5615 5.83876 32.5755 5.82171C32.5891 5.80512 32.603 5.78879 32.6169 5.7724C32.6306 5.75624 32.6444 5.74021 32.6583 5.72428C32.672 5.70854 32.6858 5.69281 32.6998 5.67727C32.7134 5.66213 32.7273 5.64725 32.7412 5.6323C32.7549 5.61749 32.7686 5.60265 32.7826 5.58803C32.7963 5.57371 32.8101 5.55952 32.824 5.54537C32.8377 5.53141 32.8515 5.51755 32.8654 5.50376C32.8792 5.49017 32.8929 5.47657 32.9068 5.46314C32.9205 5.44994 32.9344 5.43694 32.9483 5.42394C32.962 5.411 32.9757 5.39793 32.9897 5.38519C33.0033 5.37272 33.0173 5.36054 33.0311 5.34823C33.0449 5.33598 33.0586 5.3237 33.0725 5.31162C33.0862 5.29974 33.1001 5.28809 33.1139 5.2764C33.1277 5.26478 33.1415 5.25316 33.1554 5.24171C33.1691 5.23041 33.1829 5.21929 33.1968 5.20816C33.2105 5.19713 33.2243 5.18614 33.2382 5.17528C33.2519 5.16451 33.2657 5.15388 33.2796 5.14331L33.321 5.11208L33.3624 5.08166C33.3762 5.07169 33.39 5.06178 33.4039 5.05197C33.4176 5.04226 33.4314 5.03258 33.4453 5.023L33.4867 4.99479C33.5005 4.98554 33.5143 4.97636 33.5281 4.96727L33.5696 4.94038L33.611 4.91421C33.6248 4.90562 33.6385 4.89706 33.6524 4.88863L33.6938 4.86381C33.7076 4.85562 33.7214 4.84742 33.7352 4.83939C33.749 4.83142 33.7628 4.82369 33.7767 4.81588C33.7905 4.80808 33.8042 4.80022 33.8181 4.79258C33.8318 4.78504 33.8457 4.77777 33.8595 4.77036C33.8733 4.76295 33.887 4.75542 33.9009 4.74817C33.9146 4.74103 33.9285 4.73412 33.9423 4.72711C33.9561 4.72009 33.9699 4.71305 33.9837 4.70617C33.9975 4.69936 34.0113 4.69274 34.0252 4.68609C34.0389 4.67947 34.0527 4.67283 34.0666 4.66634L34.108 4.64715C34.1218 4.64086 34.1356 4.63474 34.1495 4.62858C34.1633 4.62246 34.177 4.61624 34.1909 4.61025C34.2046 4.60432 34.2185 4.59866 34.2323 4.59287C34.2461 4.58708 34.2598 4.58118 34.2737 4.57552C34.2874 4.56993 34.3013 4.56459 34.3151 4.55913C34.3289 4.5537 34.3427 4.5482 34.3565 4.5429L34.398 4.52726L34.4394 4.51215C34.4532 4.50715 34.4669 4.50208 34.4808 4.49724C34.4945 4.49244 34.5084 4.48793 34.5222 4.48325C34.536 4.47858 34.5498 4.47381 34.5636 4.46926C34.5774 4.46475 34.5912 4.46051 34.605 4.45613L34.6465 4.44326C34.6603 4.43905 34.674 4.4348 34.6879 4.43072C34.7016 4.42667 34.7155 4.42285 34.7293 4.41893C34.7431 4.41498 34.7569 4.4109 34.7707 4.40712C34.7845 4.40336 34.7983 4.39987 34.8122 4.39625C34.826 4.39263 34.8397 4.38898 34.8536 4.38549L34.895 4.37522C34.9088 4.37189 34.9226 4.36873 34.9364 4.36554C34.9502 4.36235 34.964 4.35892 34.9778 4.35586C34.9916 4.35283 35.0055 4.35007 35.0193 4.34714L35.0607 4.33848L35.1021 4.33029C35.1158 4.32765 35.1297 4.32518 35.1435 4.32268C35.1573 4.32015 35.1711 4.31745 35.1849 4.31504C35.1987 4.31264 35.2126 4.3106 35.2264 4.30836L35.2678 4.30178C35.2816 4.29967 35.2954 4.2975 35.3092 4.29552C35.323 4.29355 35.3368 4.29181 35.3506 4.28996C35.3644 4.28812 35.3782 4.28611 35.392 4.2844C35.4058 4.28269 35.4196 4.28117 35.4334 4.27959L35.4749 4.27505C35.4887 4.2736 35.5024 4.27199 35.5163 4.27067C35.53 4.26936 35.5439 4.26834 35.5577 4.26715L35.5991 4.26363L35.6406 4.26063C35.6543 4.25968 35.6682 4.25892 35.682 4.2581C35.6958 4.25731 35.7095 4.25629 35.7234 4.2556C35.7372 4.2549 35.751 4.25451 35.7648 4.25395L35.8062 4.25247C35.8201 4.25204 35.8338 4.25148 35.8477 4.25119C35.8614 4.25089 35.8753 4.25086 35.8891 4.25066C35.9029 4.25046 35.9167 4.25023 35.9305 4.25016L35.9409 4.25003H35.9719H36.0133H36.0547H36.0962H36.1376H36.179H36.2204H36.2619H36.3033H36.3447H36.3861H36.4275H36.469H36.5104H36.5518H36.5932H36.6346H36.676H36.7175H36.7589H36.8003H36.8417H36.8831H36.9246H36.966H37.0074H37.0488H37.0903H37.1317H37.1731H37.2145H37.2559H37.2973H37.3388H37.3802H37.4216H37.463H37.5044H37.5459H37.5873H37.6287H37.6701H37.7116H37.753H37.7944H37.8358H37.8772H37.9187H37.9601H38.0015H38.0429H38.0843H38.1257H38.1672H38.2086H38.25H38.2914H38.3328H38.3743H38.4157H38.4571H38.4985H38.54H38.5814H38.6228H38.6642H38.7056H38.747H38.7885H38.8299H38.8713H38.9127H38.9541H38.9956H39.037H39.0784H39.1198H39.1613H39.2027H39.2441H39.2855H39.3269H39.3683H39.4098H39.4512H39.4926H39.534H39.5754H39.6169H39.6583H39.6997H39.7411H39.7825H39.8239H39.8654H39.9068H39.9482H39.9897H40.0311H40.0725H40.1139H40.1553H40.1967H40.2382H40.2796H40.321H40.3624H40.4038H40.4452H40.4867H40.5281H40.5695H40.611H40.6524H40.6938H40.7352H40.7766H40.818H40.8595H40.9009H40.9423H40.9837H41.0251H41.0666H41.108H41.1494H41.1908H41.2322H41.2736H41.3151H41.3565H41.3979H41.4393H41.4808H41.5222H41.5636H41.605H41.6465H41.6879H41.7293H41.7707H41.8121H41.8535H41.895H41.9364H41.9778H42.0192H42.0607H42.1021H42.1435H42.1849H42.2263V4.25Z" fill="#54B230"/>
<path fill-rule="evenodd" clip-rule="evenodd" d="M7.91382 18.5274V8.36511C7.91382 8.07847 7.94444 7.79867 8.00263 7.52855C8.01512 7.47055 8.02899 7.41307 8.044 7.356C8.05684 7.30711 8.07067 7.25863 8.08533 7.21047C8.09841 7.16754 8.11221 7.12495 8.12666 7.08262C8.13991 7.04387 8.15361 7.00529 8.16803 6.96704C8.18138 6.93166 8.19505 6.89647 8.20936 6.86154C8.22272 6.82889 8.23652 6.79633 8.25073 6.76407C8.26415 6.73366 8.27792 6.70344 8.29206 6.67342C8.30552 6.64488 8.31932 6.61657 8.33339 6.58839C8.34685 6.56147 8.36072 6.53474 8.37476 6.50814C8.38825 6.4826 8.40205 6.45725 8.41609 6.43203C8.42962 6.40771 8.44342 6.38355 8.45743 6.35952C8.47099 6.33624 8.48475 6.3131 8.49879 6.29013C8.51239 6.26781 8.52609 6.24556 8.54013 6.2235C8.55372 6.20217 8.56752 6.18101 8.58149 6.15994C8.59502 6.13953 8.60892 6.11925 8.62283 6.09907C8.63646 6.07932 8.65019 6.05964 8.66416 6.04012C8.67789 6.02096 8.69149 6.00184 8.70553 5.98291C8.71909 5.96464 8.73299 5.9466 8.74686 5.92853C8.76052 5.91075 8.77429 5.89311 8.78823 5.87556C8.80192 5.85832 8.81559 5.84094 8.82956 5.82388C8.84315 5.80733 8.85706 5.79103 8.87089 5.77467C8.88456 5.75851 8.89832 5.74241 8.91226 5.72645C8.92596 5.71075 8.93965 5.69508 8.95359 5.67957C8.96722 5.6644 8.98109 5.64949 8.99496 5.63451C9.00866 5.61966 9.02235 5.60485 9.03629 5.59024C9.04992 5.57592 9.06379 5.56179 9.07763 5.54767C9.09132 5.53368 9.10509 5.51983 9.11899 5.50603C9.13269 5.49244 9.14642 5.47884 9.16033 5.46541C9.17399 5.45221 9.18786 5.43921 9.20169 5.42621C9.21546 5.41327 9.22909 5.40024 9.24303 5.3875C9.25665 5.37502 9.27056 5.36284 9.28436 5.35053C9.29812 5.33825 9.31179 5.32594 9.32573 5.31386C9.33939 5.30201 9.35326 5.29039 9.36706 5.2787C9.38082 5.26708 9.39452 5.25543 9.40843 5.24398C9.42212 5.23269 9.43592 5.22159 9.44976 5.21047C9.46346 5.19944 9.47722 5.18841 9.49109 5.17755C9.50479 5.16682 9.51862 5.15619 9.53246 5.14559C9.54619 5.13509 9.55992 5.12468 9.57379 5.11435C9.58749 5.10411 9.60132 5.094 9.61516 5.08393C9.62889 5.07396 9.64266 5.06402 9.65649 5.05421L9.69782 5.02531C9.71156 5.01579 9.72532 5.00635 9.73919 4.997C9.75289 4.98775 9.76669 4.9786 9.78052 4.96951C9.79426 4.96046 9.80802 4.95147 9.82186 4.94258C9.83559 4.9338 9.84939 4.92514 9.86322 4.91648C9.87696 4.90789 9.89069 4.89923 9.90456 4.89077C9.91825 4.88241 9.93209 4.87425 9.94592 4.86602C9.95969 4.85782 9.97339 4.84953 9.98726 4.84149C10.0009 4.83356 10.0148 4.82586 10.0286 4.81806C10.0424 4.81026 10.0561 4.80232 10.07 4.79465C10.0836 4.78711 10.0975 4.77991 10.1113 4.7725C10.1251 4.76509 10.1388 4.75759 10.1527 4.75031C10.1664 4.74314 10.1802 4.73622 10.194 4.72921C10.2078 4.7222 10.2215 4.71516 10.2353 4.70828C10.2491 4.70146 10.2629 4.69478 10.2767 4.6881L10.318 4.66841C10.3318 4.66193 10.3456 4.65544 10.3594 4.64912C10.3731 4.64284 10.3869 4.63675 10.4007 4.63059C10.4145 4.62444 10.4282 4.61815 10.4421 4.61216C10.4558 4.6062 10.4696 4.6006 10.4834 4.59481C10.4972 4.58902 10.5109 4.58313 10.5248 4.57746C10.5385 4.57187 10.5523 4.56647 10.5661 4.561L10.6075 4.54481L10.6488 4.52907L10.6902 4.514C10.704 4.50899 10.7176 4.50383 10.7315 4.49895C10.7452 4.49415 10.7591 4.48967 10.7729 4.485C10.7866 4.48032 10.8004 4.47558 10.8142 4.47104L10.8555 4.45778L10.8969 4.4449C10.9107 4.44069 10.9244 4.43638 10.9382 4.4323C10.9519 4.42825 10.9658 4.4244 10.9796 4.42048C10.9934 4.41653 11.0071 4.41251 11.0209 4.4087C11.0347 4.40491 11.0485 4.40139 11.0623 4.39773L11.1036 4.38697C11.1174 4.38348 11.1311 4.37993 11.145 4.37657C11.1587 4.37321 11.1725 4.37015 11.1863 4.36692C11.2001 4.3637 11.2138 4.36034 11.2277 4.35725C11.2414 4.35418 11.2552 4.35132 11.269 4.34839L11.3104 4.33977C11.3241 4.33694 11.3379 4.33407 11.3517 4.3314C11.3654 4.32877 11.3793 4.32634 11.393 4.3238C11.4068 4.32127 11.4206 4.31863 11.4344 4.31623C11.4482 4.31383 11.4619 4.31165 11.4757 4.30938L11.5171 4.3028C11.5309 4.30069 11.5446 4.29842 11.5584 4.29641C11.5721 4.29441 11.586 4.29273 11.5998 4.29085C11.6135 4.28901 11.6273 4.28703 11.6411 4.28529L11.6825 4.28032L11.7238 4.27581C11.7376 4.27433 11.7513 4.27261 11.7652 4.27126C11.7789 4.26992 11.7927 4.26893 11.8065 4.26771L11.8479 4.26422C11.8616 4.2631 11.8754 4.26201 11.8892 4.26106C11.9029 4.26011 11.9168 4.25935 11.9306 4.25853C11.9444 4.2577 11.9581 4.25675 11.9719 4.25602C11.9856 4.2553 11.9994 4.25481 12.0132 4.25421L12.0546 4.2527C12.0683 4.25224 12.0821 4.25155 12.0959 4.25122C12.1096 4.25089 12.1235 4.25092 12.1372 4.25072C12.151 4.25053 12.1648 4.2503 12.1786 4.25023L12.2199 4.25H12.2613H12.3026H12.344H12.3853H12.4267H12.468H12.5094H12.5507H12.5921H12.6334H12.6748H12.7161H12.7574H12.7988H12.8401H12.8815H12.9228H12.9642H13.0055H13.0469H13.0882H13.1296H13.1709H13.2123H13.2536H13.295H13.3363H13.3776H13.419H13.4603H13.5017H13.543H13.5844H13.6257H13.6671H13.7084H13.7498H13.7911H13.8325H13.8738H13.9151H13.9565H13.9978H14.0392H14.0805H14.1219H14.1632H14.2046H14.2459H14.2873H14.3286H14.37H14.4113H14.4527H14.494H14.5353H14.5767H14.618H14.6594H14.7007H14.7421H14.7834H14.8248H14.8661H14.9075H14.9488H14.9902H15.0315H15.0728H15.1142H15.1555H15.1969H15.2382H15.2796H15.3209H15.3623H15.4036H15.445H15.4863H15.5277H15.569H15.6104H15.6517H15.693H15.7344H15.7757H15.8171H15.8584H15.8998H15.9411H15.9825H16.0238H16.0652H16.1065H16.1479H16.1892H16.2306H16.2719H16.3132H16.3546H16.3959H16.4373H16.4786H16.52H16.5613H16.6027H16.644H16.6854H16.7267H16.7681H16.8094H16.8507H16.8921H16.9334H16.9748H17.0161H17.0575H17.0988H17.1402H17.1815H17.2229H17.2642H17.3056H17.3469H17.3883H17.4296H17.4709H17.5123H17.5536H17.595H17.6363H17.6777H17.719H17.7604H17.8017H17.8431H17.8844H17.9258H17.9671H18.0084H18.0498H18.0911H18.1325H18.1738H18.2152H18.2565H18.2979H18.3392H18.3806H18.4219H18.4633H18.4983V24.8241C18.4983 25.003 18.4864 25.1793 18.4633 25.3523C18.4521 25.4356 18.4381 25.518 18.4219 25.5996C18.4095 25.6617 18.3958 25.7233 18.3806 25.7844C18.3677 25.8358 18.354 25.8869 18.3392 25.9376C18.3262 25.9821 18.3124 26.0262 18.2979 26.07C18.2847 26.1097 18.2709 26.1491 18.2565 26.1883C18.2432 26.2245 18.2295 26.2606 18.2152 26.2964C18.2018 26.3298 18.188 26.3629 18.1738 26.3959C18.1604 26.427 18.1466 26.4579 18.1325 26.4885C18.119 26.5176 18.1052 26.5465 18.0911 26.5753C18.0777 26.6027 18.0639 26.6299 18.0498 26.657C18.0363 26.683 18.0225 26.7089 18.0084 26.7346C17.9949 26.7593 17.9811 26.7839 17.9671 26.8083C17.9535 26.8319 17.9398 26.8555 17.9258 26.8788C17.9122 26.9013 17.8984 26.9237 17.8844 26.946C17.8709 26.9675 17.857 26.9888 17.8431 27.01C17.8295 27.0308 17.8157 27.0515 17.8017 27.072C17.788 27.092 17.7744 27.112 17.7604 27.1318C17.7468 27.151 17.7329 27.1701 17.719 27.189C17.7054 27.2075 17.6916 27.2259 17.6777 27.2442C17.664 27.2623 17.6503 27.2802 17.6363 27.298C17.6227 27.3154 17.6089 27.3326 17.595 27.3498C17.5813 27.3665 17.5675 27.3831 17.5536 27.3997C17.5399 27.416 17.5262 27.4324 17.5123 27.4485C17.4987 27.4643 17.4848 27.4798 17.4709 27.4954C17.4573 27.5107 17.4435 27.526 17.4296 27.5411C17.4159 27.556 17.4022 27.5711 17.3883 27.5858C17.3746 27.6002 17.3607 27.6144 17.3469 27.6286C17.3332 27.6427 17.3195 27.6569 17.3056 27.6708C17.2919 27.6845 17.2781 27.698 17.2642 27.7114C17.2505 27.7248 17.2368 27.738 17.2229 27.7512C17.2092 27.7642 17.1954 27.7771 17.1815 27.7899C17.1678 27.8025 17.154 27.815 17.1402 27.8274C17.1264 27.8398 17.1127 27.8521 17.0988 27.8643C17.0852 27.8763 17.0713 27.888 17.0575 27.8998C17.0437 27.9115 17.0301 27.9234 17.0161 27.9349C17.0025 27.9462 16.9886 27.9573 16.9748 27.9685C16.961 27.9796 16.9473 27.9909 16.9334 28.0019C16.9198 28.0127 16.9059 28.0232 16.8921 28.0338C16.8783 28.0444 16.8646 28.0551 16.8507 28.0656C16.8371 28.0758 16.8232 28.0859 16.8094 28.096C16.7956 28.106 16.782 28.1162 16.7681 28.1261C16.7544 28.1359 16.7405 28.1454 16.7267 28.155C16.7129 28.1646 16.6993 28.1743 16.6854 28.1837C16.6717 28.193 16.6578 28.2021 16.644 28.2112C16.6302 28.2204 16.6166 28.2296 16.6027 28.2386C16.589 28.2474 16.5751 28.256 16.5613 28.2647C16.5475 28.2734 16.5339 28.2822 16.52 28.2908C16.5063 28.2992 16.4924 28.3073 16.4786 28.3155C16.4649 28.3238 16.4512 28.3322 16.4373 28.3403C16.4236 28.3483 16.4097 28.356 16.3959 28.3639C16.3822 28.3717 16.3685 28.3796 16.3546 28.3873C16.3409 28.3949 16.3271 28.4024 16.3132 28.4098C16.2995 28.4173 16.2857 28.4247 16.2719 28.432C16.2582 28.4392 16.2444 28.4464 16.2306 28.4535L16.1892 28.4744C16.1754 28.4813 16.1617 28.4882 16.1479 28.4949C16.1341 28.5016 16.1203 28.5081 16.1065 28.5146C16.0927 28.5212 16.079 28.5279 16.0652 28.5343C16.0515 28.5406 16.0376 28.5466 16.0238 28.5528C16.01 28.559 15.9963 28.5653 15.9825 28.5713C15.9688 28.5773 15.9549 28.583 15.9411 28.5889L15.8998 28.6062L15.8584 28.6231C15.8447 28.6286 15.8309 28.6339 15.8171 28.6393C15.8033 28.6446 15.7896 28.6501 15.7757 28.6553C15.762 28.6605 15.7482 28.6653 15.7344 28.6704C15.7206 28.6754 15.7069 28.6805 15.693 28.6854C15.6793 28.6903 15.6655 28.695 15.6517 28.6997L15.6104 28.7137L15.569 28.7272C15.5553 28.7317 15.5414 28.7359 15.5277 28.7401C15.5139 28.7444 15.5002 28.7488 15.4863 28.753C15.4726 28.7571 15.4587 28.7609 15.445 28.7649L15.4036 28.7767L15.3623 28.7879C15.3485 28.7916 15.3347 28.7951 15.3209 28.7987C15.3071 28.8022 15.2934 28.806 15.2796 28.8094C15.2659 28.8128 15.252 28.8158 15.2382 28.8191C15.2245 28.8223 15.2107 28.8256 15.1969 28.8287L15.1555 28.8379L15.1142 28.8465C15.1004 28.8494 15.0867 28.8524 15.0728 28.8552C15.0591 28.8579 15.0453 28.8602 15.0315 28.8627C15.0177 28.8653 15.004 28.8679 14.9902 28.8703L14.9488 28.8775C14.9351 28.8798 14.9213 28.8819 14.9075 28.884C14.8937 28.8862 14.8799 28.8886 14.8661 28.8906C14.8524 28.8927 14.8386 28.8944 14.8248 28.8963L14.7834 28.9018C14.7697 28.9036 14.7559 28.9054 14.7421 28.9071C14.7283 28.9087 14.7145 28.9101 14.7007 28.9116C14.6869 28.9131 14.6732 28.9148 14.6594 28.9162C14.6456 28.9175 14.6318 28.9187 14.618 28.92L14.5767 28.9235C14.5629 28.9246 14.5492 28.926 14.5353 28.927C14.5216 28.928 14.5078 28.9286 14.494 28.9295L14.4527 28.932L14.4113 28.9341C14.3976 28.9347 14.3837 28.9351 14.37 28.9356C14.3562 28.9361 14.3424 28.9367 14.3286 28.9371C14.3149 28.9375 14.301 28.9376 14.2873 28.9379L14.2459 28.9384C14.2332 28.9385 14.2204 28.9388 14.2076 28.9388H14.1632H14.1219H14.0805H14.0392H13.9978H13.9565H13.9151H13.8738H13.8325H13.7911H13.7498H13.7084H13.6671H13.6257H13.5844H13.543H13.5017H13.4603H13.419H13.3776H13.3363H13.295H13.2536H13.2123H13.1709H13.1296H13.0882H13.0469H13.0055H12.9642H12.9228H12.8815H12.8401H12.7988H12.7574H12.7161H12.6748H12.6334H12.5921H12.5507H12.5094H12.468H12.4267H12.3853H12.344H12.3026H12.2613H12.2199H12.1786H12.1372H12.0959H12.0546H12.0132H11.9719H11.9306H11.8892H11.8479H11.8065H11.7652H11.7238H11.6825H11.6411H11.5998H11.5584H11.5171H11.4757H11.4344H11.393H11.3517H11.3104H11.269H11.2277H11.1863H11.145H11.1036H11.0623H11.0209H10.9796H10.9382H10.8969H10.8555H10.8142H10.7729H10.7315H10.6902H10.6488H10.6075H10.5661H10.5248H10.4834H10.4421H10.4007H10.3594H10.318H10.2767H10.2353H10.194H10.1527H10.1113H10.07H10.0286H9.98726H9.94592H9.90456H9.86322H9.82186H9.78052H9.73919H9.69782H9.65649H9.61516H9.57379H9.53246H9.49109H9.44976H9.40843H9.36706H9.32573H9.28436H9.24303H9.20169H9.16033H9.11899H9.07763H9.03629H8.99496H8.95359H8.91226H8.87089H8.82956H8.78823H8.74686H8.70553H8.66416H8.62283H8.58149H8.54013H8.49879H8.45743H8.41609H8.37476H8.33339H8.29206H8.25073H8.20936H8.16803H8.12666H8.08533H8.044H8.00263H7.91382V20.2671C7.91382 20.2671 7.94437 20.2752 8.00263 20.2892L8.044 20.2992L8.08533 20.3088L8.12666 20.3183L8.16803 20.3277L8.20936 20.3369L8.25073 20.346L8.29206 20.355L8.33339 20.3638L8.37476 20.3725L8.41609 20.3811L8.45743 20.3895L8.49879 20.3979L8.54013 20.4062L8.58149 20.4143L8.62283 20.4223L8.66416 20.4302L8.70553 20.4381L8.74686 20.4458L8.78823 20.4534L8.82956 20.461L8.87089 20.4684L8.91226 20.4757L8.95359 20.483L8.99496 20.4901L9.03629 20.4972L9.07763 20.5041L9.11899 20.511L9.16033 20.5178L9.20169 20.5244L9.24303 20.531L9.28436 20.5375L9.32573 20.544L9.36706 20.5503L9.40843 20.5565L9.44976 20.5627L9.49109 20.5688L9.53246 20.5747L9.57379 20.5806L9.61516 20.5864L9.65649 20.5922L9.69782 20.5978L9.73919 20.6033L9.78052 20.6088L9.82186 20.6142L9.86322 20.6194L9.90456 20.6246L9.94592 20.6298L9.98726 20.6348L10.0286 20.6397L10.07 20.6446L10.1113 20.6494L10.1527 20.654L10.194 20.6587L10.2353 20.6632L10.2767 20.6676L10.318 20.672L10.3594 20.6762L10.4007 20.6804L10.4421 20.6845L10.4834 20.6885L10.5248 20.6924L10.5661 20.6963L10.6075 20.7001L10.6488 20.7037L10.6902 20.7073L10.7315 20.7108L10.7729 20.7142L10.8142 20.7175L10.8555 20.7207L10.8969 20.7239L10.9382 20.7269L10.9796 20.7299L11.0209 20.7328L11.0623 20.7356L11.1036 20.7384L11.145 20.7409L11.1863 20.7435L11.2277 20.746L11.269 20.7483L11.3104 20.7507L11.3517 20.7528L11.393 20.7549L11.4344 20.7569L11.4757 20.7588L11.5171 20.7607L11.5584 20.7624L11.5998 20.764L11.6411 20.7657L11.6825 20.7671L11.7238 20.7685L11.7652 20.7698L11.8065 20.771L11.8479 20.7721L11.8892 20.7731L11.9306 20.774L11.9719 20.7749L12.0132 20.7756L12.0546 20.7763L12.0959 20.7769L12.1372 20.7772L12.1786 20.7777L12.2199 20.778L12.2613 20.7781L12.3026 20.7782L12.344 20.7781L12.3853 20.7779L12.4267 20.7776L12.468 20.7774L12.5094 20.7772L12.5507 20.7765L12.5921 20.7757L12.6334 20.775L12.6748 20.7743L12.7161 20.7733L12.7574 20.772L12.7988 20.7708L12.8401 20.7696L12.8815 20.7683L12.9228 20.7665L12.9642 20.7648L13.0055 20.763L13.0469 20.7613L13.0882 20.7591L13.1296 20.7568L13.1709 20.7545L13.2123 20.7522L13.2536 20.7496L13.295 20.7467L13.3363 20.7439L13.3776 20.741L13.419 20.7378L13.4603 20.7344L13.5017 20.731L13.543 20.7275L13.5844 20.7238L13.6257 20.7198L13.6671 20.7158L13.7084 20.7117L13.7498 20.7073L13.7911 20.7027L13.8325 20.698L13.8738 20.6933L13.9151 20.6882L13.9565 20.6829L13.9978 20.6776L14.0392 20.6722C14.0531 20.6703 14.0667 20.6682 14.0805 20.6662L14.1219 20.6603L14.1632 20.6543L14.2046 20.648C14.2185 20.6458 14.2321 20.6435 14.2459 20.6413L14.2873 20.6346C14.301 20.6324 14.315 20.6303 14.3286 20.628C14.3425 20.6256 14.3561 20.6231 14.37 20.6206L14.4113 20.6132L14.4527 20.6058L14.494 20.598C14.5079 20.5954 14.5215 20.5926 14.5353 20.5899L14.5767 20.5817L14.618 20.5734C14.632 20.5706 14.6455 20.5675 14.6594 20.5645L14.7007 20.5555C14.7144 20.5525 14.7285 20.5497 14.7421 20.5466C14.756 20.5435 14.7696 20.5401 14.7834 20.5369L14.8248 20.5272C14.8385 20.5239 14.8525 20.5208 14.8661 20.5174C14.88 20.514 14.8937 20.5105 14.9075 20.507L14.9488 20.4964C14.9626 20.4929 14.9765 20.4894 14.9902 20.4858C15.0041 20.4821 15.0177 20.4783 15.0315 20.4746L15.0728 20.4631C15.0866 20.4592 15.1006 20.4555 15.1142 20.4516L15.1555 20.4394L15.1969 20.427C15.2106 20.4228 15.2246 20.4188 15.2382 20.4145L15.2796 20.4013L15.3209 20.3879C15.3347 20.3834 15.3487 20.379 15.3623 20.3745C15.3762 20.3698 15.3898 20.3649 15.4036 20.3601L15.445 20.3456C15.4587 20.3407 15.4727 20.3359 15.4863 20.331C15.5003 20.3259 15.5139 20.3206 15.5277 20.3154C15.5415 20.3103 15.5554 20.3051 15.569 20.2999L15.6104 20.2838L15.6517 20.2671C15.6654 20.2616 15.6795 20.2562 15.693 20.2505C15.707 20.2447 15.7206 20.2386 15.7344 20.2327L15.7757 20.2149L15.8171 20.1964C15.831 20.1901 15.8447 20.1837 15.8584 20.1773C15.8722 20.1709 15.8862 20.1646 15.8998 20.1581C15.9138 20.1514 15.9273 20.1445 15.9411 20.1377C15.9549 20.1309 15.9689 20.1242 15.9825 20.1173C15.9964 20.1103 16.0101 20.1031 16.0238 20.0959C16.0377 20.0887 16.0515 20.0815 16.0652 20.0742C16.0791 20.0667 16.0928 20.0592 16.1065 20.0517C16.1204 20.044 16.1342 20.0362 16.1479 20.0284C16.1617 20.0205 16.1756 20.0127 16.1892 20.0047C16.2032 19.9965 16.2168 19.9882 16.2306 19.9799C16.2444 19.9716 16.2583 19.9633 16.2719 19.9548C16.2859 19.9461 16.2995 19.9372 16.3132 19.9284C16.3271 19.9194 16.341 19.9106 16.3546 19.9016C16.3686 19.8923 16.3822 19.8829 16.3959 19.8735C16.4098 19.864 16.4237 19.8545 16.4373 19.8449C16.4513 19.835 16.4649 19.8249 16.4786 19.8149C16.4925 19.8047 16.5064 19.7945 16.52 19.7842C16.5339 19.7736 16.5477 19.7629 16.5613 19.7522C16.5753 19.7412 16.589 19.7301 16.6027 19.719C16.6166 19.7077 16.6305 19.6964 16.644 19.6849C16.6581 19.6731 16.6717 19.661 16.6854 19.649C16.6992 19.6368 16.7132 19.6247 16.7267 19.6123C16.7407 19.5995 16.7544 19.5866 16.7681 19.5736C16.782 19.5603 16.7958 19.5469 16.8094 19.5334C16.8233 19.5197 16.8372 19.5059 16.8507 19.492C16.8648 19.4774 16.8784 19.4627 16.8921 19.4479C16.9061 19.4327 16.9199 19.4174 16.9334 19.4021C16.9474 19.3862 16.9613 19.3704 16.9748 19.3543C16.9888 19.3376 17.0026 19.3209 17.0161 19.304C17.0302 19.2863 17.0439 19.2685 17.0575 19.2506C17.0716 19.232 17.0853 19.2132 17.0988 19.1943C17.1129 19.1746 17.1267 19.1548 17.1402 19.1348C17.1543 19.1139 17.1681 19.0928 17.1815 19.0715C17.1956 19.049 17.2095 19.0265 17.2229 19.0037C17.2371 18.9796 17.2508 18.9553 17.2642 18.9308C17.2785 18.9046 17.2922 18.8782 17.3056 18.8517C17.3199 18.8231 17.3336 18.7943 17.3469 18.7653C17.3613 18.7337 17.3751 18.702 17.3883 18.67C17.4028 18.6346 17.4166 18.599 17.4296 18.5631C17.4444 18.5224 17.4581 18.4812 17.4709 18.4397C17.486 18.3912 17.4997 18.3421 17.5123 18.2927C17.5279 18.2313 17.5417 18.1692 17.5536 18.1064C17.5713 18.013 17.585 17.918 17.595 17.8218C17.6089 17.6877 17.6156 17.5512 17.6156 17.4125V12.6382H17.5536H17.5123H17.4709H17.4296H17.3883H17.3469H17.3056H17.2642H17.2229H17.1815H17.1402H17.0988H17.0575H17.0161H16.9748H16.9334H16.8921H16.8507H16.8094H16.7681H16.7267H16.6854H16.644H16.6027H16.5613H16.52H16.4786H16.4373H16.3959H16.3546H16.3132H16.2719H16.2306H16.1892H16.1479H16.1065H16.0652H16.0238H15.9825H15.9411H15.8998H15.8584H15.8171H15.7757H15.7344H15.693H15.6517H15.6104H15.569H15.5277H15.4863H15.445H15.4036H15.3623H15.3209H15.2796H15.2382H15.1969H15.1555H15.1142H15.0728H15.0315H14.9902H14.9488H14.9075H14.8661H14.8248H14.7834H14.7421H14.7007H14.6594H14.618H14.5767H14.5353H14.494H14.4527H14.4113H14.37H14.3286H14.2873H14.2459H14.2046H14.1632H14.1219H14.0805H14.0392H13.9978H13.9565L13.9252 17.4125C13.9252 17.4872 13.9218 17.5607 13.9151 17.6329C13.9067 17.7247 13.8929 17.8143 13.8738 17.9014C13.862 17.9552 13.8482 18.008 13.8325 18.0598C13.8199 18.1011 13.8062 18.1417 13.7911 18.1816C13.7783 18.2156 13.7644 18.2491 13.7498 18.2821C13.7367 18.3115 13.7229 18.3405 13.7084 18.369C13.6952 18.395 13.6815 18.4207 13.6671 18.446C13.6538 18.4692 13.64 18.492 13.6257 18.5146C13.6124 18.5358 13.5986 18.5568 13.5844 18.5774C13.571 18.5968 13.5572 18.6159 13.543 18.6347C13.5296 18.6527 13.5159 18.6705 13.5017 18.6879C13.4883 18.7045 13.4744 18.7208 13.4603 18.7369C13.4469 18.7524 13.4331 18.7676 13.419 18.7826C13.4055 18.7971 13.3917 18.8114 13.3776 18.8255C13.3641 18.839 13.3504 18.8525 13.3363 18.8657C13.3228 18.8784 13.309 18.891 13.295 18.9034C13.2814 18.9154 13.2676 18.9272 13.2536 18.9388C13.2401 18.9501 13.2263 18.9613 13.2123 18.9722C13.1987 18.9829 13.1849 18.9934 13.1709 19.0038C13.1573 19.0138 13.1435 19.0238 13.1296 19.0336C13.116 19.0431 13.1022 19.0525 13.0882 19.0618C13.0746 19.0708 13.0609 19.0797 13.0469 19.0885C13.0333 19.0971 13.0195 19.1055 13.0055 19.1138C12.9919 19.1219 12.9781 19.1299 12.9642 19.1377C12.9506 19.1454 12.9368 19.1529 12.9228 19.1603C12.9092 19.1676 12.8954 19.1747 12.8815 19.1817C12.8679 19.1886 12.8541 19.1954 12.8401 19.202C12.8265 19.2085 12.8127 19.2149 12.7988 19.2213C12.7851 19.2275 12.7714 19.2336 12.7574 19.2396C12.7438 19.2454 12.73 19.2512 12.7161 19.2569C12.7025 19.2624 12.6887 19.2677 12.6748 19.273C12.6611 19.2783 12.6473 19.2834 12.6334 19.2884C12.6197 19.2933 12.606 19.2981 12.5921 19.3029C12.5784 19.3075 12.5646 19.3122 12.5507 19.3166C12.5371 19.321 12.5233 19.3253 12.5094 19.3295C12.4957 19.3336 12.4819 19.3375 12.468 19.3415C12.4544 19.3453 12.4406 19.3492 12.4267 19.3528C12.413 19.3564 12.3992 19.3601 12.3853 19.3635C12.3717 19.3669 12.3579 19.3702 12.344 19.3733C12.3303 19.3765 12.3165 19.3795 12.3026 19.3825C12.289 19.3854 12.2752 19.3883 12.2613 19.3911C12.2476 19.3938 12.2339 19.3965 12.2199 19.399C12.2063 19.4015 12.1925 19.4039 12.1786 19.4062C12.1649 19.4085 12.1511 19.4108 12.1372 19.4129L12.0959 19.419C12.0822 19.4209 12.0684 19.4227 12.0546 19.4244C12.0409 19.4261 12.0271 19.4279 12.0132 19.4294L11.9719 19.4338C11.9582 19.4352 11.9444 19.4364 11.9306 19.4376C11.9168 19.4388 11.9031 19.44 11.8892 19.441C11.8755 19.442 11.8617 19.4429 11.8479 19.4438C11.8341 19.4446 11.8203 19.4453 11.8065 19.446C11.7927 19.4467 11.779 19.4474 11.7652 19.4479C11.7515 19.4485 11.7376 19.4488 11.7238 19.4492L11.6825 19.4501C11.6688 19.4503 11.655 19.4504 11.6411 19.4505L11.5998 19.4505L11.5584 19.4502L11.5171 19.4497L11.4757 19.4489L11.4344 19.4478L11.393 19.4465L11.3517 19.4449L11.3104 19.4431L11.269 19.4411L11.2277 19.4387L11.1863 19.4361L11.145 19.4333L11.1036 19.4302L11.0623 19.4269L11.0209 19.4234L10.9796 19.4196L10.9382 19.4155L10.8969 19.4112L10.8555 19.4067L10.8142 19.4019L10.7729 19.3969L10.7315 19.3917L10.6902 19.3861L10.6488 19.3804L10.6075 19.3744L10.5661 19.3682L10.5248 19.3618L10.4834 19.3551L10.4421 19.3483L10.4007 19.3411L10.3594 19.3337L10.318 19.3262L10.2767 19.3184L10.2353 19.3103L10.194 19.3021L10.1527 19.2936L10.1113 19.2849L10.07 19.2759L10.0286 19.2668L9.98726 19.2574L9.94592 19.2478L9.90456 19.238L9.86322 19.228L9.82186 19.2177L9.78052 19.2072L9.73919 19.1966L9.69782 19.1857L9.65649 19.1746L9.61516 19.1633L9.57379 19.1518L9.53246 19.14L9.49109 19.128L9.44976 19.1159L9.40843 19.1036L9.36706 19.091L9.32573 19.0782L9.28436 19.0653L9.24303 19.0521L9.20169 19.0387L9.16033 19.0251L9.11899 19.0114L9.07763 18.9974L9.03629 18.9832L8.99496 18.969L8.95359 18.9543L8.91226 18.9396L8.87089 18.9247L8.82956 18.9095L8.78823 18.8942L8.74686 18.8787L8.70553 18.863L8.66416 18.8471L8.62283 18.831L8.58149 18.8148L8.54013 18.7983L8.49879 18.7817L8.45743 18.7649L8.41609 18.7479L8.37476 18.7307L8.33339 18.7133L8.29206 18.6958L8.25073 18.6781L8.20936 18.6603L8.16803 18.6422L8.12666 18.6239L8.08533 18.6055L8.044 18.587L8.00263 18.5682C7.973 18.5547 7.94341 18.5411 7.91382 18.5274Z" fill="#006CB9"/>
<path fill-rule="evenodd" clip-rule="evenodd" d="M19.8749 13.6814C19.8448 13.7048 19.8151 13.7284 19.7861 13.7522V8.36511C19.7861 8.07863 19.8168 7.799 19.8749 7.52898C19.8874 7.47101 19.9012 7.41357 19.9162 7.35652C19.9291 7.30757 19.943 7.25902 19.9576 7.2108C19.9707 7.16784 19.9845 7.12518 19.999 7.08281C20.0122 7.0441 20.0259 7.00559 20.0403 6.9674C20.0536 6.93202 20.0674 6.8968 20.0817 6.86187C20.0951 6.82922 20.1088 6.79673 20.123 6.76447C20.1364 6.73405 20.1502 6.70383 20.1643 6.67378C20.1778 6.64524 20.1916 6.6169 20.2057 6.58872C20.2192 6.5618 20.233 6.53513 20.247 6.50854C20.2605 6.48299 20.2744 6.45764 20.2884 6.4324C20.3019 6.40807 20.3157 6.38391 20.3297 6.35988C20.3433 6.33661 20.3571 6.31343 20.3711 6.29046C20.3847 6.26814 20.3984 6.24592 20.4124 6.22386C20.426 6.20257 20.4398 6.1814 20.4538 6.16037C20.4674 6.13989 20.4812 6.11965 20.4951 6.09944C20.5088 6.07965 20.5225 6.06 20.5365 6.04048C20.5502 6.02132 20.5638 6.00217 20.5778 5.98327C20.5914 5.96497 20.6053 5.94696 20.6192 5.92892C20.6328 5.91115 20.6466 5.89347 20.6605 5.87593C20.6742 5.85864 20.6879 5.84133 20.7019 5.82428C20.7154 5.80772 20.7294 5.79139 20.7432 5.77503C20.7569 5.75887 20.7707 5.74278 20.7846 5.72684C20.7983 5.71111 20.812 5.69544 20.8259 5.67994C20.8396 5.66479 20.8534 5.64985 20.8673 5.6349C20.881 5.62009 20.8947 5.60521 20.9086 5.59056C20.9223 5.57625 20.9361 5.56209 20.9499 5.54797C20.9636 5.53401 20.9774 5.52015 20.9913 5.50636C21.005 5.49277 21.0187 5.47917 21.0326 5.46574C21.0463 5.45257 21.0601 5.43957 21.074 5.42657C21.0877 5.41363 21.1014 5.4006 21.1153 5.38783C21.129 5.37535 21.1429 5.36317 21.1567 5.35086C21.1704 5.33858 21.1841 5.32627 21.198 5.31419C21.2117 5.30234 21.2256 5.29069 21.2394 5.279C21.2531 5.26735 21.2668 5.25573 21.2807 5.24427C21.2944 5.23298 21.3082 5.22189 21.3221 5.21076C21.3358 5.19974 21.3496 5.18871 21.3634 5.17781C21.3771 5.16708 21.3909 5.15645 21.4048 5.14588C21.4185 5.13538 21.4323 5.12495 21.4461 5.11461C21.4598 5.10441 21.4736 5.0943 21.4875 5.08423C21.5012 5.07425 21.515 5.06431 21.5288 5.0545C21.5425 5.04476 21.5563 5.03515 21.5702 5.02557C21.5839 5.01609 21.5977 5.00661 21.6115 4.99726C21.6252 4.98801 21.639 4.97889 21.6529 4.96977C21.6666 4.96072 21.6804 4.9517 21.6942 4.94281C21.7079 4.93403 21.7217 4.92537 21.7356 4.91671C21.7493 4.90809 21.763 4.89946 21.7769 4.891C21.7906 4.88264 21.8044 4.87448 21.8183 4.86625C21.832 4.85805 21.8457 4.84976 21.8596 4.84172C21.8733 4.83376 21.8872 4.82606 21.901 4.81825C21.9148 4.81045 21.9284 4.80249 21.9423 4.79485C21.956 4.78731 21.9699 4.78007 21.9837 4.77266C21.9975 4.76526 22.0111 4.75779 22.025 4.75054C22.0387 4.74337 22.0525 4.73645 22.0663 4.72941C22.0801 4.7224 22.0938 4.71535 22.1077 4.70847L22.149 4.6883L22.1904 4.66858C22.2041 4.66213 22.2179 4.65561 22.2317 4.64929C22.2455 4.643 22.2593 4.63691 22.2731 4.63076C22.2869 4.62463 22.3006 4.61831 22.3144 4.61232C22.3281 4.60636 22.342 4.60077 22.3558 4.59498C22.3696 4.58918 22.3833 4.58329 22.3971 4.57763C22.4109 4.57203 22.4247 4.5666 22.4385 4.56114L22.4798 4.54494C22.4936 4.53964 22.5073 4.53434 22.5212 4.52917C22.5349 4.52404 22.5487 4.5191 22.5625 4.5141C22.5763 4.50909 22.59 4.50393 22.6039 4.49905C22.6176 4.49425 22.6315 4.48977 22.6452 4.4851C22.659 4.48042 22.6727 4.47568 22.6866 4.47114C22.7003 4.4666 22.7141 4.46225 22.7279 4.45787L22.7693 4.445C22.783 4.44079 22.7968 4.43648 22.8106 4.43236C22.8243 4.42831 22.8382 4.4245 22.852 4.42058C22.8657 4.41663 22.8795 4.41258 22.8933 4.40876C22.9071 4.40498 22.9209 4.40145 22.9347 4.3978L22.976 4.38704C22.9898 4.38355 23.0035 4.37999 23.0174 4.37663C23.0311 4.37331 23.0449 4.37018 23.0587 4.36696C23.0725 4.36373 23.0862 4.36037 23.1001 4.35728C23.1138 4.35422 23.1276 4.35135 23.1414 4.34842L23.1828 4.3398C23.1966 4.337 23.2103 4.3341 23.2241 4.33144C23.2378 4.32877 23.2517 4.32637 23.2655 4.32383C23.2792 4.3213 23.293 4.31863 23.3068 4.31623L23.3482 4.30938L23.3895 4.30283C23.4033 4.30069 23.417 4.29842 23.4309 4.29641C23.4446 4.29441 23.4584 4.29273 23.4722 4.29085C23.486 4.28901 23.4997 4.28707 23.5135 4.28532L23.5549 4.28035L23.5962 4.27581C23.61 4.27433 23.6238 4.27261 23.6376 4.27126C23.6513 4.26992 23.6652 4.26893 23.6789 4.26771L23.7203 4.26422C23.7341 4.2631 23.7478 4.26201 23.7616 4.26106C23.7754 4.26011 23.7892 4.25935 23.803 4.25853C23.8168 4.2577 23.8305 4.25675 23.8443 4.25602C23.8581 4.2553 23.8719 4.25481 23.8857 4.25421L23.927 4.2527C23.9408 4.25224 23.9546 4.25155 23.9684 4.25122C23.9821 4.25089 23.996 4.25092 24.0097 4.25072C24.0235 4.25053 24.0373 4.2503 24.0511 4.25023L24.0693 4.25H24.0924H24.1338H24.1751H24.2165H24.2578H24.2992H24.3405H24.3819H24.4232H24.4646H24.5059H24.5473H24.5886H24.63H24.6713H24.7127H24.754H24.7954H24.8367H24.878H24.9194H24.9607H25.0021H25.0434H25.0848H25.1262H25.1675H25.2089H25.2502H25.2915H25.3329H25.3742H25.4156H25.4569H25.4983H25.5396H25.581H25.6223H25.6637H25.705H25.7464H25.7877H25.8291H25.8704H25.9118H25.9531H25.9945H26.0358H26.0772H26.1185H26.1599H26.2012H26.2426H26.2839H26.3252H26.3666H26.408H26.4493H26.4907H26.532H26.5734H26.6147H26.656H26.6974H26.7387H26.7801H26.8214H26.8628H26.9041H26.9455H26.9868H27.0282H27.0695H27.1109H27.1522H27.1936H27.2349H27.2763H27.3176H27.359H27.4003H27.4417H27.483H27.5244H27.5657H27.6071H27.6484H27.6898H27.7311H27.7725H27.8138H27.8552H27.8965H27.9379H27.9792H28.0206H28.0619H28.1032H28.1446H28.1859H28.2273H28.2686H28.31H28.3513H28.3927H28.434H28.4754H28.5167H28.5581H28.5994H28.6408H28.6821H28.7235H28.7648H28.8062H28.8475H28.8889H28.9302H28.9716H29.0129H29.0543H29.0956H29.137H29.1783H29.2197H29.261H29.3024H29.3437H29.385H29.4264H29.4677H29.5091H29.5504H29.5918H29.6331H29.6745H29.7158H29.7572H29.7985H29.8398H29.8812H29.9225H29.9639H30.0052H30.0466H30.0879H30.1293H30.1706H30.212H30.2533H30.2947H30.336H30.3711V24.8241C30.3711 25.003 30.3592 25.1791 30.336 25.352C30.3249 25.4353 30.311 25.5176 30.2947 25.5992C30.2824 25.6613 30.2686 25.723 30.2533 25.7841C30.2405 25.8355 30.2268 25.8867 30.212 25.9374C30.199 25.9818 30.1852 26.026 30.1706 26.0698C30.1575 26.1095 30.1437 26.1489 30.1293 26.1881C30.116 26.2243 30.1022 26.2603 30.0879 26.2961C30.0746 26.3295 30.0609 26.3627 30.0466 26.3956C30.0332 26.4267 30.0194 26.4576 30.0052 26.4883C29.9918 26.5174 29.978 26.5463 29.9639 26.575C29.9504 26.6025 29.9367 26.6297 29.9225 26.6568C29.9091 26.6828 29.8953 26.7087 29.8812 26.7343C29.8677 26.7591 29.8539 26.7837 29.8398 26.8081C29.8263 26.8318 29.8126 26.8553 29.7985 26.8786C29.785 26.9011 29.7712 26.9235 29.7572 26.9457C29.7436 26.9673 29.7298 26.9885 29.7158 27.0098C29.7022 27.0306 29.6885 27.0512 29.6745 27.0717C29.6608 27.0917 29.6472 27.1118 29.6331 27.1316C29.6195 27.1508 29.6057 27.1698 29.5918 27.1888C29.5782 27.2073 29.5644 27.2257 29.5504 27.244C29.5368 27.262 29.523 27.28 29.5091 27.2978C29.4955 27.3151 29.4817 27.3323 29.4677 27.3495C29.4541 27.3662 29.4403 27.3829 29.4264 27.3994C29.4127 27.4158 29.399 27.4321 29.385 27.4483C29.3714 27.464 29.3576 27.4796 29.3437 27.4952C29.33 27.5106 29.3163 27.5257 29.3024 27.5409C29.2886 27.5558 29.2749 27.5708 29.261 27.5856C29.2474 27.6 29.2335 27.6141 29.2197 27.6284C29.2059 27.6425 29.1922 27.6567 29.1783 27.6707C29.1646 27.6843 29.1508 27.6978 29.137 27.7112C29.1233 27.7246 29.1095 27.7378 29.0956 27.7509C29.0819 27.764 29.0682 27.7769 29.0543 27.7897C29.0406 27.8023 29.0268 27.8147 29.0129 27.8272C28.9992 27.8395 28.9855 27.852 28.9716 27.8642C28.9579 27.8761 28.944 27.8878 28.9302 27.8996C28.9164 27.9114 28.9028 27.9232 28.8889 27.9348C28.8752 27.9461 28.8613 27.9572 28.8475 27.9683C28.8337 27.9795 28.8201 27.9908 28.8062 28.0017C28.7925 28.0125 28.7786 28.023 28.7648 28.0336C28.7511 28.0442 28.7374 28.0549 28.7235 28.0654C28.7098 28.0756 28.6959 28.0857 28.6821 28.0958C28.6684 28.1058 28.6547 28.116 28.6408 28.1259C28.6271 28.1357 28.6132 28.1452 28.5994 28.1548C28.5857 28.1644 28.572 28.1741 28.5581 28.1836C28.5444 28.1928 28.5305 28.2019 28.5167 28.211C28.503 28.2202 28.4893 28.2294 28.4754 28.2384C28.4617 28.2472 28.4478 28.2558 28.434 28.2645C28.4203 28.2732 28.4066 28.2821 28.3927 28.2906C28.379 28.299 28.3651 28.3071 28.3513 28.3154C28.3376 28.3236 28.3239 28.332 28.31 28.3401C28.2963 28.3481 28.2824 28.3558 28.2686 28.3637C28.2549 28.3715 28.2411 28.3794 28.2273 28.3871C28.2136 28.3948 28.1998 28.4022 28.1859 28.4097L28.1446 28.4318L28.1032 28.4533L28.0619 28.4742C28.0481 28.4811 28.0344 28.488 28.0206 28.4948C28.0068 28.5015 27.993 28.508 27.9792 28.5145C27.9654 28.5211 27.9517 28.5277 27.9379 28.5341C27.9242 28.5404 27.9103 28.5465 27.8965 28.5527C27.8827 28.5588 27.869 28.5652 27.8552 28.5712C27.8414 28.5772 27.8276 28.5829 27.8138 28.5888L27.7725 28.6061L27.7311 28.6229L27.6898 28.6392C27.676 28.6445 27.6622 28.65 27.6484 28.6552C27.6347 28.6604 27.6208 28.6652 27.6071 28.6703C27.5933 28.6753 27.5796 28.6804 27.5657 28.6853C27.552 28.6902 27.5382 28.6949 27.5244 28.6996L27.483 28.7136L27.4417 28.7272C27.4279 28.7316 27.4141 28.7357 27.4003 28.74C27.3865 28.7443 27.3728 28.7488 27.359 28.7529C27.3453 28.757 27.3314 28.7608 27.3176 28.7648L27.2763 28.7766L27.2349 28.7879C27.2212 28.7915 27.2074 28.7951 27.1936 28.7986C27.1798 28.8021 27.1661 28.8059 27.1522 28.8093C27.1385 28.8127 27.1247 28.8157 27.1109 28.819C27.0971 28.8223 27.0833 28.8255 27.0695 28.8287L27.0282 28.8378L26.9868 28.8464C26.973 28.8493 26.9593 28.8523 26.9455 28.8551C26.9318 28.8578 26.9179 28.8601 26.9041 28.8627L26.8628 28.8703L26.8214 28.8774C26.8077 28.8797 26.7939 28.8818 26.7801 28.884C26.7663 28.8862 26.7526 28.8885 26.7387 28.8906C26.725 28.8926 26.7112 28.8943 26.6974 28.8962L26.656 28.9018C26.6423 28.9036 26.6285 28.9054 26.6147 28.907C26.601 28.9087 26.5871 28.9101 26.5734 28.9116C26.5596 28.9131 26.5458 28.9147 26.532 28.9161C26.5183 28.9175 26.5045 28.9187 26.4907 28.92L26.4493 28.9235C26.4355 28.9246 26.4218 28.926 26.408 28.927C26.3942 28.9279 26.3804 28.9286 26.3666 28.9295L26.3252 28.932L26.2839 28.9341C26.2702 28.9347 26.2563 28.9351 26.2426 28.9356C26.2288 28.9361 26.215 28.9367 26.2012 28.9371C26.1875 28.9375 26.1737 28.9376 26.1599 28.9379L26.1185 28.9384C26.1056 28.9385 26.0928 28.9388 26.0799 28.9388H26.0772H26.0358H25.9945H25.9531H25.9118H25.8704H25.8291H25.7877H25.7464H25.705H25.6637H25.6223H25.581H25.5396H25.4983H25.4569H25.4156H25.3742H25.3329H25.2915H25.2502H25.2089H25.1675H25.1262H25.0848H25.0434H25.0021H24.9607H24.9194H24.878H24.8367H24.7954H24.754H24.7127H24.6713H24.63H24.5886H24.5473H24.5059H24.4646H24.4232H24.3819H24.3405H24.2992H24.2578H24.2165H24.1751H24.1338H24.0924H24.0511H24.0097H23.9684H23.927H23.8857H23.8443H23.803H23.7616H23.7203H23.6789H23.6376H23.5962H23.5549H23.5135H23.4722H23.4309H23.3895H23.3482H23.3068H23.2655H23.2241H23.1828H23.1414H23.1001H23.0587H23.0174H22.976H22.9347H22.8933H22.852H22.8106H22.7693H22.7279H22.6866H22.6452H22.6039H22.5625H22.5212H22.4798H22.4385H22.3971H22.3558H22.3144H22.2731H22.2317H22.1904H22.149H22.1077H22.0663H22.025H21.9837H21.9423H21.901H21.8596H21.8183H21.7769H21.7356H21.6942H21.6529H21.6115H21.5702H21.5288H21.4875H21.4461H21.4048H21.3634H21.3221H21.2807H21.2394H21.198H21.1567H21.1153H21.074H21.0326H20.9913H20.9499H20.9086H20.8673H20.8259H20.7846H20.7432H20.7019H20.6605H20.6192H20.5778H20.5365H20.4951H20.4538H20.4124H20.3711H20.3297H20.2884H20.247H20.2057H20.1643H20.123H20.0817H20.0403H19.999H19.9576H19.9162H19.8749H19.7861V19.4383C19.8151 19.4621 19.8448 19.4856 19.8749 19.509C19.8886 19.5196 19.9024 19.5301 19.9162 19.5406C19.9299 19.5509 19.9437 19.5612 19.9576 19.5715C19.9713 19.5816 19.985 19.5916 19.999 19.6016C20.0126 19.6114 20.0265 19.6211 20.0403 19.6307C20.054 19.6403 20.0678 19.6498 20.0817 19.6592C20.0954 19.6686 20.1091 19.6779 20.123 19.6871L20.1643 19.7143C20.178 19.7231 20.1918 19.7319 20.2057 19.7407L20.247 19.7665C20.2607 19.775 20.2745 19.7835 20.2884 19.7919C20.302 19.8001 20.3159 19.8083 20.3297 19.8165L20.3711 19.8406C20.3848 19.8485 20.3986 19.8564 20.4124 19.8642C20.4261 19.8719 20.4399 19.8795 20.4538 19.8871L20.4951 19.9096L20.5365 19.9316L20.5778 19.953C20.5916 19.9601 20.6053 19.9672 20.6192 19.9742C20.6328 19.981 20.6467 19.9878 20.6605 19.9946L20.7019 20.0147L20.7432 20.0344L20.7846 20.0536C20.7983 20.0599 20.812 20.0663 20.8259 20.0726L20.8673 20.0909L20.9086 20.109L20.9499 20.1265L20.9913 20.1439L21.0326 20.1608L21.074 20.1773L21.1153 20.1936L21.1567 20.2094L21.198 20.225L21.2394 20.2401C21.2531 20.2451 21.2668 20.2502 21.2807 20.2551L21.3221 20.2696C21.3358 20.2744 21.3495 20.2793 21.3634 20.284C21.3771 20.2887 21.391 20.2932 21.4048 20.2978L21.4461 20.3116L21.4875 20.3249C21.5012 20.3293 21.5149 20.3338 21.5288 20.3382C21.5425 20.3425 21.5564 20.3466 21.5702 20.3509L21.6115 20.3636L21.6529 20.3758L21.6942 20.3879L21.7356 20.3996L21.7769 20.4112L21.8183 20.4224L21.8596 20.4335L21.901 20.4443L21.9423 20.4549L21.9837 20.4653L22.025 20.4754L22.0663 20.4853L22.1077 20.4949L22.149 20.5046L22.1904 20.5137L22.2317 20.5228L22.2731 20.5316L22.3144 20.5403L22.3558 20.5488L22.3971 20.557L22.4385 20.5652L22.4798 20.5729L22.5212 20.5807L22.5625 20.5882L22.6039 20.5955L22.6452 20.6027L22.6866 20.6096L22.7279 20.6164L22.7693 20.6231L22.8106 20.6295L22.852 20.6359L22.8933 20.6419L22.9347 20.648L22.976 20.6538L23.0174 20.6594L23.0587 20.665L23.1001 20.6702L23.1414 20.6755L23.1828 20.6805L23.2241 20.6854L23.2655 20.6902L23.3068 20.6948L23.3482 20.6992L23.3895 20.7037L23.4309 20.7078L23.4722 20.7118L23.5135 20.7158L23.5549 20.7195L23.5962 20.7232L23.6376 20.7267L23.6789 20.7301L23.7203 20.7334L23.7616 20.7365L23.803 20.7395L23.8443 20.7425L23.8857 20.7452L23.927 20.7479L23.9684 20.7505L24.0097 20.7528L24.0511 20.7551L24.0924 20.7574L24.1338 20.7593L24.1751 20.7613L24.2165 20.7632L24.2578 20.7648L24.2992 20.7665L24.3405 20.7681L24.3819 20.7694L24.4232 20.7707L24.4646 20.772L24.5059 20.773L24.5473 20.774L24.5886 20.7749L24.63 20.7756L24.6713 20.7763L24.7127 20.777L24.754 20.7774L24.7954 20.7777L24.8367 20.7781L24.878 20.7783L24.9194 20.7783L24.9607 20.7784L25.0021 20.7783L25.0434 20.7781L25.0848 20.7778L25.1262 20.7775L25.1675 20.777L25.2089 20.7765L25.2502 20.7759L25.2915 20.7751L25.3329 20.7743L25.3742 20.7735L25.4156 20.7725L25.4569 20.7714L25.4983 20.7703L25.5396 20.7691L25.581 20.7677L25.6223 20.7664L25.6637 20.765L25.705 20.7633L25.7464 20.7617L25.7877 20.76L25.8079 20.7592L25.8291 20.7582L25.8704 20.7563L25.9118 20.7542L25.9531 20.752L25.9945 20.7496L26.0358 20.7472L26.0772 20.7445L26.1185 20.7418L26.1599 20.7389L26.2012 20.7359L26.2426 20.7328L26.2839 20.7296L26.3252 20.7262L26.3666 20.7227L26.408 20.7191L26.4493 20.7153L26.4907 20.7115L26.532 20.7076L26.5734 20.7036L26.6147 20.6994L26.656 20.6951L26.6974 20.6907L26.7387 20.6863L26.7801 20.6817L26.8214 20.677L26.8628 20.6722L26.9041 20.6674L26.9455 20.6624L26.9868 20.6573L27.0282 20.6522L27.0695 20.6469L27.1109 20.6416L27.1522 20.6362L27.1936 20.6306L27.2349 20.625L27.2763 20.6193L27.3176 20.6135L27.359 20.6076L27.4003 20.6017L27.4417 20.5956L27.483 20.5895L27.5244 20.5833L27.5657 20.5769L27.6071 20.5706L27.6484 20.5641L27.6898 20.5576L27.7311 20.5509L27.7725 20.5442L27.8138 20.5374L27.8552 20.5306L27.8965 20.5236L27.9379 20.5166L27.9792 20.5095L28.0206 20.5023L28.0619 20.495L28.1032 20.4877L28.1446 20.4803L28.1859 20.4728L28.2273 20.4652L28.2686 20.4576L28.31 20.4498L28.3513 20.442L28.3927 20.4341L28.434 20.4262L28.4754 20.4182L28.5167 20.41L28.5581 20.4018L28.5994 20.3935L28.6408 20.3852L28.6821 20.3767L28.7235 20.3682L28.7648 20.3596L28.8062 20.3509L28.8475 20.3421L28.8889 20.3333L28.9302 20.3243L28.9716 20.3152L29.0129 20.306L29.0543 20.2967L29.0956 20.2873L29.137 20.2777L29.1781 20.268V18.5274L29.137 18.547L29.0956 18.5666L29.0543 18.586L29.0129 18.6052L28.9716 18.6243L28.9302 18.6431L28.8889 18.6618L28.8475 18.6803L28.8062 18.6985L28.7648 18.7166L28.7235 18.7345L28.6821 18.7522L28.6408 18.7697L28.5994 18.7869L28.5581 18.804L28.5167 18.8209L28.4754 18.8375L28.434 18.854L28.3927 18.8702L28.3513 18.8862L28.31 18.902L28.2686 18.9176L28.2273 18.9329L28.1859 18.948L28.1446 18.9629L28.1032 18.9776L28.0619 18.992L28.0206 19.0063L27.9792 19.0203L27.9379 19.0341L27.8965 19.0476L27.8552 19.061L27.8138 19.0741L27.7725 19.087L27.7311 19.0996L27.6898 19.1121L27.6484 19.1243L27.6071 19.1362L27.5657 19.148L27.5244 19.1596L27.483 19.1709L27.4417 19.1819L27.4003 19.1928L27.359 19.2034L27.3176 19.2138L27.2763 19.224L27.2349 19.2339L27.1936 19.2436L27.1522 19.2532L27.1109 19.2625L27.0695 19.2715L27.0282 19.2803L26.9868 19.2889L26.9455 19.2973L26.9041 19.3055L26.8628 19.3134L26.8214 19.3212L26.7801 19.3287L26.7387 19.336L26.6974 19.343L26.656 19.3499L26.6147 19.3565L26.5734 19.3629L26.532 19.3692L26.4907 19.3751L26.4493 19.3809L26.408 19.3865L26.3666 19.3918L26.3252 19.3969L26.2839 19.4019L26.2426 19.4066L26.2012 19.4111L26.1599 19.4154L26.1185 19.4195L26.0772 19.4233L26.0358 19.427L25.9945 19.4305L25.9531 19.4337L25.928 19.4356L25.9118 19.4367L25.8704 19.4393L25.8291 19.4419L25.7877 19.4441L25.7464 19.4461L25.705 19.4479L25.6637 19.4492L25.6223 19.4505L25.581 19.4514L25.5396 19.452L25.4983 19.4525C25.4844 19.4525 25.4707 19.4524 25.4569 19.4523L25.4156 19.4522L25.3742 19.4516L25.3329 19.4507L25.2915 19.4497C25.2777 19.4493 25.264 19.4486 25.2502 19.4481C25.2364 19.4476 25.2226 19.4472 25.2089 19.4465L25.1675 19.4443L25.1262 19.4419L25.0848 19.4392L25.0434 19.436C25.0297 19.4349 25.0158 19.434 25.0021 19.4328C24.9882 19.4316 24.9745 19.4301 24.9607 19.4288L24.9194 19.4248L24.878 19.4202L24.8367 19.4154L24.7954 19.4102L24.754 19.4046C24.7402 19.4026 24.7264 19.4007 24.7127 19.3987C24.6988 19.3966 24.6851 19.3943 24.6713 19.3921C24.6575 19.3899 24.6436 19.3879 24.63 19.3855C24.6161 19.3832 24.6024 19.3806 24.5886 19.3781C24.5748 19.3756 24.5609 19.3733 24.5473 19.3707C24.5334 19.368 24.5197 19.3652 24.5059 19.3624C24.4921 19.3596 24.4783 19.357 24.4646 19.3541C24.4507 19.3511 24.437 19.348 24.4232 19.3449L24.3819 19.3356C24.368 19.3324 24.3543 19.329 24.3405 19.3256C24.3267 19.3222 24.3129 19.3189 24.2992 19.3153C24.2853 19.3118 24.2716 19.3081 24.2578 19.3044C24.244 19.3007 24.2302 19.2969 24.2165 19.2931C24.2026 19.2891 24.1889 19.2851 24.1751 19.281C24.1613 19.277 24.1475 19.2729 24.1338 19.2687C24.1199 19.2644 24.1062 19.26 24.0924 19.2556C24.0786 19.2511 24.0648 19.2467 24.0511 19.2421C24.0372 19.2375 24.0235 19.2326 24.0097 19.2278C23.9959 19.223 23.9821 19.2182 23.9684 19.2132C23.9545 19.2082 23.9408 19.2029 23.927 19.1977C23.9132 19.1924 23.8994 19.1873 23.8857 19.1819C23.8718 19.1764 23.8581 19.1706 23.8443 19.165C23.8305 19.1593 23.8166 19.1537 23.803 19.1478C23.7891 19.1418 23.7754 19.1357 23.7616 19.1295C23.7478 19.1233 23.734 19.1172 23.7203 19.1108C23.7064 19.1044 23.6926 19.0978 23.6789 19.0912C23.6651 19.0845 23.6513 19.0777 23.6376 19.0708C23.6238 19.0639 23.6099 19.057 23.5962 19.0498C23.5823 19.0426 23.5686 19.0351 23.5549 19.0276C23.5411 19.02 23.5272 19.0125 23.5135 19.0048C23.4996 18.9969 23.4859 18.9889 23.4722 18.9809C23.4583 18.9727 23.4446 18.9643 23.4309 18.956C23.417 18.9475 23.4031 18.9391 23.3895 18.9304C23.3755 18.9216 23.3619 18.9124 23.3482 18.9033C23.3343 18.894 23.3205 18.8847 23.3068 18.8752C23.2929 18.8657 23.2791 18.8561 23.2655 18.8463C23.2515 18.8362 23.2378 18.8259 23.2241 18.8156C23.2102 18.8051 23.1964 18.7946 23.1828 18.7839C23.1689 18.773 23.155 18.7622 23.1414 18.751C23.1274 18.7396 23.1137 18.7279 23.1001 18.7162C23.0861 18.7042 23.0724 18.6921 23.0587 18.6798C23.0448 18.6674 23.031 18.6548 23.0174 18.6421C23.0035 18.629 22.9896 18.616 22.976 18.6027C22.962 18.5889 22.9483 18.5748 22.9347 18.5607C22.9207 18.5463 22.9069 18.5316 22.8933 18.5169C22.8793 18.5017 22.8655 18.4863 22.852 18.4708C22.838 18.4548 22.8242 18.4386 22.8106 18.4222C22.7966 18.4053 22.7828 18.3882 22.7693 18.3709C22.7553 18.353 22.7414 18.3349 22.7279 18.3166C22.7139 18.2975 22.7001 18.2782 22.6866 18.2587C22.6725 18.2384 22.6587 18.2177 22.6452 18.1969C22.6311 18.1751 22.6173 18.1529 22.6039 18.1305C22.5897 18.107 22.576 18.0831 22.5625 18.059C22.5483 18.0334 22.5346 18.0075 22.5212 17.9813C22.5069 17.9534 22.4931 17.925 22.4798 17.8964C22.4656 17.8657 22.4517 17.8346 22.4385 17.803C22.4239 17.7681 22.4103 17.7324 22.3971 17.6965C22.3825 17.6566 22.3687 17.6163 22.3558 17.5752C22.3409 17.5276 22.327 17.4791 22.3144 17.4299C22.2988 17.3686 22.2851 17.3061 22.2731 17.2423C22.2553 17.1479 22.2414 17.0508 22.2317 16.951C22.2206 16.8358 22.2149 16.7172 22.2149 16.5951C22.2149 16.4729 22.2206 16.3542 22.2317 16.2389C22.2414 16.1391 22.2553 16.042 22.2731 15.9475C22.2851 15.8837 22.2988 15.8211 22.3144 15.7598C22.327 15.7105 22.3409 15.6621 22.3558 15.6144C22.3687 15.5734 22.3825 15.5329 22.3971 15.493C22.4103 15.4571 22.4239 15.4215 22.4385 15.3865C22.4517 15.3549 22.4656 15.3238 22.4798 15.293C22.4931 15.2644 22.5069 15.2361 22.5212 15.2082C22.5346 15.1819 22.5483 15.156 22.5625 15.1304C22.576 15.1063 22.5897 15.0824 22.6039 15.0588C22.6173 15.0364 22.6311 15.0143 22.6452 14.9924C22.6587 14.9715 22.6725 14.9509 22.6866 14.9305C22.7001 14.911 22.7139 14.8918 22.7279 14.8727C22.7414 14.8543 22.7553 14.8363 22.7693 14.8183C22.7828 14.801 22.7966 14.7839 22.8106 14.767C22.8242 14.7506 22.838 14.7345 22.852 14.7185C22.8655 14.7029 22.8793 14.6875 22.8933 14.6723C22.9069 14.6575 22.9207 14.6428 22.9347 14.6284C22.9483 14.6143 22.962 14.6002 22.976 14.5865C22.9896 14.5731 23.0035 14.5601 23.0174 14.547C23.031 14.5343 23.0448 14.5217 23.0587 14.5092C23.0724 14.497 23.0861 14.4848 23.1001 14.4729C23.1137 14.4612 23.1274 14.4495 23.1414 14.438C23.155 14.4269 23.1689 14.416 23.1828 14.4051C23.1964 14.3944 23.2102 14.3839 23.2241 14.3734C23.2378 14.3631 23.2515 14.3528 23.2655 14.3427C23.2791 14.3329 23.2929 14.3233 23.3068 14.3137C23.3205 14.3043 23.3343 14.295 23.3482 14.2857C23.3619 14.2766 23.3755 14.2674 23.3895 14.2585C23.4031 14.2498 23.417 14.2414 23.4309 14.233C23.4446 14.2246 23.4583 14.2162 23.4722 14.2081C23.4859 14.2 23.4996 14.192 23.5135 14.1841C23.5272 14.1764 23.5411 14.1689 23.5549 14.1614C23.5686 14.1539 23.5823 14.1464 23.5962 14.1391C23.6099 14.132 23.6238 14.1251 23.6376 14.1181C23.6513 14.1112 23.6651 14.1044 23.6789 14.0977C23.6926 14.0911 23.7064 14.0845 23.7203 14.0781C23.734 14.0717 23.7478 14.0655 23.7616 14.0593C23.7754 14.0532 23.7891 14.047 23.803 14.0411C23.8166 14.0352 23.8305 14.0296 23.8443 14.0239C23.8581 14.0182 23.8718 14.0125 23.8857 14.007C23.8994 14.0016 23.9132 13.9964 23.927 13.9912C23.9408 13.9859 23.9545 13.9807 23.9684 13.9756C23.9821 13.9706 23.9959 13.9659 24.0097 13.961C24.0235 13.9562 24.0372 13.9514 24.0511 13.9467C24.0648 13.9421 24.0786 13.9377 24.0924 13.9332C24.1062 13.9288 24.1199 13.9244 24.1338 13.9201C24.1475 13.9159 24.1613 13.9118 24.1751 13.9078C24.1889 13.9037 24.2026 13.8997 24.2165 13.8958L24.2578 13.8845C24.2716 13.8808 24.2853 13.877 24.2992 13.8735C24.3129 13.8699 24.3267 13.8666 24.3405 13.8632C24.3543 13.8598 24.368 13.8564 24.3819 13.8532L24.4232 13.8439C24.437 13.8408 24.4507 13.8377 24.4646 13.8348C24.4783 13.8319 24.4921 13.8292 24.5059 13.8264C24.5197 13.8236 24.5334 13.8207 24.5473 13.8181C24.5609 13.8155 24.5748 13.8132 24.5886 13.8107C24.6024 13.8082 24.6161 13.8056 24.63 13.8032C24.6436 13.8009 24.6575 13.7989 24.6713 13.7967C24.6851 13.7945 24.6988 13.7922 24.7127 13.7901L24.754 13.7842L24.7954 13.7786L24.8367 13.7733L24.878 13.7685L24.9194 13.7639L24.9607 13.7599C24.9745 13.7586 24.9882 13.7572 25.0021 13.7559C25.0158 13.7547 25.0297 13.7538 25.0434 13.7527L25.0848 13.7496L25.1262 13.7468L25.1675 13.7445L25.2089 13.7423C25.2226 13.7416 25.2364 13.7412 25.2502 13.7406C25.264 13.7401 25.2777 13.7395 25.2915 13.739L25.3329 13.738L25.3742 13.7372L25.4156 13.7366L25.4569 13.7364C25.4707 13.7364 25.4844 13.7362 25.4983 13.7363L25.5396 13.7368L25.581 13.7374L25.6223 13.7382L25.6637 13.7395L25.705 13.7408L25.7464 13.7426L25.7877 13.7447L25.8291 13.7468L25.8704 13.7494L25.9118 13.7521L25.928 13.7531L25.9531 13.7551L25.9945 13.7582L26.0358 13.7616L26.0772 13.7653L26.1185 13.769L26.1599 13.7731L26.2012 13.7773L26.2426 13.7818L26.2839 13.7864L26.3252 13.7913L26.3666 13.7963L26.408 13.8016L26.4493 13.8071L26.4907 13.8128L26.532 13.8187L26.5734 13.8248L26.6147 13.8312L26.656 13.8377L26.6974 13.8445L26.7387 13.8515L26.7801 13.8587L26.8214 13.8661L26.8628 13.8738L26.9041 13.8817L26.9455 13.8898L26.9868 13.8981L27.0282 13.9066L27.0695 13.9154L27.1109 13.9244L27.1522 13.9336L27.1936 13.9431L27.2349 13.9528L27.2763 13.9626L27.3176 13.9728L27.359 13.9831L27.4003 13.9937L27.4417 14.0045L27.483 14.0156L27.5244 14.0269L27.5657 14.0384L27.6071 14.0501L27.6484 14.0621L27.6898 14.0743L27.7311 14.0867L27.7725 14.0994L27.8138 14.1123L27.8552 14.1254L27.8965 14.1388L27.9379 14.1523L27.9792 14.1661L28.0206 14.1802L28.0619 14.1945L28.1032 14.209L28.1446 14.2237L28.1859 14.2387L28.2273 14.2539L28.2686 14.2693L28.31 14.285L28.3513 14.3008L28.3927 14.3169L28.434 14.3333L28.4754 14.3498L28.5167 14.3666L28.5581 14.3836L28.5994 14.4007L28.6408 14.4181L28.6821 14.4357L28.7235 14.4536L28.7648 14.4716L28.8062 14.4898L28.8475 14.5083L28.8889 14.5269L28.9302 14.5458L28.9716 14.5648L29.0129 14.584L29.0543 14.6034L29.0956 14.623L29.137 14.6428L29.1781 14.6626V12.9208L29.137 12.911L29.0956 12.9015L29.0543 12.8921L29.0129 12.8827L28.9716 12.8736L28.9302 12.8645L28.8889 12.8555L28.8475 12.8466L28.8062 12.8379L28.7648 12.8292L28.7235 12.8206L28.6821 12.8121L28.6408 12.8036L28.5994 12.7952L28.5581 12.787L28.5167 12.7788L28.4754 12.7707L28.434 12.7626L28.3927 12.7547L28.3513 12.7468L28.31 12.739L28.2686 12.7313L28.2273 12.7236L28.1859 12.7161L28.1446 12.7086L28.1032 12.7012L28.0619 12.6938L28.0206 12.6866L27.9792 12.6794L27.9379 12.6723L27.8965 12.6653L27.8552 12.6583L27.8138 12.6515L27.7725 12.6447L27.7311 12.638L27.6898 12.6314L27.6484 12.6248L27.6071 12.6184L27.5657 12.612L27.5244 12.6057L27.483 12.5995L27.4417 12.5934L27.4003 12.5873L27.359 12.5814L27.3176 12.5755L27.2763 12.5697L27.2349 12.564L27.1936 12.5584L27.1522 12.5529L27.1109 12.5475L27.0695 12.5422L27.0282 12.5369L26.9868 12.5318L26.9455 12.5267L26.9041 12.5218L26.8628 12.5169L26.8214 12.5122L26.7801 12.5075L26.7387 12.5029L26.6974 12.4985L26.656 12.4941L26.6147 12.4899L26.5734 12.4857L26.532 12.4817L26.4907 12.4778L26.4493 12.474L26.408 12.4703L26.3666 12.4667L26.3252 12.4632L26.2839 12.4599L26.2426 12.4566L26.2012 12.4535L26.1599 12.4506L26.1185 12.4476L26.0772 12.445L26.0358 12.4423L25.9945 12.4399L25.9531 12.4375L25.9118 12.4354L25.8704 12.4333L25.8291 12.4314L25.8079 12.4304L25.7877 12.4296L25.7464 12.428L25.705 12.4263L25.6637 12.4247L25.6223 12.4233L25.581 12.4219L25.5396 12.4205L25.4983 12.4194L25.4569 12.4182L25.4156 12.4172L25.3742 12.4161L25.3329 12.4153L25.2915 12.4145L25.2502 12.4137L25.2089 12.4132L25.1675 12.4126L25.1262 12.4121L25.0848 12.4118L25.0434 12.4116L25.0021 12.4114L24.9607 12.4113L24.9194 12.4113L24.878 12.4114L24.8367 12.4115L24.7954 12.4119L24.754 12.4123L24.7127 12.4127L24.6713 12.4134L24.63 12.414L24.5886 12.4147L24.5473 12.4157L24.5059 12.4167L24.4646 12.4177L24.4232 12.419L24.3819 12.4203L24.3405 12.4216L24.2992 12.4232L24.2578 12.4249L24.2165 12.4265L24.1751 12.4284L24.1338 12.4304L24.0924 12.4323L24.0511 12.4346L24.0097 12.4369L23.9684 12.4392L23.927 12.4418L23.8857 12.4445L23.8443 12.4472L23.803 12.4502L23.7616 12.4532L23.7203 12.4563L23.6789 12.4597L23.6376 12.463L23.5962 12.4665L23.5549 12.4702L23.5135 12.4739L23.4722 12.4779L23.4309 12.482L23.3895 12.4861L23.3482 12.4905L23.3068 12.495L23.2655 12.4995L23.2241 12.5044L23.1828 12.5092L23.1414 12.5143L23.1001 12.5196L23.0587 12.5248L23.0174 12.5304L22.976 12.536L22.9347 12.5418L22.8933 12.5479L22.852 12.5539L22.8106 12.5603L22.7693 12.5668L22.7279 12.5734L22.6866 12.5802L22.6452 12.5871L22.6039 12.5944L22.5625 12.6017L22.5212 12.6092L22.4798 12.6169L22.4385 12.6247L22.3971 12.6329L22.3558 12.6411L22.3144 12.6496L22.2731 12.6582L22.2317 12.6671L22.1904 12.6762L22.149 12.6853L22.1077 12.695L22.0663 12.7046L22.025 12.7145L21.9837 12.7246L21.9423 12.735L21.901 12.7456L21.8596 12.7564L21.8183 12.7675L21.7769 12.7788L21.7356 12.7904L21.6942 12.8021L21.6529 12.8142L21.6115 12.8265L21.5702 12.8392C21.5564 12.8434 21.5425 12.8476 21.5288 12.8519L21.4875 12.8651C21.4737 12.8695 21.4598 12.8739 21.4461 12.8784L21.4048 12.8922L21.3634 12.906C21.3495 12.9108 21.3358 12.9157 21.3221 12.9205C21.3083 12.9253 21.2944 12.93 21.2807 12.935L21.2394 12.95C21.2256 12.955 21.2117 12.96 21.198 12.9651L21.1567 12.9807L21.1153 12.9965L21.074 13.0128L21.0326 13.0294L20.9913 13.0463L20.9499 13.0636L20.9086 13.0812L20.8673 13.0993L20.8259 13.1176C20.812 13.1239 20.7983 13.1303 20.7846 13.1366L20.7432 13.1558L20.7019 13.1755L20.6605 13.1956C20.6467 13.2024 20.6328 13.2092 20.6192 13.2161C20.6053 13.223 20.5916 13.2302 20.5778 13.2372L20.5365 13.2587L20.4951 13.2807C20.4812 13.2881 20.4675 13.2957 20.4538 13.3032C20.4399 13.3108 20.4261 13.3184 20.4124 13.3261C20.3986 13.3339 20.3848 13.3418 20.3711 13.3497C20.3572 13.3577 20.3434 13.3658 20.3297 13.3739C20.3159 13.382 20.302 13.3902 20.2884 13.3984C20.2745 13.4068 20.2607 13.4153 20.247 13.4238L20.2057 13.4497C20.1918 13.4585 20.178 13.4672 20.1643 13.4761L20.123 13.5033C20.1091 13.5125 20.0954 13.5218 20.0817 13.5312C20.0678 13.5406 20.054 13.5501 20.0403 13.5597C20.0265 13.5694 20.0126 13.579 19.999 13.5888C19.985 13.5988 19.9713 13.6089 19.9576 13.619C19.9437 13.6292 19.9299 13.6395 19.9162 13.6499C19.9024 13.6603 19.8886 13.6709 19.8749 13.6815V13.6814Z" fill="#E10238"/>
</svg>
