<svg width="110" height="29" viewBox="0 0 110 29" fill="none" xmlns="http://www.w3.org/2000/svg">
<path d="M34.96 16.92H42.92C42.96 16.64 43 16.32 43 16.02C43 13.14 40.96 10.74 37.98 10.74C34.84 10.74 32.7 13.04 32.7 16C32.7 19 34.84 21.26 38.14 21.26C40.1 21.26 41.6 20.44 42.52 19.08L40.74 18.04C40.26 18.74 39.36 19.28 38.16 19.28C36.56 19.28 35.3 18.48 34.96 16.92ZM34.94 15.16C35.24 13.66 36.34 12.7 37.96 12.7C39.26 12.7 40.52 13.44 40.82 15.16H34.94ZM52.762 7V12.42C52.002 11.38 50.822 10.74 49.262 10.74C46.542 10.74 44.282 13.02 44.282 16C44.282 18.96 46.542 21.26 49.262 21.26C50.822 21.26 52.002 20.62 52.762 19.56V21H54.922V7H52.762ZM49.602 19.2C47.802 19.2 46.442 17.86 46.442 16C46.442 14.14 47.802 12.8 49.602 12.8C51.402 12.8 52.762 14.14 52.762 16C52.762 17.86 51.402 19.2 49.602 19.2ZM64.1797 11V16.36C64.1797 18.4 63.0597 19.24 61.6397 19.24C60.2797 19.24 59.3997 18.44 59.3997 16.92V11H57.2397V17.14C57.2397 19.74 58.8397 21.26 61.0797 21.26C62.4397 21.26 63.5197 20.76 64.1797 19.72V21H66.3397V11H64.1797ZM73.5855 21.26C75.5455 21.26 77.2455 20.24 78.0855 18.66L76.2255 17.6C75.7455 18.52 74.7655 19.14 73.5655 19.14C71.8055 19.14 70.4655 17.8 70.4655 16C70.4655 14.2 71.8055 12.86 73.5655 12.86C74.7655 12.86 75.7455 13.46 76.1855 14.4L78.0455 13.32C77.2455 11.76 75.5455 10.74 73.5855 10.74C70.5655 10.74 68.3055 13.02 68.3055 16C68.3055 18.96 70.5655 21.26 73.5855 21.26ZM87.4105 11V12.42C86.6505 11.38 85.4705 10.74 83.9105 10.74C81.1905 10.74 78.9305 13.02 78.9305 16C78.9305 18.96 81.1905 21.26 83.9105 21.26C85.4705 21.26 86.6505 20.62 87.4105 19.56V21H89.5705V11H87.4105ZM84.2505 19.2C82.4505 19.2 81.0905 17.86 81.0905 16C81.0905 14.14 82.4505 12.8 84.2505 12.8C86.0505 12.8 87.4105 14.14 87.4105 16C87.4105 17.86 86.0505 19.2 84.2505 19.2ZM97.6681 13.08V11H95.1881V8.2L93.0281 8.84V11H91.1881V13.08H93.0281V17.88C93.0281 20.48 94.3481 21.4 97.6681 21V19.06C96.0281 19.14 95.1881 19.16 95.1881 17.88V13.08H97.6681ZM100.917 16.92H108.877C108.917 16.64 108.957 16.32 108.957 16.02C108.957 13.14 106.917 10.74 103.937 10.74C100.797 10.74 98.657 13.04 98.657 16C98.657 19 100.797 21.26 104.097 21.26C106.057 21.26 107.557 20.44 108.477 19.08L106.697 18.04C106.217 18.74 105.317 19.28 104.117 19.28C102.517 19.28 101.257 18.48 100.917 16.92ZM100.897 15.16C101.197 13.66 102.297 12.7 103.917 12.7C105.217 12.7 106.477 13.44 106.777 15.16H100.897Z" fill="#1C1F2C"/>
<path d="M17.8686 29H1.61168C1.05109 29 0.642336 28.8748 0.385401 28.6243C0.128467 28.3738 0 27.9753 0 27.4287V5.29446C0 4.99843 0.0350365 4.74794 0.105109 4.54299C0.19854 4.33805 0.327007 4.16726 0.490511 4.03062L5.01022 0.307421C5.12701 0.216333 5.27883 0.148017 5.46569 0.102472C5.67591 0.0341574 5.89781 0 6.13139 0H22.3883C22.9489 0 23.3577 0.125245 23.6146 0.375735C23.8715 0.626227 24 1.02474 24 1.57126V5.56773C24 5.86376 23.9533 6.11425 23.8599 6.3192C23.7898 6.52415 23.673 6.69494 23.5095 6.83157L20.4964 9.25677C20.7299 9.37063 20.8934 9.54142 20.9869 9.76914C21.1037 9.99686 21.162 10.2929 21.162 10.6572V14.3121C21.162 14.6082 21.1153 14.8587 21.0219 15.0636C20.9518 15.2686 20.835 15.4393 20.6715 15.576L17.5533 18.1378H22.3883C22.9489 18.1378 23.3577 18.2631 23.6146 18.5135C23.8715 18.764 24 19.1625 24 19.7091V23.7055C24 24.0016 23.9533 24.2521 23.8599 24.457C23.7898 24.662 23.673 24.8327 23.5095 24.9694L18.9547 28.6584C18.8613 28.7495 18.7095 28.8292 18.4993 28.8975C18.3124 28.9658 18.1022 29 17.8686 29ZM22.3883 24.9352C22.8321 24.9352 23.1474 24.8441 23.3343 24.662C23.5445 24.457 23.6496 24.1382 23.6496 23.7055V19.7091C23.6496 19.2764 23.5445 18.969 23.3343 18.7868C23.1474 18.5819 22.8321 18.4794 22.3883 18.4794H12.7182V15.5418H19.5504C19.9942 15.5418 20.3095 15.4507 20.4964 15.2685C20.7066 15.0636 20.8117 14.7448 20.8117 14.3121V10.6572C20.8117 10.2246 20.7066 9.91716 20.4964 9.73498C20.3095 9.53004 19.9942 9.42756 19.5504 9.42756H12.7182V6.79741H22.3883C22.8321 6.79741 23.1474 6.70632 23.3343 6.52415C23.5445 6.3192 23.6496 6.00039 23.6496 5.56773V1.57126C23.6496 1.13859 23.5445 0.831174 23.3343 0.648999C23.1474 0.444052 22.8321 0.341578 22.3883 0.341578H6.13139C5.68759 0.341578 5.36058 0.444052 5.15036 0.648999C4.9635 0.831174 4.87007 1.13859 4.87007 1.57126V23.7055C4.87007 24.1382 4.9635 24.457 5.15036 24.662C5.36058 24.8441 5.68759 24.9352 6.13139 24.9352H22.3883ZM20.4964 21.5194V21.861H8.68905V3.41578H20.4964V3.75736H9.03942V12.331H17.6584V12.6726H9.03942V21.5194H20.4964Z" fill="#FF9F66"/>
</svg>
