<svg width="51" height="34" viewBox="0 0 51 34" fill="none" xmlns="http://www.w3.org/2000/svg">
<rect x="0.25" y="0.25" width="50.5" height="33.5" rx="3.75" fill="white" stroke="#E1E3EA" stroke-width="0.5"/>
<path fill-rule="evenodd" clip-rule="evenodd" d="M18.6844 26.2573V27.5126V28.7679H18.1152V28.4631C17.9347 28.6892 17.6607 28.8311 17.2884 28.8311C16.5544 28.8311 15.9789 28.2797 15.9789 27.5126C15.9789 26.746 16.5544 26.1941 17.2884 26.1941C17.6607 26.1941 17.9347 26.336 18.1152 26.5621V26.2573H18.6844ZM17.3592 26.7088C16.8665 26.7088 16.565 27.0713 16.565 27.5126C16.565 27.9539 16.8665 28.3164 17.3592 28.3164C17.83 28.3164 18.1478 27.9695 18.1478 27.5126C18.1478 27.0557 17.83 26.7088 17.3592 26.7088ZM37.9183 27.5126C37.9183 27.0713 38.2198 26.7088 38.7125 26.7088C39.1839 26.7088 39.5011 27.0557 39.5011 27.5126C39.5011 27.9695 39.1839 28.3164 38.7125 28.3164C38.2198 28.3164 37.9183 27.9539 37.9183 27.5126ZM40.0382 25.249V27.5126V28.7679H39.4685V28.4631C39.2879 28.6892 39.014 28.8311 38.6417 28.8311C37.9076 28.8311 37.3322 28.2797 37.3322 27.5126C37.3322 26.746 37.9076 26.1941 38.6417 26.1941C39.014 26.1941 39.2879 26.336 39.4685 26.5621V25.249H40.0382ZM25.7495 26.6829C26.1162 26.6829 26.3518 26.9036 26.412 27.292H25.0537C25.1145 26.9294 25.3439 26.6829 25.7495 26.6829ZM24.4569 27.5126C24.4569 26.7298 24.9935 26.1941 25.7607 26.1941C26.4941 26.1941 26.9981 26.7298 27.0037 27.5126C27.0037 27.5859 26.9981 27.6545 26.9925 27.7224H25.0486C25.1307 28.1745 25.4649 28.3375 25.8316 28.3375C26.0942 28.3375 26.3738 28.2425 26.5932 28.0747L26.8721 28.4793C26.5543 28.7367 26.1932 28.8311 25.799 28.8311C25.0154 28.8311 24.4569 28.311 24.4569 27.5126ZM32.6334 27.5126C32.6334 27.0713 32.9349 26.7088 33.4276 26.7088C33.8984 26.7088 34.2162 27.0557 34.2162 27.5126C34.2162 27.9695 33.8984 28.3164 33.4276 28.3164C32.9349 28.3164 32.6334 27.9539 32.6334 27.5126ZM34.7528 26.2573V27.5126V28.7679H34.1836V28.4631C34.0024 28.6892 33.7291 28.8311 33.3568 28.8311C32.6228 28.8311 32.0473 28.2797 32.0473 27.5126C32.0473 26.746 32.6228 26.1941 33.3568 26.1941C33.7291 26.1941 34.0024 26.336 34.1836 26.5621V26.2573H34.7528ZM29.4189 27.5126C29.4189 28.2743 29.9718 28.8311 30.8155 28.8311C31.2098 28.8311 31.4725 28.7469 31.7571 28.5317L31.4837 28.0904C31.27 28.2377 31.0456 28.3164 30.7986 28.3164C30.3442 28.311 30.01 27.996 30.01 27.5126C30.01 27.0292 30.3442 26.7142 30.7986 26.7088C31.0456 26.7088 31.27 26.7875 31.4837 26.9348L31.7571 26.4935C31.4725 26.2783 31.2098 26.1941 30.8155 26.1941C29.9718 26.1941 29.4189 26.7509 29.4189 27.5126ZM36.0671 26.5621C36.2151 26.3415 36.4288 26.1942 36.7573 26.1942C36.8726 26.1942 37.0369 26.2152 37.1629 26.2627L36.9873 26.7773C36.867 26.7298 36.7466 26.7142 36.6313 26.7142C36.2589 26.7142 36.0728 26.9451 36.0728 27.3605V28.768H35.503V26.2573H36.0671V26.5621ZM21.4994 26.4569C21.2255 26.2837 20.8481 26.1941 20.4319 26.1941C19.7687 26.1941 19.3419 26.4989 19.3419 26.998C19.3419 27.4074 19.6597 27.6599 20.2451 27.7386L20.514 27.7753C20.8262 27.8174 20.9735 27.8962 20.9735 28.0381C20.9735 28.2322 20.7654 28.3429 20.3768 28.3429C19.9825 28.3429 19.6979 28.222 19.5061 28.0801L19.2378 28.5052C19.55 28.7258 19.9442 28.8311 20.3711 28.8311C21.1271 28.8311 21.5652 28.4896 21.5652 28.0116C21.5652 27.5703 21.2205 27.3394 20.6507 27.2607L20.3824 27.2234C20.1361 27.1921 19.9386 27.1453 19.9386 26.9769C19.9386 26.7929 20.1248 26.6829 20.4369 26.6829C20.771 26.6829 21.0945 26.8038 21.2531 26.8982L21.4994 26.4569ZM28.154 26.5621C28.3013 26.3415 28.5151 26.1942 28.8435 26.1942C28.9589 26.1942 29.1231 26.2152 29.2491 26.2627L29.0736 26.7773C28.9532 26.7298 28.8329 26.7142 28.7175 26.7142C28.3452 26.7142 28.159 26.9451 28.159 27.3605V28.768H27.5899V26.2573H28.154V26.5621ZM23.9861 26.2573H23.0552V25.4955H22.4798V26.2573H21.9488V26.7563H22.4798V27.9016C22.4798 28.4842 22.7155 28.8311 23.3887 28.8311C23.6357 28.8311 23.9202 28.7577 24.1008 28.6369L23.9365 28.1691C23.7667 28.2635 23.5805 28.311 23.4326 28.311C23.148 28.311 23.0552 28.1427 23.0552 27.8908V26.7563H23.9861V26.2573ZM15.4755 27.1922V28.768H14.9001V27.3707C14.9001 26.9451 14.7139 26.7088 14.3253 26.7088C13.9473 26.7088 13.6846 26.9403 13.6846 27.3761V28.768H13.1092V27.3707C13.1092 26.9451 12.918 26.7088 12.54 26.7088C12.1508 26.7088 11.8988 26.9403 11.8988 27.3761V28.768H11.324V26.2573H11.8938V26.5669C12.1075 26.2729 12.3808 26.1942 12.6604 26.1942C13.0603 26.1942 13.3449 26.3625 13.5254 26.6409C13.7668 26.2886 14.1115 26.1888 14.4456 26.1942C15.0812 26.1996 15.4755 26.5988 15.4755 27.1922Z" fill="#231F20"/>
<path d="M29.9373 21.9908H21.3108V7.12158H29.9373V21.9908Z" fill="#FF5F00"/>
<path d="M21.8581 14.5567C21.8581 11.5404 23.3306 8.85355 25.6235 7.12205C23.9467 5.85589 21.8305 5.10017 19.5307 5.10017C14.0859 5.10017 9.67236 9.33392 9.67236 14.5567C9.67236 19.7794 14.0859 24.0132 19.5307 24.0132C21.8305 24.0132 23.9467 23.2575 25.6235 21.9913C23.3306 20.2598 21.8581 17.573 21.8581 14.5567Z" fill="#EB001B"/>
<path d="M41.5753 14.5567C41.5753 19.7794 37.1618 24.0132 31.717 24.0132C29.4172 24.0132 27.301 23.2575 25.6235 21.9913C27.9171 20.2598 29.3896 17.573 29.3896 14.5567C29.3896 11.5404 27.9171 8.85355 25.6235 7.12205C27.301 5.85589 29.4172 5.10017 31.717 5.10017C37.1618 5.10017 41.5753 9.33392 41.5753 14.5567Z" fill="#F79E1B"/>
</svg>
