<svg width="51" height="34" viewBox="0 0 51 34" fill="none" xmlns="http://www.w3.org/2000/svg">
<rect x="0.25" y="0.25" width="50.5" height="33.5" rx="3.75" fill="white" stroke="#E1E3EA" stroke-width="0.5"/>
<path fill-rule="evenodd" clip-rule="evenodd" d="M23.2479 17.2179L23.4699 15.8507L22.9753 15.8396H20.6135L22.2549 5.75047C22.26 5.71992 22.2765 5.69155 22.3007 5.67138C22.3249 5.6512 22.3559 5.64014 22.3882 5.64014H26.3706C27.6927 5.64014 28.6051 5.90679 29.0814 6.43319C29.3047 6.68014 29.447 6.93827 29.5158 7.22222C29.588 7.52023 29.5892 7.87624 29.5188 8.31052L29.5137 8.34211V8.62041L29.737 8.74308C29.925 8.8398 30.0745 8.95048 30.1892 9.07718C30.3802 9.28839 30.5037 9.55677 30.5559 9.87485C30.6099 10.202 30.5921 10.5915 30.5037 11.0323C30.4018 11.5394 30.2371 11.981 30.0146 12.3423C29.81 12.6753 29.5494 12.9515 29.2398 13.1655C28.9443 13.3688 28.5932 13.5232 28.1963 13.622C27.8115 13.7191 27.373 13.7681 26.8919 13.7681H26.582C26.3605 13.7681 26.1452 13.8454 25.9762 13.9841C25.8068 14.1257 25.6947 14.3192 25.6604 14.5307L25.6369 14.6538L25.2446 17.0637L25.2269 17.1521C25.2221 17.1801 25.214 17.1941 25.2021 17.2035C25.1916 17.2122 25.1763 17.2179 25.1615 17.2179H23.2479Z" fill="#28356A"/>
<path fill-rule="evenodd" clip-rule="evenodd" d="M29.9485 8.37402C29.9367 8.44769 29.923 8.52297 29.9078 8.60033C29.3826 11.2143 27.5858 12.1174 25.2911 12.1174H24.1227C23.842 12.1174 23.6055 12.3149 23.5618 12.5833L22.7942 17.3037C22.7658 17.4799 22.9059 17.6387 23.0892 17.6387H25.1616C25.4069 17.6387 25.6154 17.4659 25.654 17.2313L25.6744 17.1292L26.0646 14.7289L26.0897 14.5972C26.1278 14.3618 26.3368 14.1889 26.5821 14.1889H26.892C28.8998 14.1889 30.4716 13.3987 30.931 11.1119C31.1228 10.1566 31.0235 9.35892 30.5157 8.79793C30.3621 8.62881 30.1714 8.48839 29.9485 8.37402Z" fill="#298FC2"/>
<path fill-rule="evenodd" clip-rule="evenodd" d="M29.3991 8.16173C29.3188 8.13902 29.236 8.1185 29.1511 8.09994C29.0657 8.08184 28.9783 8.06581 28.8883 8.05175C28.5733 8.00241 28.228 7.979 27.8583 7.979H24.737C24.66 7.979 24.587 7.99584 24.5217 8.02627C24.3777 8.09337 24.2708 8.22549 24.2449 8.38723L23.5808 12.4645L23.5618 12.5833C23.6054 12.3149 23.8419 12.1174 24.1226 12.1174H25.291C27.5857 12.1174 29.3825 11.2139 29.9077 8.6004C29.9234 8.52304 29.9366 8.44776 29.9484 8.37409C29.8155 8.30573 29.6716 8.24728 29.5167 8.19747C29.4784 8.18514 29.4389 8.17326 29.3991 8.16173Z" fill="#22284F"/>
<path fill-rule="evenodd" clip-rule="evenodd" d="M24.2448 8.38703C24.2707 8.22529 24.3777 8.09317 24.5217 8.02653C24.5874 7.99598 24.66 7.97915 24.7369 7.97915H27.8583C28.228 7.97915 28.5732 8.00267 28.8883 8.05201C28.9783 8.06596 29.0657 8.0821 29.1511 8.1002C29.236 8.11864 29.3188 8.13928 29.399 8.16188C29.4389 8.17341 29.4784 8.1854 29.517 8.19727C29.672 8.24707 29.816 8.30599 29.9488 8.37389C30.1051 7.4079 29.9475 6.75019 29.4088 6.15462C28.8148 5.49887 27.7428 5.21826 26.371 5.21826H22.3886C22.1084 5.21826 21.8693 5.41575 21.8261 5.6846L20.1673 15.8774C20.1346 16.0791 20.2951 16.261 20.5048 16.261H22.9634L24.2448 8.38703Z" fill="#28356A"/>
<path fill-rule="evenodd" clip-rule="evenodd" d="M11.5142 19.9927H8.61057C8.41185 19.9927 8.24286 20.1326 8.21182 20.3229L7.03746 27.5407C7.01415 27.6832 7.12796 27.8115 7.27697 27.8115H8.66313C8.86185 27.8115 9.03084 27.6717 9.06188 27.4811L9.37857 25.5343C9.40913 25.3437 9.57848 25.2038 9.77684 25.2038H10.696C12.6086 25.2038 13.7125 24.3065 14.0008 22.5285C14.1307 21.7506 14.0063 21.1394 13.6305 20.7114C13.2179 20.2413 12.4859 19.9927 11.5142 19.9927ZM11.849 22.629C11.6902 23.639 10.8942 23.639 10.1245 23.639H9.68626L9.99367 21.7527C10.012 21.6386 10.1138 21.5547 10.2327 21.5547H10.4336C10.9579 21.5547 11.4525 21.5547 11.7081 21.8444C11.8605 22.0172 11.9071 22.2741 11.849 22.629Z" fill="#28356A"/>
<path fill-rule="evenodd" clip-rule="evenodd" d="M20.2676 22.5419H18.8772C18.7588 22.5419 18.6564 22.6258 18.6382 22.7398L18.5766 23.1168L18.4794 22.9802C18.1784 22.5566 17.5071 22.415 16.8372 22.415C15.3006 22.415 13.9883 23.5432 13.7327 25.1258C13.5999 25.9151 13.7888 26.67 14.2508 27.1964C14.6745 27.6804 15.2808 27.8822 16.002 27.8822C17.2401 27.8822 17.9265 27.1104 17.9265 27.1104L17.8646 27.485C17.8413 27.6282 17.9551 27.7566 18.1033 27.7566H19.3556C19.5548 27.7566 19.723 27.6167 19.7544 27.4261L20.5058 22.8127C20.5296 22.6706 20.4162 22.5419 20.2676 22.5419ZM18.3294 25.1653C18.1953 25.9353 17.5649 26.4523 16.7607 26.4523C16.357 26.4523 16.0344 26.3267 15.8271 26.0889C15.6216 25.8527 15.5436 25.5164 15.6089 25.1418C15.7342 24.3784 16.3752 23.8445 17.1671 23.8445C17.5619 23.8445 17.8829 23.9718 18.0943 24.2116C18.3061 24.454 18.3902 24.7924 18.3294 25.1653Z" fill="#28356A"/>
<path fill-rule="evenodd" clip-rule="evenodd" d="M27.566 22.6572H26.1686C26.0353 22.6572 25.9101 22.7214 25.8346 22.8289L23.9074 25.5807L23.0906 22.9362C23.0392 22.7708 22.8817 22.6572 22.7034 22.6572H21.3304C21.1634 22.6572 21.0476 22.8153 21.1006 22.9676L22.6397 27.3459L21.1928 29.3261C21.079 29.4821 21.1936 29.6965 21.3902 29.6965H22.7858C22.9182 29.6965 23.0422 29.6339 23.1173 29.5287L27.7646 23.0256C27.8759 22.87 27.7616 22.6572 27.566 22.6572Z" fill="#28356A"/>
<path fill-rule="evenodd" clip-rule="evenodd" d="M32.224 19.9927H29.3201C29.1218 19.9927 28.9528 20.1326 28.9218 20.3229L27.7474 27.5407C27.7241 27.6832 27.8379 27.8115 27.9861 27.8115H29.4763C29.6146 27.8115 29.7331 27.7137 29.7547 27.5803L30.0881 25.5343C30.1186 25.3437 30.2881 25.2038 30.4863 25.2038H31.4051C33.3181 25.2038 34.4216 24.3065 34.7103 22.5285C34.8407 21.7506 34.7154 21.1394 34.3397 20.7114C33.9273 20.2413 33.1959 19.9927 32.224 19.9927ZM32.5591 22.629C32.4007 23.639 31.6046 23.639 30.8345 23.639H30.3968L30.7046 21.7527C30.7228 21.6386 30.8239 21.5547 30.9432 21.5547H31.144C31.6679 21.5547 32.1629 21.5547 32.4185 21.8444C32.571 22.0172 32.6172 22.2741 32.5591 22.629Z" fill="#298FC2"/>
<path fill-rule="evenodd" clip-rule="evenodd" d="M40.9757 22.5419H39.5861C39.4668 22.5419 39.3654 22.6258 39.3476 22.7398L39.286 23.1168L39.1883 22.9802C38.8873 22.5566 38.2165 22.415 37.5465 22.415C36.01 22.415 34.6982 23.5432 34.4426 25.1258C34.3101 25.9151 34.4982 26.67 34.96 27.1964C35.3847 27.6804 35.99 27.8822 36.7114 27.8822C37.9494 27.8822 38.6359 27.1104 38.6359 27.1104L38.574 27.485C38.5507 27.6282 38.6643 27.7566 38.8135 27.7566H40.0655C40.2637 27.7566 40.4327 27.6167 40.4638 27.4261L41.2156 22.8127C41.2385 22.6706 41.1247 22.5419 40.9757 22.5419ZM39.0376 25.1653C38.9043 25.9353 38.2729 26.4523 37.4687 26.4523C37.0658 26.4523 36.7424 26.3267 36.5351 26.0889C36.3297 25.8527 36.2524 25.5164 36.3169 25.1418C36.443 24.3784 37.0832 23.8445 37.8751 23.8445C38.2699 23.8445 38.5909 23.9718 38.8023 24.2116C39.015 24.454 39.0991 24.7924 39.0376 25.1653Z" fill="#298FC2"/>
<path fill-rule="evenodd" clip-rule="evenodd" d="M42.4992 20.1911L41.3075 27.5411C41.2842 27.6836 41.3979 27.8119 41.546 27.8119H42.7442C42.9434 27.8119 43.1122 27.672 43.1428 27.4815L44.318 20.2639C44.3414 20.1215 44.2276 19.9927 44.0794 19.9927H42.7379C42.6194 19.993 42.5175 20.0771 42.4992 20.1911Z" fill="#298FC2"/>
</svg>
