<svg width="181" height="60" viewBox="0 0 181 60" fill="none" xmlns="http://www.w3.org/2000/svg">
<rect width="181" height="60" rx="8" fill="#0D243C"/>
<path d="M75.46 23H76.2L73.51 16H72.79L70.1 23H70.84L71.49 21.28H74.81L75.46 23ZM71.74 20.62L73.15 16.87L74.56 20.62H71.74ZM80.4035 18L78.6535 22.31L76.9035 18H76.2035L78.2535 23H79.0535L81.1035 18H80.4035ZM86.0059 18V18.98C85.5859 18.31 84.8759 17.88 83.9859 17.88C82.5759 17.88 81.4059 19.02 81.4059 20.5C81.4059 21.98 82.5759 23.12 83.9859 23.12C84.8759 23.12 85.5859 22.69 86.0059 22.02V23H86.6659V18H86.0059ZM84.0359 22.48C82.9259 22.48 82.0659 21.61 82.0659 20.5C82.0659 19.39 82.9259 18.52 84.0359 18.52C85.1459 18.52 86.0059 19.39 86.0059 20.5C86.0059 21.61 85.1459 22.48 84.0359 22.48ZM88.3933 16.94C88.6633 16.94 88.8733 16.72 88.8733 16.46C88.8733 16.2 88.6633 15.98 88.3933 15.98C88.1233 15.98 87.9133 16.2 87.9133 16.46C87.9133 16.72 88.1233 16.94 88.3933 16.94ZM88.0633 23H88.7233V18H88.0633V23ZM90.1238 23H90.7838V15.7H90.1238V23ZM96.4844 18V18.98C96.0644 18.31 95.3544 17.88 94.4644 17.88C93.0544 17.88 91.8844 19.02 91.8844 20.5C91.8844 21.98 93.0544 23.12 94.4644 23.12C95.3544 23.12 96.0644 22.69 96.4844 22.02V23H97.1444V18H96.4844ZM94.5144 22.48C93.4044 22.48 92.5444 21.61 92.5444 20.5C92.5444 19.39 93.4044 18.52 94.5144 18.52C95.6244 18.52 96.4844 19.39 96.4844 20.5C96.4844 21.61 95.6244 22.48 94.5144 22.48ZM101.222 17.88C100.332 17.88 99.6218 18.31 99.2018 18.98V16H98.5418V23H99.2018V22.02C99.6218 22.69 100.332 23.12 101.222 23.12C102.632 23.12 103.802 21.98 103.802 20.5C103.802 19.02 102.632 17.88 101.222 17.88ZM101.172 22.48C100.062 22.48 99.2018 21.61 99.2018 20.5C99.2018 19.39 100.062 18.52 101.172 18.52C102.282 18.52 103.142 19.39 103.142 20.5C103.142 21.61 102.282 22.48 101.172 22.48ZM104.899 23H105.559V15.7H104.899V23ZM109.27 17.88C107.72 17.88 106.66 19.03 106.66 20.5C106.66 22.01 107.74 23.12 109.32 23.12C110.33 23.12 111.1 22.65 111.52 21.97L110.94 21.63C110.67 22.11 110.12 22.48 109.33 22.48C108.27 22.48 107.48 21.85 107.34 20.83H111.73C111.74 20.73 111.75 20.62 111.75 20.52C111.75 19.15 110.8 17.88 109.27 17.88ZM109.27 18.52C110.13 18.52 110.93 19.09 111.07 20.19H107.34C107.47 19.21 108.22 18.52 109.27 18.52ZM117.63 23.12C119.09 23.12 120.26 21.98 120.26 20.5C120.26 19.02 119.09 17.88 117.63 17.88C116.17 17.88 115 19.02 115 20.5C115 21.98 116.17 23.12 117.63 23.12ZM117.63 22.48C116.52 22.48 115.66 21.61 115.66 20.5C115.66 19.39 116.52 18.52 117.63 18.52C118.74 18.52 119.6 19.39 119.6 20.5C119.6 21.61 118.74 22.48 117.63 22.48ZM123.704 17.88C122.994 17.88 122.414 18.15 122.024 18.78V18H121.364V23H122.024V20.38C122.024 19.04 122.764 18.52 123.644 18.52C124.514 18.52 125.004 19.04 125.004 19.93V23H125.664V19.93C125.664 18.68 124.924 17.88 123.704 17.88Z" fill="white" fill-opacity="0.9"/>
<path d="M75.904 30.4H71.26V43H73.33V38.68H75.904C78.28 38.68 80.08 36.862 80.08 34.54C80.08 32.2 78.28 30.4 75.904 30.4ZM75.904 36.736H73.33V32.344H75.904C77.128 32.344 78.01 33.262 78.01 34.54C78.01 35.8 77.128 36.736 75.904 36.736ZM81.7512 43H83.6952V29.86H81.7512V43ZM93.0804 34V35.278C92.3964 34.342 91.3344 33.766 89.9304 33.766C87.4824 33.766 85.4484 35.818 85.4484 38.5C85.4484 41.164 87.4824 43.234 89.9304 43.234C91.3344 43.234 92.3964 42.658 93.0804 41.704V43H95.0244V34H93.0804ZM90.2364 41.38C88.6164 41.38 87.3924 40.174 87.3924 38.5C87.3924 36.826 88.6164 35.62 90.2364 35.62C91.8564 35.62 93.0804 36.826 93.0804 38.5C93.0804 40.174 91.8564 41.38 90.2364 41.38ZM103.356 34L101.052 40.534L98.3703 34H96.2463L100.062 42.838L99.9723 43.018C99.5223 44.206 98.8383 44.854 97.5783 44.782V46.6C99.6483 46.726 101.124 45.574 101.97 43.288L105.426 34H103.356ZM115.462 43.234C118.09 43.234 119.926 41.83 119.926 39.526C119.926 37.024 117.82 36.376 115.732 35.71C113.896 35.134 113.194 34.72 113.194 33.748C113.194 32.794 113.968 32.182 115.174 32.182C116.578 32.182 117.37 32.938 117.82 33.946L119.566 32.938C118.774 31.264 117.244 30.166 115.174 30.166C113.05 30.166 111.124 31.48 111.124 33.802C111.124 36.178 113.032 36.898 114.994 37.492C116.866 38.068 117.856 38.446 117.856 39.562C117.856 40.48 117.154 41.218 115.516 41.218C113.806 41.218 112.834 40.372 112.384 39.094L110.602 40.138C111.268 42.01 112.978 43.234 115.462 43.234ZM126.342 35.872V34H124.11V31.48L122.166 32.056V34H120.51V35.872H122.166V40.192C122.166 42.532 123.354 43.36 126.342 43V41.254C124.866 41.326 124.11 41.344 124.11 40.192V35.872H126.342ZM131.984 43.234C134.63 43.234 136.736 41.164 136.736 38.5C136.736 35.818 134.63 33.766 131.984 33.766C129.356 33.766 127.232 35.818 127.232 38.5C127.232 41.164 129.356 43.234 131.984 43.234ZM131.984 41.344C130.4 41.344 129.176 40.138 129.176 38.5C129.176 36.862 130.4 35.656 131.984 35.656C133.568 35.656 134.792 36.862 134.792 38.5C134.792 40.138 133.568 41.344 131.984 41.344ZM140.437 35.512V34H138.493V43H140.437V38.464C140.437 36.448 141.931 35.854 143.209 35.944V33.838C142.075 33.838 140.977 34.288 140.437 35.512ZM145.754 39.328H152.918C152.954 39.076 152.99 38.788 152.99 38.518C152.99 35.926 151.154 33.766 148.472 33.766C145.646 33.766 143.72 35.836 143.72 38.5C143.72 41.2 145.646 43.234 148.616 43.234C150.38 43.234 151.73 42.496 152.558 41.272L150.956 40.336C150.524 40.966 149.714 41.452 148.634 41.452C147.194 41.452 146.06 40.732 145.754 39.328ZM145.736 37.744C146.006 36.394 146.996 35.53 148.454 35.53C149.624 35.53 150.758 36.196 151.028 37.744H145.736Z" fill="white"/>
<path d="M42.9131 29.8552L27.8871 44.5044C27.1834 44.0176 26.7657 43.2077 26.773 42.3449V17.3656C26.7657 16.5028 27.1834 15.6929 27.8871 15.2061L42.9131 29.8552Z" fill="#00DBFF"/>
<path d="M48.1707 24.7385L42.913 29.8554L27.887 15.2062C27.9436 15.1618 28.0025 15.1205 28.0636 15.0824C28.8577 14.5951 29.8496 14.5794 30.6585 15.0412L48.1707 24.7385Z" fill="#07E374"/>
<path d="M54.5426 29.8552C54.5524 30.8292 54.0296 31.7289 53.184 32.1936L48.1708 34.9721L42.9131 29.8552L48.1708 24.7383L53.184 27.5168C54.0296 27.9814 54.5524 28.8811 54.5426 29.8552Z" fill="#FFCF00"/>
<path d="M48.1707 34.9719L30.6585 44.6692C29.8479 45.1239 28.8597 45.1081 28.0636 44.628C28.0025 44.5899 27.9436 44.5486 27.887 44.5042L42.913 29.855L48.1707 34.9719Z" fill="#F44336"/>
</svg>
