<svg width="257" height="180" viewBox="0 0 257 180" fill="none" xmlns="http://www.w3.org/2000/svg">
<circle cx="-0.5" cy="2.5" r="2.5" fill="#EDC988"/>
<circle cx="14.5" cy="2.5" r="2.5" fill="#EDC988"/>
<circle cx="29.5" cy="2.5" r="2.5" fill="#EDC988"/>
<circle cx="44.5" cy="2.5" r="2.5" fill="#EDC988"/>
<circle cx="59.5" cy="2.5" r="2.5" fill="#EDC988"/>
<circle cx="74.5" cy="2.5" r="2.5" fill="#EDC988"/>
<circle cx="89.5" cy="2.5" r="2.5" fill="#EDC988"/>
<circle cx="104.5" cy="2.5" r="2.5" fill="#EDC988"/>
<circle cx="119.5" cy="2.5" r="2.5" fill="#EDC988"/>
<circle cx="134.5" cy="2.5" r="2.5" fill="#EDC988"/>
<circle cx="149.5" cy="2.5" r="2.5" fill="#EDC988"/>
<circle cx="164.5" cy="2.5" r="2.5" fill="#EDC988"/>
<circle cx="179.5" cy="2.5" r="2.5" fill="#EDC988"/>
<circle cx="194.5" cy="2.5" r="2.5" fill="#EDC988"/>
<circle cx="209.5" cy="2.5" r="2.5" fill="#EDC988"/>
<circle cx="224.5" cy="2.5" r="2.5" fill="#EDC988"/>
<circle cx="239.5" cy="2.5" r="2.5" fill="#EDC988"/>
<circle cx="254.5" cy="2.5" r="2.5" fill="#EDC988"/>
<circle cx="-0.5" cy="27.5" r="2.5" fill="#EDC988"/>
<circle cx="14.5" cy="27.5" r="2.5" fill="#EDC988"/>
<circle cx="29.5" cy="27.5" r="2.5" fill="#EDC988"/>
<circle cx="44.5" cy="27.5" r="2.5" fill="#EDC988"/>
<circle cx="59.5" cy="27.5" r="2.5" fill="#EDC988"/>
<circle cx="74.5" cy="27.5" r="2.5" fill="#EDC988"/>
<circle cx="89.5" cy="27.5" r="2.5" fill="#EDC988"/>
<circle cx="104.5" cy="27.5" r="2.5" fill="#EDC988"/>
<circle cx="119.5" cy="27.5" r="2.5" fill="#EDC988"/>
<circle cx="134.5" cy="27.5" r="2.5" fill="#EDC988"/>
<circle cx="149.5" cy="27.5" r="2.5" fill="#EDC988"/>
<circle cx="164.5" cy="27.5" r="2.5" fill="#EDC988"/>
<circle cx="179.5" cy="27.5" r="2.5" fill="#EDC988"/>
<circle cx="194.5" cy="27.5" r="2.5" fill="#EDC988"/>
<circle cx="209.5" cy="27.5" r="2.5" fill="#EDC988"/>
<circle cx="224.5" cy="27.5" r="2.5" fill="#EDC988"/>
<circle cx="239.5" cy="27.5" r="2.5" fill="#EDC988"/>
<circle cx="254.5" cy="27.5" r="2.5" fill="#EDC988"/>
<circle cx="-0.5" cy="52.5" r="2.5" fill="#EDC988"/>
<circle cx="14.5" cy="52.5" r="2.5" fill="#EDC988"/>
<circle cx="29.5" cy="52.5" r="2.5" fill="#EDC988"/>
<circle cx="44.5" cy="52.5" r="2.5" fill="#EDC988"/>
<circle cx="59.5" cy="52.5" r="2.5" fill="#EDC988"/>
<circle cx="74.5" cy="52.5" r="2.5" fill="#EDC988"/>
<circle cx="89.5" cy="52.5" r="2.5" fill="#EDC988"/>
<circle cx="104.5" cy="52.5" r="2.5" fill="#EDC988"/>
<circle cx="119.5" cy="52.5" r="2.5" fill="#EDC988"/>
<circle cx="134.5" cy="52.5" r="2.5" fill="#EDC988"/>
<circle cx="149.5" cy="52.5" r="2.5" fill="#EDC988"/>
<circle cx="164.5" cy="52.5" r="2.5" fill="#EDC988"/>
<circle cx="179.5" cy="52.5" r="2.5" fill="#EDC988"/>
<circle cx="194.5" cy="52.5" r="2.5" fill="#EDC988"/>
<circle cx="209.5" cy="52.5" r="2.5" fill="#EDC988"/>
<circle cx="224.5" cy="52.5" r="2.5" fill="#EDC988"/>
<circle cx="239.5" cy="52.5" r="2.5" fill="#EDC988"/>
<circle cx="254.5" cy="52.5" r="2.5" fill="#EDC988"/>
<circle cx="-0.5" cy="77.5" r="2.5" fill="#EDC988"/>
<circle cx="14.5" cy="77.5" r="2.5" fill="#EDC988"/>
<circle cx="29.5" cy="77.5" r="2.5" fill="#EDC988"/>
<circle cx="44.5" cy="77.5" r="2.5" fill="#EDC988"/>
<circle cx="59.5" cy="77.5" r="2.5" fill="#EDC988"/>
<circle cx="74.5" cy="77.5" r="2.5" fill="#EDC988"/>
<circle cx="89.5" cy="77.5" r="2.5" fill="#EDC988"/>
<circle cx="104.5" cy="77.5" r="2.5" fill="#EDC988"/>
<circle cx="119.5" cy="77.5" r="2.5" fill="#EDC988"/>
<circle cx="134.5" cy="77.5" r="2.5" fill="#EDC988"/>
<circle cx="149.5" cy="77.5" r="2.5" fill="#EDC988"/>
<circle cx="164.5" cy="77.5" r="2.5" fill="#EDC988"/>
<circle cx="179.5" cy="77.5" r="2.5" fill="#EDC988"/>
<circle cx="194.5" cy="77.5" r="2.5" fill="#EDC988"/>
<circle cx="209.5" cy="77.5" r="2.5" fill="#EDC988"/>
<circle cx="224.5" cy="77.5" r="2.5" fill="#EDC988"/>
<circle cx="239.5" cy="77.5" r="2.5" fill="#EDC988"/>
<circle cx="254.5" cy="77.5" r="2.5" fill="#EDC988"/>
<circle cx="-0.5" cy="102.5" r="2.5" fill="#EDC988"/>
<circle cx="14.5" cy="102.5" r="2.5" fill="#EDC988"/>
<circle cx="29.5" cy="102.5" r="2.5" fill="#EDC988"/>
<circle cx="44.5" cy="102.5" r="2.5" fill="#EDC988"/>
<circle cx="59.5" cy="102.5" r="2.5" fill="#EDC988"/>
<circle cx="74.5" cy="102.5" r="2.5" fill="#EDC988"/>
<circle cx="89.5" cy="102.5" r="2.5" fill="#EDC988"/>
<circle cx="104.5" cy="102.5" r="2.5" fill="#EDC988"/>
<circle cx="119.5" cy="102.5" r="2.5" fill="#EDC988"/>
<circle cx="134.5" cy="102.5" r="2.5" fill="#EDC988"/>
<circle cx="149.5" cy="102.5" r="2.5" fill="#EDC988"/>
<circle cx="164.5" cy="102.5" r="2.5" fill="#EDC988"/>
<circle cx="179.5" cy="102.5" r="2.5" fill="#EDC988"/>
<circle cx="194.5" cy="102.5" r="2.5" fill="#EDC988"/>
<circle cx="209.5" cy="102.5" r="2.5" fill="#EDC988"/>
<circle cx="224.5" cy="102.5" r="2.5" fill="#EDC988"/>
<circle cx="239.5" cy="102.5" r="2.5" fill="#EDC988"/>
<circle cx="254.5" cy="102.5" r="2.5" fill="#EDC988"/>
<circle cx="-0.5" cy="127.5" r="2.5" fill="#EDC988"/>
<circle cx="14.5" cy="127.5" r="2.5" fill="#EDC988"/>
<circle cx="29.5" cy="127.5" r="2.5" fill="#EDC988"/>
<circle cx="44.5" cy="127.5" r="2.5" fill="#EDC988"/>
<circle cx="59.5" cy="127.5" r="2.5" fill="#EDC988"/>
<circle cx="74.5" cy="127.5" r="2.5" fill="#EDC988"/>
<circle cx="89.5" cy="127.5" r="2.5" fill="#EDC988"/>
<circle cx="104.5" cy="127.5" r="2.5" fill="#EDC988"/>
<circle cx="119.5" cy="127.5" r="2.5" fill="#EDC988"/>
<circle cx="134.5" cy="127.5" r="2.5" fill="#EDC988"/>
<circle cx="149.5" cy="127.5" r="2.5" fill="#EDC988"/>
<circle cx="164.5" cy="127.5" r="2.5" fill="#EDC988"/>
<circle cx="179.5" cy="127.5" r="2.5" fill="#EDC988"/>
<circle cx="194.5" cy="127.5" r="2.5" fill="#EDC988"/>
<circle cx="209.5" cy="127.5" r="2.5" fill="#EDC988"/>
<circle cx="224.5" cy="127.5" r="2.5" fill="#EDC988"/>
<circle cx="239.5" cy="127.5" r="2.5" fill="#EDC988"/>
<circle cx="254.5" cy="127.5" r="2.5" fill="#EDC988"/>
<circle cx="-0.5" cy="152.5" r="2.5" fill="#EDC988"/>
<circle cx="14.5" cy="152.5" r="2.5" fill="#EDC988"/>
<circle cx="29.5" cy="152.5" r="2.5" fill="#EDC988"/>
<circle cx="44.5" cy="152.5" r="2.5" fill="#EDC988"/>
<circle cx="59.5" cy="152.5" r="2.5" fill="#EDC988"/>
<circle cx="74.5" cy="152.5" r="2.5" fill="#EDC988"/>
<circle cx="89.5" cy="152.5" r="2.5" fill="#EDC988"/>
<circle cx="104.5" cy="152.5" r="2.5" fill="#EDC988"/>
<circle cx="119.5" cy="152.5" r="2.5" fill="#EDC988"/>
<circle cx="134.5" cy="152.5" r="2.5" fill="#EDC988"/>
<circle cx="149.5" cy="152.5" r="2.5" fill="#EDC988"/>
<circle cx="164.5" cy="152.5" r="2.5" fill="#EDC988"/>
<circle cx="179.5" cy="152.5" r="2.5" fill="#EDC988"/>
<circle cx="194.5" cy="152.5" r="2.5" fill="#EDC988"/>
<circle cx="209.5" cy="152.5" r="2.5" fill="#EDC988"/>
<circle cx="224.5" cy="152.5" r="2.5" fill="#EDC988"/>
<circle cx="239.5" cy="152.5" r="2.5" fill="#EDC988"/>
<circle cx="254.5" cy="152.5" r="2.5" fill="#EDC988"/>
<circle cx="-0.5" cy="177.5" r="2.5" fill="#EDC988"/>
<circle cx="14.5" cy="177.5" r="2.5" fill="#EDC988"/>
<circle cx="29.5" cy="177.5" r="2.5" fill="#EDC988"/>
<circle cx="44.5" cy="177.5" r="2.5" fill="#EDC988"/>
<circle cx="59.5" cy="177.5" r="2.5" fill="#EDC988"/>
<circle cx="74.5" cy="177.5" r="2.5" fill="#EDC988"/>
<circle cx="89.5" cy="177.5" r="2.5" fill="#EDC988"/>
<circle cx="104.5" cy="177.5" r="2.5" fill="#EDC988"/>
<circle cx="119.5" cy="177.5" r="2.5" fill="#EDC988"/>
<circle cx="134.5" cy="177.5" r="2.5" fill="#EDC988"/>
<circle cx="149.5" cy="177.5" r="2.5" fill="#EDC988"/>
<circle cx="164.5" cy="177.5" r="2.5" fill="#EDC988"/>
<circle cx="179.5" cy="177.5" r="2.5" fill="#EDC988"/>
<circle cx="194.5" cy="177.5" r="2.5" fill="#EDC988"/>
<circle cx="209.5" cy="177.5" r="2.5" fill="#EDC988"/>
<circle cx="224.5" cy="177.5" r="2.5" fill="#EDC988"/>
<circle cx="239.5" cy="177.5" r="2.5" fill="#EDC988"/>
<circle cx="254.5" cy="177.5" r="2.5" fill="#EDC988"/>
</svg>
