<svg width="16" height="16" viewBox="0 0 16 16" fill="none" xmlns="http://www.w3.org/2000/svg">
<g clip-path="url(#clip0)">
<path d="M9.7595 6.5203L9.75964 6.52021C9.78533 6.50177 9.80226 6.49997 9.81013 6.5C9.81803 6.50003 9.83561 6.50202 9.86212 6.52116C9.92187 6.56499 9.99977 6.686 10 6.86603C10 6.8661 10 6.86617 10 6.86625L10 12.1344C10 12.2683 9.95631 12.3729 9.90694 12.4349C9.85828 12.496 9.82084 12.5 9.81034 12.5H7.18966C7.17916 12.5 7.14172 12.496 7.09306 12.4349C7.04369 12.3729 7 12.2683 7 12.1344V8.74506C7 8.56372 7.07897 8.44296 7.13893 8.39985C7.13896 8.39983 7.13898 8.39981 7.13901 8.39979L9.7595 6.5203Z" fill="#219653" stroke="#219653"/>
<path d="M4.57412 9.12944C4.31029 8.95758 3.98547 8.95719 3.72129 9.12628L0.430893 11.2214C0.094371 11.4351 -0.0708757 11.8748 0.0287687 12.292C0.128059 12.7096 0.467063 13 0.854648 13H4.1454C4.61738 13 5 12.5737 5 12.0479V9.95238C5.00035 9.6138 4.83794 9.29932 4.57412 9.12944Z" fill="#219653"/>
<path d="M15.3524 2.51841L15.3526 2.51855C15.4143 2.56651 15.5002 2.70609 15.5 2.91639V2.91682V12.0834C15.5 12.2394 15.4522 12.3612 15.399 12.4326C15.373 12.4674 15.3498 12.4851 15.3358 12.493C15.3234 12.5 15.3178 12.5 15.3164 12.5H15.3163H12.6837H12.6836C12.6822 12.5 12.6766 12.5 12.6642 12.493C12.6502 12.4851 12.627 12.4674 12.601 12.4326C12.5478 12.3612 12.5 12.2394 12.5 12.0834V4.93369C12.5 4.72133 12.5872 4.58176 12.6487 4.53464L12.6488 4.5346L15.2813 2.51812L15.2819 2.51767C15.2951 2.50746 15.3046 2.50329 15.3093 2.50162C15.3139 2.5 15.3161 2.5 15.3167 2.5C15.3172 2.5 15.3195 2.50002 15.3243 2.50174C15.3292 2.50351 15.3389 2.50788 15.3524 2.51841Z" fill="#219653" stroke="#219653"/>
</g>
<defs>
<clipPath id="clip0">
<rect width="16" height="16" fill="white"/>
</clipPath>
</defs>
</svg>
