<svg width="1280" height="332" viewBox="0 0 1280 332" fill="none" xmlns="http://www.w3.org/2000/svg">
<rect width="1280" height="332" rx="24" fill="#11111D"/>
<path d="M676 222C673.239 222 670.978 224.243 671.212 226.994C671.889 234.963 674.18 242.729 677.967 249.812C682.54 258.369 689.154 265.666 697.221 271.057C705.289 276.447 714.561 279.765 724.217 280.716C733.873 281.667 743.614 280.222 752.578 276.509C761.542 272.796 769.452 266.929 775.608 259.429C781.763 251.929 785.973 243.027 787.866 233.51C789.759 223.994 789.276 214.158 786.459 204.873C784.128 197.187 780.257 190.075 775.101 183.962C773.321 181.851 770.136 181.864 768.184 183.816L754.945 197.055C752.993 199.007 753.033 202.154 754.638 204.401C756.547 207.073 758.014 210.047 758.974 213.211C760.419 217.976 760.667 223.023 759.696 227.907C758.725 232.79 756.564 237.359 753.405 241.208C750.246 245.057 746.187 248.068 741.587 249.973C736.987 251.878 731.987 252.62 727.032 252.132C722.077 251.644 717.319 249.941 713.179 247.175C709.039 244.409 705.645 240.664 703.297 236.273C701.739 233.357 700.674 230.216 700.134 226.977C699.68 224.254 697.484 222 694.722 222L676 222Z" fill="#268877" fill-opacity="0.1"/>
<path d="M1251 76.5C1253.76 76.5 1256.02 74.2564 1255.76 71.5075C1255.27 66.3252 1254 61.2359 1252 56.4091C1249.37 50.0395 1245.5 44.252 1240.62 39.3769C1235.75 34.5018 1229.96 30.6347 1223.59 27.9963C1218.76 25.997 1213.67 24.733 1208.49 24.2379C1205.74 23.9753 1203.5 26.2386 1203.5 29L1203.5 71.5C1203.5 74.2614 1205.74 76.5 1208.5 76.5L1251 76.5Z" fill="#FE9A8C" fill-opacity="0.1"/>
<circle cx="983.5" cy="255.5" r="2.5" fill="#272737"/>
<circle cx="998.5" cy="255.5" r="2.5" fill="#272737"/>
<circle cx="1013.5" cy="255.5" r="2.5" fill="#272737"/>
<circle cx="1028.5" cy="255.5" r="2.5" fill="#272737"/>
<circle cx="1043.5" cy="255.5" r="2.5" fill="#272737"/>
<circle cx="1058.5" cy="255.5" r="2.5" fill="#272737"/>
<circle cx="1073.5" cy="255.5" r="2.5" fill="#272737"/>
<circle cx="1088.5" cy="255.5" r="2.5" fill="#272737"/>
<circle cx="1103.5" cy="255.5" r="2.5" fill="#272737"/>
<circle cx="1118.5" cy="255.5" r="2.5" fill="#272737"/>
<circle cx="1133.5" cy="255.5" r="2.5" fill="#272737"/>
<circle cx="1148.5" cy="255.5" r="2.5" fill="#272737"/>
<circle cx="1163.5" cy="255.5" r="2.5" fill="#272737"/>
<circle cx="1178.5" cy="255.5" r="2.5" fill="#272737"/>
<circle cx="1193.5" cy="255.5" r="2.5" fill="#272737"/>
<circle cx="1208.5" cy="255.5" r="2.5" fill="#272737"/>
<circle cx="1223.5" cy="255.5" r="2.5" fill="#272737"/>
<circle cx="1238.5" cy="255.5" r="2.5" fill="#272737"/>
<circle cx="1253.5" cy="255.5" r="2.5" fill="#272737"/>
<circle cx="983.5" cy="280.5" r="2.5" fill="#272737"/>
<circle cx="998.5" cy="280.5" r="2.5" fill="#272737"/>
<circle cx="1013.5" cy="280.5" r="2.5" fill="#272737"/>
<circle cx="1028.5" cy="280.5" r="2.5" fill="#272737"/>
<circle cx="1043.5" cy="280.5" r="2.5" fill="#272737"/>
<circle cx="1058.5" cy="280.5" r="2.5" fill="#272737"/>
<circle cx="1073.5" cy="280.5" r="2.5" fill="#272737"/>
<circle cx="1088.5" cy="280.5" r="2.5" fill="#272737"/>
<circle cx="1103.5" cy="280.5" r="2.5" fill="#272737"/>
<circle cx="1118.5" cy="280.5" r="2.5" fill="#272737"/>
<circle cx="1133.5" cy="280.5" r="2.5" fill="#272737"/>
<circle cx="1148.5" cy="280.5" r="2.5" fill="#272737"/>
<circle cx="1163.5" cy="280.5" r="2.5" fill="#272737"/>
<circle cx="1178.5" cy="280.5" r="2.5" fill="#272737"/>
<circle cx="1193.5" cy="280.5" r="2.5" fill="#272737"/>
<circle cx="1208.5" cy="280.5" r="2.5" fill="#272737"/>
<circle cx="1223.5" cy="280.5" r="2.5" fill="#272737"/>
<circle cx="1238.5" cy="280.5" r="2.5" fill="#272737"/>
<circle cx="1253.5" cy="280.5" r="2.5" fill="#272737"/>
<circle cx="983.5" cy="305.5" r="2.5" fill="#272737"/>
<circle cx="998.5" cy="305.5" r="2.5" fill="#272737"/>
<circle cx="1013.5" cy="305.5" r="2.5" fill="#272737"/>
<circle cx="1028.5" cy="305.5" r="2.5" fill="#272737"/>
<circle cx="1043.5" cy="305.5" r="2.5" fill="#272737"/>
<circle cx="1058.5" cy="305.5" r="2.5" fill="#272737"/>
<circle cx="1073.5" cy="305.5" r="2.5" fill="#272737"/>
<circle cx="1088.5" cy="305.5" r="2.5" fill="#272737"/>
<circle cx="1103.5" cy="305.5" r="2.5" fill="#272737"/>
<circle cx="1118.5" cy="305.5" r="2.5" fill="#272737"/>
<circle cx="1133.5" cy="305.5" r="2.5" fill="#272737"/>
<circle cx="1148.5" cy="305.5" r="2.5" fill="#272737"/>
<circle cx="1163.5" cy="305.5" r="2.5" fill="#272737"/>
<circle cx="1178.5" cy="305.5" r="2.5" fill="#272737"/>
<circle cx="1193.5" cy="305.5" r="2.5" fill="#272737"/>
<circle cx="1208.5" cy="305.5" r="2.5" fill="#272737"/>
<circle cx="1223.5" cy="305.5" r="2.5" fill="#272737"/>
<circle cx="1238.5" cy="305.5" r="2.5" fill="#272737"/>
<circle cx="1253.5" cy="305.5" r="2.5" fill="#272737"/>
<circle cx="553.5" cy="33.5" r="2.5" fill="#272737"/>
<circle cx="568.5" cy="33.5" r="2.5" fill="#272737"/>
<circle cx="583.5" cy="33.5" r="2.5" fill="#272737"/>
<circle cx="598.5" cy="33.5" r="2.5" fill="#272737"/>
<circle cx="613.5" cy="33.5" r="2.5" fill="#272737"/>
<circle cx="628.5" cy="33.5" r="2.5" fill="#272737"/>
<circle cx="643.5" cy="33.5" r="2.5" fill="#272737"/>
<circle cx="658.5" cy="33.5" r="2.5" fill="#272737"/>
<circle cx="673.5" cy="33.5" r="2.5" fill="#272737"/>
<circle cx="688.5" cy="33.5" r="2.5" fill="#272737"/>
<circle cx="703.5" cy="33.5" r="2.5" fill="#272737"/>
<circle cx="718.5" cy="33.5" r="2.5" fill="#272737"/>
<circle cx="733.5" cy="33.5" r="2.5" fill="#272737"/>
<circle cx="553.5" cy="58.5" r="2.5" fill="#272737"/>
<circle cx="568.5" cy="58.5" r="2.5" fill="#272737"/>
<circle cx="583.5" cy="58.5" r="2.5" fill="#272737"/>
<circle cx="598.5" cy="58.5" r="2.5" fill="#272737"/>
<circle cx="613.5" cy="58.5" r="2.5" fill="#272737"/>
<circle cx="628.5" cy="58.5" r="2.5" fill="#272737"/>
<circle cx="643.5" cy="58.5" r="2.5" fill="#272737"/>
<circle cx="658.5" cy="58.5" r="2.5" fill="#272737"/>
<circle cx="673.5" cy="58.5" r="2.5" fill="#272737"/>
<circle cx="688.5" cy="58.5" r="2.5" fill="#272737"/>
<circle cx="703.5" cy="58.5" r="2.5" fill="#272737"/>
<circle cx="718.5" cy="58.5" r="2.5" fill="#272737"/>
<circle cx="733.5" cy="58.5" r="2.5" fill="#272737"/>
<ellipse cx="91" cy="94" rx="63" ry="63" transform="rotate(180 91 94)" fill="#EDC988" fill-opacity="0.05"/>
<path d="M238.065 252.251C237.785 250.059 235.773 248.488 233.628 249.016C228.442 250.294 223.6 252.746 219.484 256.204C214.344 260.523 210.554 266.23 208.568 272.643C206.581 279.056 206.48 285.905 208.279 292.374C210.077 298.842 213.697 304.657 218.709 309.125C223.72 313.593 229.911 316.525 236.543 317.572C243.175 318.619 249.968 317.736 256.112 315.029C262.256 312.322 267.491 307.905 271.195 302.305C274.16 297.821 276.042 292.73 276.718 287.432C276.998 285.241 275.206 283.421 272.998 283.393L263.759 283.276C261.55 283.248 259.781 285.039 259.26 287.186C258.778 289.174 257.954 291.073 256.815 292.796C254.936 295.638 252.279 297.879 249.161 299.253C246.043 300.627 242.596 301.075 239.231 300.543C235.866 300.012 232.724 298.524 230.181 296.257C227.638 293.99 225.801 291.039 224.888 287.757C223.976 284.474 224.027 280.999 225.035 277.744C226.043 274.49 227.966 271.594 230.574 269.402C232.156 268.074 233.949 267.038 235.868 266.331C237.942 265.569 239.519 263.607 239.238 261.415L238.065 252.251Z" fill="#EDC988" fill-opacity="0.04"/>
</svg>
