<svg width="110" height="95" viewBox="0 0 110 95" fill="none" xmlns="http://www.w3.org/2000/svg">
<path fill-rule="evenodd" clip-rule="evenodd" d="M2.50012 5C3.88083 5 5.00012 3.88071 5.00012 2.5C5.00012 1.11929 3.88083 0 2.50012 0C1.11941 0 0.00012207 1.11929 0.00012207 2.5C0.00012207 3.88071 1.11941 5 2.50012 5ZM2.50012 20C3.88083 20 5.00012 18.8807 5.00012 17.5C5.00012 16.1193 3.88083 15 2.50012 15C1.11941 15 0.00012207 16.1193 0.00012207 17.5C0.00012207 18.8807 1.11941 20 2.50012 20ZM5.00012 32.5C5.00012 33.8807 3.88083 35 2.50012 35C1.11941 35 0.00012207 33.8807 0.00012207 32.5C0.00012207 31.1193 1.11941 30 2.50012 30C3.88083 30 5.00012 31.1193 5.00012 32.5ZM2.50012 50C3.88083 50 5.00012 48.8807 5.00012 47.5C5.00012 46.1193 3.88083 45 2.50012 45C1.11941 45 0.00012207 46.1193 0.00012207 47.5C0.00012207 48.8807 1.11941 50 2.50012 50ZM5.00012 62.5C5.00012 63.8807 3.88083 65 2.50012 65C1.11941 65 0.00012207 63.8807 0.00012207 62.5C0.00012207 61.1193 1.11941 60 2.50012 60C3.88083 60 5.00012 61.1193 5.00012 62.5ZM2.50012 80C3.88083 80 5.00012 78.8807 5.00012 77.5C5.00012 76.1193 3.88083 75 2.50012 75C1.11941 75 0.00012207 76.1193 0.00012207 77.5C0.00012207 78.8807 1.11941 80 2.50012 80ZM5.00012 92.5C5.00012 93.8807 3.88083 95 2.50012 95C1.11941 95 0.00012207 93.8807 0.00012207 92.5C0.00012207 91.1193 1.11941 90 2.50012 90C3.88083 90 5.00012 91.1193 5.00012 92.5ZM17.5001 5C18.8808 5 20.0001 3.88071 20.0001 2.5C20.0001 1.11929 18.8808 0 17.5001 0C16.1194 0 15.0001 1.11929 15.0001 2.5C15.0001 3.88071 16.1194 5 17.5001 5ZM17.5001 20C18.8808 20 20.0001 18.8807 20.0001 17.5C20.0001 16.1193 18.8808 15 17.5001 15C16.1194 15 15.0001 16.1193 15.0001 17.5C15.0001 18.8807 16.1194 20 17.5001 20ZM20.0001 32.5C20.0001 33.8807 18.8808 35 17.5001 35C16.1194 35 15.0001 33.8807 15.0001 32.5C15.0001 31.1193 16.1194 30 17.5001 30C18.8808 30 20.0001 31.1193 20.0001 32.5ZM17.5001 50C18.8808 50 20.0001 48.8807 20.0001 47.5C20.0001 46.1193 18.8808 45 17.5001 45C16.1194 45 15.0001 46.1193 15.0001 47.5C15.0001 48.8807 16.1194 50 17.5001 50ZM20.0001 62.5C20.0001 63.8807 18.8808 65 17.5001 65C16.1194 65 15.0001 63.8807 15.0001 62.5C15.0001 61.1193 16.1194 60 17.5001 60C18.8808 60 20.0001 61.1193 20.0001 62.5ZM17.5001 80C18.8808 80 20.0001 78.8807 20.0001 77.5C20.0001 76.1193 18.8808 75 17.5001 75C16.1194 75 15.0001 76.1193 15.0001 77.5C15.0001 78.8807 16.1194 80 17.5001 80ZM20.0001 92.5C20.0001 93.8807 18.8808 95 17.5001 95C16.1194 95 15.0001 93.8807 15.0001 92.5C15.0001 91.1193 16.1194 90 17.5001 90C18.8808 90 20.0001 91.1193 20.0001 92.5ZM35.0001 2.5C35.0001 3.88071 33.8808 5 32.5001 5C31.1194 5 30.0001 3.88071 30.0001 2.5C30.0001 1.11929 31.1194 0 32.5001 0C33.8808 0 35.0001 1.11929 35.0001 2.5ZM35.0001 17.5C35.0001 18.8807 33.8808 20 32.5001 20C31.1194 20 30.0001 18.8807 30.0001 17.5C30.0001 16.1193 31.1194 15 32.5001 15C33.8808 15 35.0001 16.1193 35.0001 17.5ZM32.5001 35C33.8808 35 35.0001 33.8807 35.0001 32.5C35.0001 31.1193 33.8808 30 32.5001 30C31.1194 30 30.0001 31.1193 30.0001 32.5C30.0001 33.8807 31.1194 35 32.5001 35ZM35.0001 47.5C35.0001 48.8807 33.8808 50 32.5001 50C31.1194 50 30.0001 48.8807 30.0001 47.5C30.0001 46.1193 31.1194 45 32.5001 45C33.8808 45 35.0001 46.1193 35.0001 47.5ZM32.5001 65C33.8808 65 35.0001 63.8807 35.0001 62.5C35.0001 61.1193 33.8808 60 32.5001 60C31.1194 60 30.0001 61.1193 30.0001 62.5C30.0001 63.8807 31.1194 65 32.5001 65ZM35.0001 77.5C35.0001 78.8807 33.8808 80 32.5001 80C31.1194 80 30.0001 78.8807 30.0001 77.5C30.0001 76.1193 31.1194 75 32.5001 75C33.8808 75 35.0001 76.1193 35.0001 77.5ZM32.5001 95C33.8808 95 35.0001 93.8807 35.0001 92.5C35.0001 91.1193 33.8808 90 32.5001 90C31.1194 90 30.0001 91.1193 30.0001 92.5C30.0001 93.8807 31.1194 95 32.5001 95ZM47.5001 5C48.8808 5 50.0001 3.88071 50.0001 2.5C50.0001 1.11929 48.8808 0 47.5001 0C46.1194 0 45.0001 1.11929 45.0001 2.5C45.0001 3.88071 46.1194 5 47.5001 5ZM47.5001 20C48.8808 20 50.0001 18.8807 50.0001 17.5C50.0001 16.1193 48.8808 15 47.5001 15C46.1194 15 45.0001 16.1193 45.0001 17.5C45.0001 18.8807 46.1194 20 47.5001 20ZM50.0001 32.5C50.0001 33.8807 48.8808 35 47.5001 35C46.1194 35 45.0001 33.8807 45.0001 32.5C45.0001 31.1193 46.1194 30 47.5001 30C48.8808 30 50.0001 31.1193 50.0001 32.5ZM47.5001 50C48.8808 50 50.0001 48.8807 50.0001 47.5C50.0001 46.1193 48.8808 45 47.5001 45C46.1194 45 45.0001 46.1193 45.0001 47.5C45.0001 48.8807 46.1194 50 47.5001 50ZM50.0001 62.5C50.0001 63.8807 48.8808 65 47.5001 65C46.1194 65 45.0001 63.8807 45.0001 62.5C45.0001 61.1193 46.1194 60 47.5001 60C48.8808 60 50.0001 61.1193 50.0001 62.5ZM47.5001 80C48.8808 80 50.0001 78.8807 50.0001 77.5C50.0001 76.1193 48.8808 75 47.5001 75C46.1194 75 45.0001 76.1193 45.0001 77.5C45.0001 78.8807 46.1194 80 47.5001 80ZM50.0001 92.5C50.0001 93.8807 48.8808 95 47.5001 95C46.1194 95 45.0001 93.8807 45.0001 92.5C45.0001 91.1193 46.1194 90 47.5001 90C48.8808 90 50.0001 91.1193 50.0001 92.5ZM65.0001 2.5C65.0001 3.88071 63.8808 5 62.5001 5C61.1194 5 60.0001 3.88071 60.0001 2.5C60.0001 1.11929 61.1194 0 62.5001 0C63.8808 0 65.0001 1.11929 65.0001 2.5ZM65.0001 17.5C65.0001 18.8807 63.8808 20 62.5001 20C61.1194 20 60.0001 18.8807 60.0001 17.5C60.0001 16.1193 61.1194 15 62.5001 15C63.8808 15 65.0001 16.1193 65.0001 17.5ZM62.5001 35C63.8808 35 65.0001 33.8807 65.0001 32.5C65.0001 31.1193 63.8808 30 62.5001 30C61.1194 30 60.0001 31.1193 60.0001 32.5C60.0001 33.8807 61.1194 35 62.5001 35ZM65.0001 47.5C65.0001 48.8807 63.8808 50 62.5001 50C61.1194 50 60.0001 48.8807 60.0001 47.5C60.0001 46.1193 61.1194 45 62.5001 45C63.8808 45 65.0001 46.1193 65.0001 47.5ZM62.5001 65C63.8808 65 65.0001 63.8807 65.0001 62.5C65.0001 61.1193 63.8808 60 62.5001 60C61.1194 60 60.0001 61.1193 60.0001 62.5C60.0001 63.8807 61.1194 65 62.5001 65ZM65.0001 77.5C65.0001 78.8807 63.8808 80 62.5001 80C61.1194 80 60.0001 78.8807 60.0001 77.5C60.0001 76.1193 61.1194 75 62.5001 75C63.8808 75 65.0001 76.1193 65.0001 77.5ZM62.5001 95C63.8808 95 65.0001 93.8807 65.0001 92.5C65.0001 91.1193 63.8808 90 62.5001 90C61.1194 90 60.0001 91.1193 60.0001 92.5C60.0001 93.8807 61.1194 95 62.5001 95ZM77.5001 5C78.8808 5 80.0001 3.88071 80.0001 2.5C80.0001 1.11929 78.8808 0 77.5001 0C76.1194 0 75.0001 1.11929 75.0001 2.5C75.0001 3.88071 76.1194 5 77.5001 5ZM77.5001 20C78.8808 20 80.0001 18.8807 80.0001 17.5C80.0001 16.1193 78.8808 15 77.5001 15C76.1194 15 75.0001 16.1193 75.0001 17.5C75.0001 18.8807 76.1194 20 77.5001 20ZM80.0001 32.5C80.0001 33.8807 78.8808 35 77.5001 35C76.1194 35 75.0001 33.8807 75.0001 32.5C75.0001 31.1193 76.1194 30 77.5001 30C78.8808 30 80.0001 31.1193 80.0001 32.5ZM77.5001 50C78.8808 50 80.0001 48.8807 80.0001 47.5C80.0001 46.1193 78.8808 45 77.5001 45C76.1194 45 75.0001 46.1193 75.0001 47.5C75.0001 48.8807 76.1194 50 77.5001 50ZM80.0001 62.5C80.0001 63.8807 78.8808 65 77.5001 65C76.1194 65 75.0001 63.8807 75.0001 62.5C75.0001 61.1193 76.1194 60 77.5001 60C78.8808 60 80.0001 61.1193 80.0001 62.5ZM77.5001 80C78.8808 80 80.0001 78.8807 80.0001 77.5C80.0001 76.1193 78.8808 75 77.5001 75C76.1194 75 75.0001 76.1193 75.0001 77.5C75.0001 78.8807 76.1194 80 77.5001 80ZM80.0001 92.5C80.0001 93.8807 78.8808 95 77.5001 95C76.1194 95 75.0001 93.8807 75.0001 92.5C75.0001 91.1193 76.1194 90 77.5001 90C78.8808 90 80.0001 91.1193 80.0001 92.5ZM95.0001 2.5C95.0001 3.88071 93.8808 5 92.5001 5C91.1194 5 90.0001 3.88071 90.0001 2.5C90.0001 1.11929 91.1194 0 92.5001 0C93.8808 0 95.0001 1.11929 95.0001 2.5ZM95.0001 17.5C95.0001 18.8807 93.8808 20 92.5001 20C91.1194 20 90.0001 18.8807 90.0001 17.5C90.0001 16.1193 91.1194 15 92.5001 15C93.8808 15 95.0001 16.1193 95.0001 17.5ZM92.5001 35C93.8808 35 95.0001 33.8807 95.0001 32.5C95.0001 31.1193 93.8808 30 92.5001 30C91.1194 30 90.0001 31.1193 90.0001 32.5C90.0001 33.8807 91.1194 35 92.5001 35ZM95.0001 47.5C95.0001 48.8807 93.8808 50 92.5001 50C91.1194 50 90.0001 48.8807 90.0001 47.5C90.0001 46.1193 91.1194 45 92.5001 45C93.8808 45 95.0001 46.1193 95.0001 47.5ZM92.5001 65C93.8808 65 95.0001 63.8807 95.0001 62.5C95.0001 61.1193 93.8808 60 92.5001 60C91.1194 60 90.0001 61.1193 90.0001 62.5C90.0001 63.8807 91.1194 65 92.5001 65ZM95.0001 77.5C95.0001 78.8807 93.8808 80 92.5001 80C91.1194 80 90.0001 78.8807 90.0001 77.5C90.0001 76.1193 91.1194 75 92.5001 75C93.8808 75 95.0001 76.1193 95.0001 77.5ZM92.5001 95C93.8808 95 95.0001 93.8807 95.0001 92.5C95.0001 91.1193 93.8808 90 92.5001 90C91.1194 90 90.0001 91.1193 90.0001 92.5C90.0001 93.8807 91.1194 95 92.5001 95ZM107.5 5C108.881 5 110 3.88071 110 2.5C110 1.11929 108.881 0 107.5 0C106.119 0 105 1.11929 105 2.5C105 3.88071 106.119 5 107.5 5ZM107.5 20C108.881 20 110 18.8807 110 17.5C110 16.1193 108.881 15 107.5 15C106.119 15 105 16.1193 105 17.5C105 18.8807 106.119 20 107.5 20ZM110 32.5C110 33.8807 108.881 35 107.5 35C106.119 35 105 33.8807 105 32.5C105 31.1193 106.119 30 107.5 30C108.881 30 110 31.1193 110 32.5ZM107.5 50C108.881 50 110 48.8807 110 47.5C110 46.1193 108.881 45 107.5 45C106.119 45 105 46.1193 105 47.5C105 48.8807 106.119 50 107.5 50ZM110 62.5C110 63.8807 108.881 65 107.5 65C106.119 65 105 63.8807 105 62.5C105 61.1193 106.119 60 107.5 60C108.881 60 110 61.1193 110 62.5ZM107.5 80C108.881 80 110 78.8807 110 77.5C110 76.1193 108.881 75 107.5 75C106.119 75 105 76.1193 105 77.5C105 78.8807 106.119 80 107.5 80ZM110 92.5C110 93.8807 108.881 95 107.5 95C106.119 95 105 93.8807 105 92.5C105 91.1193 106.119 90 107.5 90C108.881 90 110 91.1193 110 92.5Z" fill="#FE9A8C"/>
</svg>
