<svg width="51" height="34" viewBox="0 0 51 34" fill="none" xmlns="http://www.w3.org/2000/svg">
<rect x="0.25" y="0.25" width="50.5" height="33.5" rx="3.75" fill="white" stroke="#E1E3EA" stroke-width="0.5"/>
<path d="M22.6437 23.3181H19.2483L21.372 11.4175H24.7673L22.6437 23.3181Z" fill="#15195A"/>
<path d="M34.9523 11.7083C34.2825 11.4675 33.2203 11.2017 31.9068 11.2017C28.5537 11.2017 26.1925 12.8221 26.178 15.1388C26.1501 16.8481 27.8686 17.7974 29.1538 18.3674C30.4674 18.9497 30.914 19.3298 30.914 19.849C30.9006 20.6462 29.8525 21.0137 28.8749 21.0137C27.5193 21.0137 26.7929 20.8242 25.6891 20.3807L25.242 20.1905L24.7668 22.862C25.5632 23.1908 27.0304 23.4825 28.5537 23.4953C32.1164 23.4953 34.4359 21.9 34.4634 19.4311C34.4769 18.0764 33.5695 17.0384 31.6133 16.1901C30.4257 15.6456 29.6984 15.2785 29.6984 14.7213C29.7123 14.2148 30.3135 13.6961 31.6541 13.6961C32.7579 13.6707 33.569 13.9111 34.1834 14.1517L34.4905 14.2781L34.9523 11.7083Z" fill="#15195A"/>
<path fill-rule="evenodd" clip-rule="evenodd" d="M41.0303 11.4175H43.6567L46.396 23.3179H43.2521C43.2521 23.3179 42.9445 21.9506 42.847 21.5328H38.4875C38.3614 21.8491 37.7749 23.3179 37.7749 23.3179H34.2122L39.2556 12.4049C39.6051 11.6325 40.2204 11.4175 41.0303 11.4175ZM40.8211 15.7724C40.8211 15.7724 39.7452 18.4185 39.4655 19.1021H42.2878C42.1482 18.5071 41.5052 15.6585 41.5052 15.6585L41.2679 14.6331C41.168 14.8971 41.0234 15.2602 40.926 15.505C40.8599 15.671 40.8154 15.7827 40.8211 15.7724Z" fill="#15195A"/>
<path d="M16.4123 11.4175L13.0871 19.5325L12.7237 17.8867C12.109 15.9876 10.1809 13.9243 8.0293 12.8984L11.0751 23.3055H14.6657L20.0028 11.4175H16.4123Z" fill="#15195A"/>
<path d="M9.9993 11.4175H4.53636L4.48047 11.6579C8.7419 12.6455 11.5642 15.026 12.7237 17.8872L11.5361 12.4178C11.3406 11.6578 10.7398 11.4426 9.9993 11.4175Z" fill="#FAA61A"/>
</svg>
